<?xml version="1.0" encoding="utf-8"?>
<!-- Generator: Adobe Illustrator 22.0.0, SVG Export Plug-In . SVG Version: 6.00 Build 0)  -->
<svg version="1.1" id="Layer_1" xmlns="http://www.w3.org/2000/svg" xmlns:xlink="http://www.w3.org/1999/xlink" x="0px" y="0px"
	 viewBox="0 0 72 40" style="enable-background:new 0 0 72 40;" xml:space="preserve">
<style type="text/css">
	.st0{fill:#231F20;}
</style>
<g>
	<path class="st0" d="M0,18.3l2.1-7.9c0.6-2.1,2.4-3.2,5.5-3.2H12c0.2,0,0.4,0.1,0.5,0.2c0.1,0.2,0.2,0.3,0.2,0.5v10.3
		c0,0.2-0.1,0.4-0.2,0.5s-0.3,0.2-0.6,0.2h-1.6c-0.2,0-0.4-0.1-0.6-0.2s-0.2-0.3-0.2-0.6v-2.1H3.8l-0.6,2.1
		c-0.1,0.2-0.2,0.4-0.4,0.6s-0.4,0.2-0.6,0.2H0.6c-0.2,0-0.4-0.1-0.5-0.2C0,18.8,0,18.7,0,18.6C0,18.5,0,18.4,0,18.3z M4.4,13.9h5.3
		V9.6H7.3c-0.5,0-1,0.1-1.4,0.5c-0.4,0.3-0.7,0.7-0.8,1.2L4.4,13.9z"/>
	<path class="st0" d="M14.8,18.6v-8c0-0.1,0-0.3,0.1-0.4c0.1-0.1,0.2-0.1,0.4-0.1h1.9c0.1,0,0.3,0,0.4,0.1c0.1,0.1,0.1,0.2,0.1,0.4
		V11c0.9-0.8,2-1.2,3-1.2c1.1,0,1.9,0.3,2.6,1c0.7,0.7,1,1.7,1,3v4.7c0,0.1,0,0.3-0.1,0.4s-0.2,0.1-0.4,0.1H22c-0.1,0-0.3,0-0.4-0.1
		c-0.1-0.1-0.1-0.2-0.1-0.4v-4.7c0-1.3-0.5-2-1.6-2c-0.7,0-1.4,0.4-2.2,1.2v5.5c0,0.1,0,0.3-0.1,0.4c-0.1,0.1-0.2,0.1-0.4,0.1h-1.9
		c-0.1,0-0.3,0-0.4-0.1C14.9,18.8,14.8,18.7,14.8,18.6z"/>
	<path class="st0" d="M26.8,18.5c-0.7-0.5-1.1-1.2-1.1-2.1s0.4-1.6,1.1-2.1s1.7-0.7,2.8-0.7h2.7c0-0.6-0.1-1.1-0.4-1.3
		c-0.3-0.3-0.7-0.4-1.4-0.4c-0.7,0-1.1,0.2-1.4,0.5c-0.3,0.3-0.6,0.5-1,0.5h-1.2c-0.1,0-0.3,0-0.4-0.1s-0.1-0.2-0.1-0.4
		c0-1.6,1.5-2.4,4.5-2.4c1.3,0,2.4,0.3,3.2,0.9c0.8,0.6,1.2,1.5,1.2,2.7v5.1c0,0.1,0,0.3-0.1,0.4c-0.1,0.1-0.2,0.1-0.4,0.1h-1.6
		c-0.1,0-0.3,0-0.4-0.1c-0.1-0.1-0.1-0.2-0.1-0.4v-0.3c-0.9,0.6-1.9,0.9-3,0.9C28.4,19.2,27.5,19,26.8,18.5z M28.9,15.6
		c-0.2,0.2-0.3,0.4-0.3,0.7c0,0.3,0.1,0.5,0.3,0.7c0.2,0.2,0.6,0.3,1,0.3c0.8,0,1.7-0.2,2.5-0.7v-1.3h-2.5
		C29.4,15.3,29.1,15.4,28.9,15.6z"/>
	<path class="st0" d="M37.1,18.6V7.7c0-0.1,0-0.3,0.1-0.4c0.1-0.1,0.2-0.1,0.4-0.1h1.9c0.1,0,0.3,0,0.4,0.1C39.9,7.5,40,7.6,40,7.7
		v10.8c0,0.1,0,0.3-0.1,0.4c-0.1,0.1-0.2,0.1-0.4,0.1h-1.9c-0.1,0-0.3,0-0.4-0.1C37.1,18.8,37.1,18.7,37.1,18.6z"/>
	<path class="st0" d="M43.6,19.9l1.1,0.1c0.8,0,1.3-0.6,1.6-1.7c-0.9,0-1.7-0.3-2.3-0.8c-0.6-0.6-1.2-1.6-1.6-3l-1.2-4
		c0,0,0-0.1,0-0.2c0-0.1,0-0.1,0.1-0.2c0.1-0.1,0.2-0.1,0.3-0.1h1.7c0.2,0,0.3,0.1,0.5,0.2c0.1,0.1,0.2,0.2,0.3,0.4l1.1,3.5
		c0.3,0.9,0.5,1.5,0.8,1.8c0.3,0.3,0.6,0.5,1,0.5l1.6-5.8c0-0.2,0.1-0.3,0.3-0.4c0.1-0.1,0.3-0.2,0.4-0.2h1.7c0.1,0,0.2,0,0.3,0.1
		c0.1,0.1,0.1,0.2,0.1,0.2c0,0.1,0,0.1,0,0.1l-2.2,7.7c-0.4,1.4-0.9,2.3-1.4,2.9c-0.6,0.6-1.3,0.9-2.2,0.9s-1.5,0-1.9-0.1
		c-0.4-0.1-0.6-0.1-0.7-0.2c-0.1-0.1-0.1-0.2-0.1-0.3v-0.9c0-0.1,0-0.3,0.1-0.4c0.1-0.1,0.2-0.1,0.4-0.1H43.6z"/>
	<path class="st0" d="M52,12.5c0-1.8,1.4-2.7,4.3-2.7c3,0,4.5,0.8,4.5,2.4c0,0.1,0,0.3-0.1,0.4s-0.2,0.1-0.4,0.1h-1.2
		c-0.4,0-0.7-0.2-1-0.5c-0.3-0.3-0.8-0.5-1.6-0.5c-1.1,0-1.6,0.3-1.6,0.8c0,0.2,0.2,0.5,0.6,0.6c0.4,0.2,0.9,0.3,1.6,0.4
		c0.6,0.1,1.2,0.3,1.8,0.5c0.6,0.2,1.1,0.5,1.6,0.9c0.4,0.4,0.6,1,0.6,1.6c0,1.8-1.5,2.7-4.5,2.7c-3,0-4.5-0.8-4.5-2.4
		c0-0.1,0-0.3,0.1-0.4c0.1-0.1,0.2-0.1,0.4-0.1h1.2c0.4,0,0.7,0.2,1,0.5c0.3,0.3,0.8,0.5,1.6,0.5c1.3,0,1.9-0.3,1.9-0.8
		c0-0.2-0.2-0.5-0.6-0.6c-0.4-0.2-0.9-0.3-1.6-0.4c-0.6-0.1-1.2-0.3-1.8-0.5c-0.6-0.2-1.1-0.5-1.6-0.9C52.2,13.7,52,13.2,52,12.5z"
		/>
	<path class="st0" d="M66.7,17.3l1.1-0.1h0.3c0.1,0,0.3,0,0.4,0.1c0.1,0.1,0.1,0.2,0.1,0.4v0.9c0,0.1,0,0.2-0.1,0.3
		c-0.1,0.1-0.2,0.2-0.4,0.2c-0.6,0.1-1.3,0.2-2.2,0.2c-2.4,0-3.6-1.2-3.6-3.7V7.7c0-0.1,0-0.3,0.1-0.4c0.1-0.1,0.2-0.1,0.4-0.1h1.9
		c0.1,0,0.3,0,0.4,0.1c0.1,0.1,0.1,0.2,0.1,0.4v2.8h2.3c0.1,0,0.3,0,0.4,0.1c0.1,0.1,0.1,0.2,0.1,0.4v1c0,0.1,0,0.3-0.1,0.4
		c-0.1,0.1-0.2,0.1-0.4,0.1h-2.3v3c0,0.6,0.1,1,0.4,1.3C66,17.1,66.3,17.3,66.7,17.3z"/>
	<path class="st0" d="M1.9,31.2c-1-1-1.5-2.5-1.5-4.5s0.5-3.6,1.5-4.5c1-1,2.6-1.5,4.6-1.5h1.8c1.3,0,2.4,0.3,3.3,1
		c1,0.6,1.4,1.5,1.4,2.7c0,0.3-0.1,0.6-0.3,0.7c-0.2,0.1-0.4,0.2-0.6,0.2h-1c-0.5,0-0.9-0.3-1.2-0.9C9.6,23.5,9,23,8,23H6.5
		c-1.2,0-2,0.3-2.5,0.8c-0.4,0.5-0.6,1.5-0.6,2.9c0,1.4,0.2,2.4,0.6,2.9c0.4,0.5,1.2,0.8,2.5,0.8h1.6c0.9,0,1.6-0.4,2-1.3
		c0.3-0.6,0.7-0.9,1.2-0.9h1c0.3,0,0.5,0.1,0.6,0.3c0.2,0.2,0.2,0.4,0.2,0.6c0,1.1-0.5,2-1.4,2.7c-1,0.6-2.1,1-3.3,1h-2
		C4.4,32.7,2.9,32.2,1.9,31.2z"/>
	<path class="st0" d="M15.4,31.6c-0.9-0.8-1.3-2-1.3-3.5c0-1.5,0.4-2.7,1.3-3.5c0.9-0.8,2.1-1.2,3.7-1.2c1.6,0,2.8,0.4,3.7,1.2
		c0.9,0.8,1.3,2,1.3,3.5c0,1.5-0.4,2.7-1.3,3.5c-0.9,0.8-2.1,1.2-3.7,1.2C17.5,32.8,16.3,32.4,15.4,31.6z M17.5,25.9
		c-0.3,0.4-0.5,1.2-0.5,2.1c0,1,0.2,1.7,0.5,2.1c0.3,0.5,0.9,0.7,1.6,0.7c0.7,0,1.3-0.2,1.6-0.7c0.3-0.5,0.5-1.2,0.5-2.1
		c0-1-0.2-1.7-0.5-2.1c-0.3-0.4-0.9-0.7-1.6-0.7C18.4,25.3,17.9,25.5,17.5,25.9z"/>
	<path class="st0" d="M25.6,32.1v-8c0-0.1,0-0.3,0.1-0.4c0.1-0.1,0.2-0.1,0.4-0.1H28c0.1,0,0.3,0,0.4,0.1c0.1,0.1,0.1,0.2,0.1,0.4
		v0.5c0.9-0.8,2-1.2,3-1.2c1.1,0,1.9,0.3,2.6,1c0.7,0.7,1,1.7,1,3v4.7c0,0.1,0,0.3-0.1,0.4c-0.1,0.1-0.2,0.1-0.4,0.1h-1.8
		c-0.1,0-0.3,0-0.4-0.1c-0.1-0.1-0.1-0.2-0.1-0.4v-4.7c0-1.3-0.5-2-1.6-2c-0.7,0-1.4,0.4-2.2,1.2v5.5c0,0.1,0,0.3-0.1,0.4
		c-0.1,0.1-0.2,0.1-0.4,0.1h-1.9c-0.1,0-0.3,0-0.4-0.1C25.7,32.4,25.6,32.3,25.6,32.1z"/>
	<path class="st0" d="M36.5,26.1c0-1.8,1.4-2.7,4.3-2.7c3,0,4.5,0.8,4.5,2.4c0,0.1,0,0.3-0.1,0.4s-0.2,0.1-0.4,0.1h-1.2
		c-0.4,0-0.7-0.2-1-0.5c-0.3-0.3-0.8-0.5-1.6-0.5c-1.1,0-1.6,0.3-1.6,0.8c0,0.2,0.2,0.5,0.6,0.6c0.4,0.2,0.9,0.3,1.6,0.4
		c0.6,0.1,1.2,0.3,1.8,0.5c0.6,0.2,1.1,0.5,1.6,0.9c0.4,0.4,0.6,1,0.6,1.6c0,1.8-1.5,2.7-4.5,2.7s-4.5-0.8-4.5-2.4
		c0-0.1,0-0.3,0.1-0.4c0.1-0.1,0.2-0.1,0.4-0.1h1.2c0.4,0,0.7,0.2,1,0.5c0.3,0.3,0.8,0.5,1.6,0.5c1.3,0,1.9-0.3,1.9-0.8
		c0-0.2-0.2-0.5-0.6-0.6c-0.4-0.2-0.9-0.3-1.6-0.4c-0.6-0.1-1.2-0.3-1.8-0.5c-0.6-0.2-1.1-0.5-1.6-0.9
		C36.8,27.2,36.5,26.7,36.5,26.1z"/>
	<path class="st0" d="M47.8,31.6c-0.9-0.8-1.3-2-1.3-3.5c0-1.5,0.4-2.7,1.3-3.5c0.9-0.8,2.1-1.2,3.7-1.2c1.6,0,2.8,0.4,3.7,1.2
		c0.9,0.8,1.3,2,1.3,3.5c0,1.5-0.4,2.7-1.3,3.5c-0.9,0.8-2.1,1.2-3.7,1.2C49.9,32.8,48.7,32.4,47.8,31.6z M49.9,25.9
		c-0.3,0.4-0.5,1.2-0.5,2.1c0,1,0.2,1.7,0.5,2.1c0.3,0.5,0.9,0.7,1.6,0.7c0.7,0,1.3-0.2,1.6-0.7c0.3-0.5,0.5-1.2,0.5-2.1
		c0-1-0.2-1.7-0.5-2.1c-0.3-0.4-0.9-0.7-1.6-0.7C50.8,25.3,50.3,25.5,49.9,25.9z"/>
	<path class="st0" d="M58,32.1V21.3c0-0.1,0-0.3,0.1-0.4c0.1-0.1,0.2-0.1,0.4-0.1h1.9c0.1,0,0.3,0,0.4,0.1c0.1,0.1,0.1,0.2,0.1,0.4
		v10.8c0,0.1,0,0.3-0.1,0.4c-0.1,0.1-0.2,0.1-0.4,0.1h-1.9c-0.1,0-0.3,0-0.4-0.1C58.1,32.4,58,32.3,58,32.1z"/>
	<path class="st0" d="M63.6,31.6c-0.8-0.8-1.3-2-1.3-3.5c0-1.5,0.4-2.7,1.3-3.5c0.9-0.8,2-1.2,3.6-1.2s2.7,0.4,3.5,1.2
		c0.8,0.8,1.3,1.9,1.3,3.4v0.5c0,0.1,0,0.3-0.1,0.4c-0.1,0.1-0.2,0.1-0.4,0.1h-6.2c0.1,0.7,0.2,1.2,0.6,1.5c0.3,0.3,0.9,0.5,1.6,0.5
		c0.7,0,1.2-0.2,1.5-0.5c0.3-0.3,0.6-0.5,1-0.5h1.2c0.1,0,0.3,0,0.4,0.1s0.1,0.2,0.1,0.4c0,1.6-1.5,2.4-4.5,2.4
		C65.7,32.8,64.5,32.4,63.6,31.6z M65.2,27.2h3.8c-0.1-1.3-0.7-2-1.9-2S65.3,25.9,65.2,27.2z"/>
</g>
</svg>
