<?xml version="1.0" encoding="utf-8"?>
<!-- Generator: Adobe Illustrator 22.0.0, SVG Export Plug-In . SVG Version: 6.00 Build 0)  -->
<svg version="1.1" id="Layer_1" xmlns="http://www.w3.org/2000/svg" xmlns:xlink="http://www.w3.org/1999/xlink" x="0px" y="0px"
	 viewBox="0 0 40 40" style="enable-background:new 0 0 40 40;" xml:space="preserve">
<style type="text/css">
	.st0{fill:#EFB834;}
	.st1{fill:#A4AFB1;}
	.st2{fill:#2C3E50;}
</style>
<g>
	<path class="st0" d="M30.7,25.3c-1-0.7-2.2-1.2-3.6,0.2c0.1,0.1,0.2,0.2,0.3,0.3c0.6,0.7,1.2,1.5,0.8,2.5c-1.2,0.3-2-0.3-2.9-1.1
		l0.1-0.1l0,0c0,0-1.2,1.1-0.7,2.9c0.5,1.9,2.8,2.2,2.8,2.2s-0.3-1.6,0-2c1.1,2.1,3.6,2.9,5.7,1.5C31.6,30.4,32.4,26.7,30.7,25.3z"
		/>
	<polygon class="st1" points="13.3,10.9 10.9,13.2 19.4,38 23.1,34.3 21.4,29.3 21.5,29.3 19.8,24.7 19.8,24.7 17.2,17.2 24.8,19.7 
		21.1,23.4 22.8,27.9 29.4,21.4 34.4,23.1 38,19.5 	"/>
	<g>
		<path class="st2" d="M33.6,16.1C32.7,8.1,25.9,2,17.8,2C9.1,2,2,9.1,2,17.8c0,8.2,6.1,14.8,14.1,15.8l-1.7-5.1
			C9.8,27,6.6,22.8,6.6,17.8c0-6.2,5.1-11.2,11.2-11.2c5,0,9.2,3.3,10.7,7.8L33.6,16.1z"/>
	</g>
</g>
</svg>
