<?xml version="1.0" encoding="utf-8"?>
<!-- Generator: Adobe Illustrator 22.0.0, SVG Export Plug-In . SVG Version: 6.00 Build 0)  -->
<svg version="1.1" id="Layer_1" xmlns="http://www.w3.org/2000/svg" xmlns:xlink="http://www.w3.org/1999/xlink" x="0px" y="0px"
	 viewBox="0 0 40 40" style="enable-background:new 0 0 40 40;" xml:space="preserve">
<style type="text/css">
	.st0{fill-rule:evenodd;clip-rule:evenodd;fill:#FFFFFF;}
</style>
<path class="st0" d="M20,9.8c1.7,0,3.1,1.1,3.5,2.7c-1.1-0.4-2.3-0.6-3.5-0.6c-1.2,0-2.4,0.2-3.5,0.6C16.9,10.9,18.3,9.8,20,9.8z
	 M17.9,6.3c-0.2,0-0.5,0.1-0.6,0.4c-0.1,0.2-0.1,0.5,0,0.7l0.8,1.4c-1.8,0.7-3,2.4-3.2,4.4c-0.8,0.4-1.5,0.9-2.2,1.5l-2.5-2.5
	c-0.3-0.3-0.7-0.3-1,0c-0.3,0.3-0.3,0.7,0,1l2.5,2.5c-1.5,1.8-2.5,4-2.6,6.5H5.7c-0.4,0-0.7,0.3-0.7,0.7c0,0.4,0.3,0.7,0.7,0.7h3.6
	c0.2,2.5,1.1,4.7,2.6,6.5l-2.5,2.5c-0.3,0.3-0.3,0.7,0,1c0.3,0.3,0.7,0.3,1,0l2.5-2.5c1.8,1.6,4.1,2.6,6.7,2.8V18.4h1v15.3
	c2.5-0.1,4.9-1.2,6.6-2.8l2.5,2.5c0.3,0.3,0.7,0.3,1,0c0.3-0.3,0.3-0.7,0-1l-2.5-2.5c1.5-1.8,2.5-4,2.6-6.5h3.6
	c0.4,0,0.7-0.3,0.7-0.7c0-0.4-0.3-0.7-0.7-0.7h-3.6c-0.2-2.5-1.1-4.7-2.6-6.5l2.5-2.5c0.3-0.3,0.3-0.7,0-1c-0.3-0.3-0.7-0.3-1,0
	l-2.5,2.5c-0.7-0.6-1.4-1.1-2.2-1.5c-0.1-2-1.4-3.7-3.2-4.4l0.8-1.4c0.1-0.2,0.1-0.5,0-0.7c-0.1-0.2-0.3-0.4-0.6-0.4
	c-0.2,0-0.5,0.1-0.6,0.3l-1.1,1.8c-0.1,0-0.3,0-0.4,0c-0.1,0-0.3,0-0.4,0l-1-1.8C18.4,6.4,18.1,6.3,17.9,6.3z"/>
</svg>
