<?xml version="1.0" encoding="utf-8"?>
<!-- Generator: Adobe Illustrator 22.0.0, SVG Export Plug-In . SVG Version: 6.00 Build 0)  -->
<svg version="1.1" id="Layer_1" xmlns="http://www.w3.org/2000/svg" xmlns:xlink="http://www.w3.org/1999/xlink" x="0px" y="0px"
	 viewBox="0 0 40 40" style="enable-background:new 0 0 40 40;" xml:space="preserve">
<style type="text/css">
	.st0{fill:#FFFFFF;}
</style>
<path class="st0" d="M28.1,10.2H13.6c-0.9,0-1.5-0.2-1.7-0.3V9.4c0.2-0.1,0.7-0.3,1.7-0.3h14.5V10.2z M24.9,17.6h-9.8v-4.5h9.8
	C24.9,13.1,24.9,17.6,24.9,17.6z M13.6,8c-1.3,0-2.7,0.4-2.7,1.3v18.8c0,1.6,0.2,2.7,1.2,3.3c0.9,0.5,2.3,0.6,4.8,0.6h12V8
	C28.9,8,13.6,8,13.6,8z"/>
</svg>
