<?xml version="1.0" encoding="utf-8"?>
<!-- Generator: Adobe Illustrator 22.0.0, SVG Export Plug-In . SVG Version: 6.00 Build 0)  -->
<svg version="1.1" id="Layer_1" xmlns="http://www.w3.org/2000/svg" xmlns:xlink="http://www.w3.org/1999/xlink" x="0px" y="0px"
	 viewBox="0 0 25 20" style="enable-background:new 0 0 25 20;" xml:space="preserve">
<style type="text/css">
	.st0{fill:#717273;}
</style>
<g>
	<g>
		<path class="st0" d="M17.9,16.8c-2.3,0-4.4-1.1-5.7-3l-0.1-0.1l0.1-0.1c0.7-1,1-2.2,1-3.5s-0.4-2.4-1-3.5l-0.1-0.1l0.1-0.1
			c1.3-1.9,3.4-3,5.7-3c3.7,0,6.8,3,6.8,6.8C24.7,13.7,21.7,16.8,17.9,16.8z M12.8,13.6c1.2,1.7,3.1,2.7,5.1,2.7
			c3.5,0,6.3-2.8,6.3-6.3c0-3.5-2.8-6.3-6.3-6.3c-2.1,0-4,1-5.1,2.7c0.7,1.1,1,2.3,1,3.6C13.8,11.3,13.5,12.5,12.8,13.6z"/>
		<path class="st0" d="M7.1,16.8c-3.7,0-6.8-3-6.8-6.8c0-3.7,3-6.8,6.8-6.8c2.3,0,4.4,1.1,5.7,3l0.1,0.1l-0.1,0.1
			c-0.7,1-1,2.2-1,3.5s0.4,2.4,1,3.5l0.1,0.1l-0.1,0.1C11.4,15.6,9.3,16.8,7.1,16.8z M7.1,3.7c-3.5,0-6.3,2.8-6.3,6.3
			c0,3.5,2.8,6.3,6.3,6.3c2.1,0,4-1,5.1-2.7c-0.7-1.1-1-2.3-1-3.6c0-1.3,0.4-2.5,1-3.6C11,4.7,9.1,3.7,7.1,3.7z"/>
	</g>
	<path class="st0" d="M18.4,11.7L20,10l-1.7-1.7l0.7-0.7l2.4,2.4l-2.4,2.4L18.4,11.7z M16.7,10L18,8.7l1.3,1.3L18,11.3L16.7,10z
		 M17,12.4L14.6,10L17,7.6l0.7,0.7L16.1,10l1.7,1.7L17,12.4z M19.1,7l-1,1l-1-1l-3,3l3,3l1-1l1,1l3-3L19.1,7z"/>
	<g>
		<path class="st0" d="M11,8.8c-0.1-0.2-0.4-0.2-0.6-0.2c-0.9,0.2-2-0.1-2.3-0.3c0,0,0-0.2,0-0.2c0.1,0,0.1-0.1,0.2,0
			c0.1,0.1,0.3,0,0.5,0C8.6,7.9,8.5,7.6,8.4,7.4C8.3,7.5,8.1,7.6,8,7.7C7.7,7,7,6.9,6.3,7.3c0,0,0,0,0,0S6.1,6.9,6,6.8
			C5.8,6.9,5.6,7.1,5.5,7.1c-0.2,0-0.4,0-0.5,0c0,0.3,0.1,0.6,0.1,0.9C4.8,8.2,4.6,8.5,4.4,8.8c-0.2,0-0.4-0.1-0.6,0
			C3.7,8.8,3.6,9,3.6,9.1c0,0.1,0.1,0.2,0.4,0.3c-0.5,0.4-0.7,1.3-0.3,1.7c-0.1,0.1-0.2,0.2-0.3,0.3c0,0.2,0.1,0.2,0.2,0.3
			c0.2,0,0.4-0.1,0.6-0.2c0.4,0.2,0.6,0.2,1,0.2c0,0,0.1,0.1,0.1,0.1s-0.3,0-0.4,0c-0.2,0.1-0.4,0.2-0.2,0.4
			c0.2,0.2,0.6,0.3,0.9,0.2c0.2,0.2,0.1,0.6-0.2,0.8c0.3,0,0.7-0.2,0.7-0.7c0-0.1,0-0.2-0.1-0.3c0,0-0.1-0.1-0.1-0.1
			s0.2-0.3-0.2-0.5c0.1,0,0.4-0.1,0.4-0.1s0.1,0.1,0.2,0.1c0.1,0,0.2,0,0.3-0.1c0.1-0.2-0.1-0.3-0.1-0.3L6.7,11c0,0,0.1,0.1,0.2,0.2
			c0.2,0.3,0.2,0.6,0.4,0.9c0.1,0.1,0.2,0.3,0.4,0.3c0.1,0,0.3,0.1,0.4,0c0.2,0,0.4-0.1,0.6-0.2c0.9-0.6,1.6-1.3,2.2-2.3
			C10.9,9.7,11.2,9.1,11,8.8z"/>
	</g>
</g>
</svg>
