<?xml version="1.0" encoding="utf-8"?>
<!-- Generator: Adobe Illustrator 22.0.0, SVG Export Plug-In . SVG Version: 6.00 Build 0)  -->
<svg version="1.1" id="Layer_1" xmlns="http://www.w3.org/2000/svg" xmlns:xlink="http://www.w3.org/1999/xlink" x="0px" y="0px"
	 viewBox="0 0 40 40" style="enable-background:new 0 0 40 40;" xml:space="preserve">
<style type="text/css">
	.st0{fill:#FFFFFF;}
</style>
<path class="st0" d="M20,17.7h-4.6V14c0-2.5,2-4.6,4.6-4.6s4.6,2,4.6,4.6v3.7H20z M21.6,28.5h-3.2l0.6-2.7c-0.5-0.3-0.9-1-0.9-1.6
	c0-1,0.9-1.9,1.9-1.9s1.9,0.9,1.9,1.9c0,0.7-0.3,1.3-0.9,1.6L21.6,28.5z M28.1,17.7h-1V14c0-3.8-3.2-7-7.1-7s-7.1,3.2-7.1,7.1v3.7
	h-1c-0.8,0-1.5,0.7-1.5,1.5v12.2c0,0.8,0.7,1.5,1.5,1.5h16.3c0.8,0,1.5-0.7,1.5-1.5V19.3C29.6,18.4,28.9,17.7,28.1,17.7z"/>
</svg>
