<?xml version="1.0" encoding="utf-8"?>
<!-- Generator: Adobe Illustrator 22.0.0, SVG Export Plug-In . SVG Version: 6.00 Build 0)  -->
<svg version="1.1" id="Layer_1" xmlns="http://www.w3.org/2000/svg" xmlns:xlink="http://www.w3.org/1999/xlink" x="0px" y="0px"
	 viewBox="0 0 40 40" style="enable-background:new 0 0 40 40;" xml:space="preserve">
<style type="text/css">
	.st0{fill:#FFFFFF;}
</style>
<path class="st0" d="M32.5,32.5v-2.6c0-1.3-0.8-2.4-2-2.7c-0.1,0-5.9-1.5-6.8-3.2c-0.4-0.8,0-1.7,0.4-2.4c0.2-0.2,0.3-0.5,0.5-0.7
	c0,0,0,0,0,0c1-1.6,1.7-3.7,1.8-6.3c0.1-3.9-2.9-7-6.5-7c0,0,0,0,0,0c0,0,0,0,0,0c-3.6,0-6.6,3.2-6.5,7c0.1,2.6,0.8,4.7,1.8,6.3
	c0,0,0,0,0,0c0.2,0.3,0.3,0.5,0.5,0.7c0.4,0.7,0.8,1.6,0.4,2.4c-0.8,1.7-6.7,3.2-6.8,3.2c-1.1,0.4-2,1.5-2,2.7v2.6L32.5,32.5z"/>
</svg>
