<?xml version="1.0" encoding="utf-8"?>
<!-- Generator: Adobe Illustrator 22.0.0, SVG Export Plug-In . SVG Version: 6.00 Build 0)  -->
<svg version="1.1" id="Layer_1" xmlns="http://www.w3.org/2000/svg" xmlns:xlink="http://www.w3.org/1999/xlink" x="0px" y="0px"
	 viewBox="0 0 40 40" style="enable-background:new 0 0 40 40;" xml:space="preserve">
<style type="text/css">
	.st0{fill:#FFFFFF;}
</style>
<g>
	<path id="Wikipedia_22_" class="st0" d="M35,9.6c0,0-4.7,0-6.2,0l-0.4,0.1v0.6c0,0.1,0.2,0.1,0.3,0.2c0.1,0,0.2,0.1,0.3,0.1l0.6,0
		c0.6,0,0.8,0.2,1.1,0.4c0.2,0.2,0.3,0.7,0.1,1.2l-5.5,14.3l-0.2-0.1l-3.5-7.8c0.1-0.1,0.1-0.2,0.1-0.2l2.9-5.9
		c0.3-0.6,0.7-1.2,0.8-1.4c0.3-0.5,0.4-0.6,1.3-0.6c0.2,0,0.2-0.1,0.2-0.2V9.6l0-0.1c0,0-3.4,0-5,0l0,0.1v0.6c0,0.1,0,0.1,0,0.2
		c0.1,0,0.1,0.1,0.1,0.1l0.2,0c0.6,0,0.9,0.2,1,0.3c0.2,0.2,0.2,0.4-0.1,1.3l-2.2,4.8l-2-4.5c-0.7-1.4-0.8-1.9,0.2-1.9l0.3-0.1
		c0.2,0,0.2-0.1,0.2-0.2V9.6l0-0.1c0,0-3.6,0-5.3,0l0,0.1v0.6c0,0.1,0.1,0.2,0.4,0.2c0.9,0.1,0.9,0.2,1.8,2.2
		c0.1,0.3,0.5,1.2,0.5,1.2l2.1,4.5c0,0,0.2,0.6,0.6,1.5l-3,6.6l-0.2,0c0,0-4.7-10.8-6-14.4c-0.1-0.4-0.2-0.7-0.2-0.8
		c0-0.4,0.3-0.6,0.9-0.6l0.9,0c0.2,0,0.5-0.1,0.5-0.2V9.7l-0.3-0.1c0,0-5.7,0-6.9,0L5,9.7v0.6c0,0.1,0.1,0.2,0.4,0.2
		c0.7,0,1.2,0.2,1.4,0.4c0.2,0.2,0.5,0.7,0.8,1.6c1.7,4.5,5.3,12.5,7.1,17c0.5,1.2,1.1,1.4,1.9,0c0.8-1.6,2.4-5.2,3.6-7.9
		c1.1,2.6,2.6,6.2,3.3,7.8c0.6,1.3,1.2,1.4,1.9,0c1.7-4.2,6.8-16.9,6.8-16.9c0.2-0.6,0.5-1.1,0.9-1.5c0.4-0.3,1-0.5,1.8-0.6
		c0.2,0,0.2-0.1,0.2-0.2L35,9.6L35,9.6z"/>
</g>
</svg>
