<svg id="Layer_1" data-name="Layer 1" xmlns="http://www.w3.org/2000/svg" viewBox="0 0 513.08 175.6"><defs><style>.cls-1{fill:#f0ba35;}.cls-2{fill:#a5b0b2;}.cls-3{fill:#2d3f50;}.cls-4{fill:#231f20;}</style></defs><title>analyst console logo</title><path class="cls-1" d="M135.19,110.21c-4-3-9.36-4.79-15.32.88.44.43.82.85,1.19,1.25,2.93,3.22,4.88,6.55,3.66,10.94-5,1.38-8.67-1.18-12.29-4.74l.28-.28h0a12.75,12.75,0,0,0-3.09,12.18c2.21,8.27,11.8,9.7,11.8,9.7s-1.54-6.73.11-8.82c4.63,8.93,15.33,12.24,24.48,6.51C139,131.82,142.25,115.89,135.19,110.21Z"/><polygon class="cls-2" points="60.15 48.25 50.1 58.3 86.49 164.93 102.42 148.99 95.07 127.56 95.2 127.44 88.18 107.26 88.13 107.32 77.23 75.56 109.35 86.17 93.67 101.79 100.99 121.66 129.6 93.13 150.86 100.64 166.53 84.98 60.15 48.25"/><path class="cls-3" d="M147.1,70.6a68,68,0,1,0-75,74.92L64.93,124a48.29,48.29,0,1,1,60.54-60.78Z"/><path class="cls-4" d="M181,73.12l9.44-35.79q3.83-14.62,25-14.66h20.26A3,3,0,0,1,238,23.72a3.6,3.6,0,0,1,.92,2.44v47a3.26,3.26,0,0,1-1.05,2.46,3.54,3.54,0,0,1-2.52,1H228.3A3.41,3.41,0,0,1,224.77,73V63.57H198L195.52,73a4.42,4.42,0,0,1-1.69,2.54,4.54,4.54,0,0,1-2.78,1h-7.41a2.52,2.52,0,0,1-2.73-2.33A5.83,5.83,0,0,1,181,73.12Zm19.77-20.19h23.95V33.3H214.06a10,10,0,0,0-9.92,7.56Z"/><path class="cls-4" d="M247.18,74.28V37.7a2.26,2.26,0,0,1,.66-1.67,2.22,2.22,0,0,1,1.64-.66h8.42a2.22,2.22,0,0,1,1.64.66,2.27,2.27,0,0,1,.66,1.67v2.37q6.47-5.45,13.78-5.45a16.36,16.36,0,0,1,11.9,4.46q4.59,4.45,4.59,13.63V74.28a2.22,2.22,0,0,1-.66,1.63,2.26,2.26,0,0,1-1.67.66h-8.38a2.25,2.25,0,0,1-2.29-2.29V52.7q0-9-7.18-9-4.7,0-10.08,5.38V74.28a2.25,2.25,0,0,1-2.29,2.29h-8.42a2.25,2.25,0,0,1-2.29-2.29Z"/><path class="cls-4" d="M300.39,73.87a11.21,11.21,0,0,1-5-9.77,11,11,0,0,1,5-9.7q5-3.38,12.84-3.38h12.44q0-4.4-1.84-6.13t-6.45-1.73q-4.61,0-6.47,2.27a5.69,5.69,0,0,1-4.57,2.27h-5.6a2.26,2.26,0,0,1-1.67-.66,2.22,2.22,0,0,1-.66-1.63q0-10.79,20.49-10.79,8.95,0,14.36,4T338.68,51V74.28a2.19,2.19,0,0,1-2.29,2.29h-7.26a2.2,2.2,0,0,1-1.65-.66,2.25,2.25,0,0,1-.64-1.63V73.12a22.85,22.85,0,0,1-13.7,4.23Q305.38,77.33,300.39,73.87Zm9.59-13a4.12,4.12,0,0,0-1.52,3.31A4.17,4.17,0,0,0,310,67.48a6.8,6.8,0,0,0,4.47,1.32,20.67,20.67,0,0,0,11.17-3.38V59.55H314.14A6.26,6.26,0,0,0,310,60.82Z"/><path class="cls-4" d="M346.18,74.28V25a2.26,2.26,0,0,1,.66-1.67,2.22,2.22,0,0,1,1.64-.66h8.42a2.22,2.22,0,0,1,1.64.66,2.27,2.27,0,0,1,.66,1.67V74.28a2.25,2.25,0,0,1-2.29,2.29h-8.42a2.25,2.25,0,0,1-2.29-2.29Z"/><path class="cls-4" d="M374.54,80.49l4.92.64q5.3,0,7.41-7.78a15.37,15.37,0,0,1-10.68-3.85q-4.29-3.85-7.37-13.7l-5.6-18.16a2,2,0,0,1-.11-.7,1.64,1.64,0,0,1,.47-1,1.83,1.83,0,0,1,1.41-.6h7.86a3.47,3.47,0,0,1,2.09.73,3.33,3.33,0,0,1,1.3,1.82l4.92,15.94Q383,59.73,384.9,62a5.71,5.71,0,0,0,4.49,2.26l7.48-26.32a3.55,3.55,0,0,1,1.18-1.82,3,3,0,0,1,2-.73H408a1.63,1.63,0,0,1,1.39.6,1.83,1.83,0,0,1,.45,1,2.45,2.45,0,0,1-.08.66l-9.85,35.11q-2.63,9.32-6.52,13.31a13.39,13.39,0,0,1-10,4,56.68,56.68,0,0,1-8.67-.45,6.56,6.56,0,0,1-3.18-1.11,2.12,2.12,0,0,1-.64-1.52V82.82a2.3,2.3,0,0,1,.64-1.67,2.2,2.2,0,0,1,1.65-.66Z"/><path class="cls-4" d="M411.51,46.76q0-12.14,19.59-12.14,20.6,0,20.6,10.79a2.25,2.25,0,0,1-.64,1.63,2.2,2.2,0,0,1-1.65.66h-5.6a5.64,5.64,0,0,1-4.55-2.27q-1.84-2.27-7.26-2.27-7.44,0-7.44,3.61,0,1.69,2.91,2.82a44,44,0,0,0,7.11,2,81.43,81.43,0,0,1,8.36,2.16A17.33,17.33,0,0,1,450,57.91a9.79,9.79,0,0,1,2.91,7.27q0,12.14-20.68,12.14T411.58,66.58a2.25,2.25,0,0,1,2.33-2.33h5.6a5.64,5.64,0,0,1,4.55,2.27q1.84,2.27,7.26,2.27,8.61,0,8.61-3.61,0-1.69-2.91-2.82a46.51,46.51,0,0,0-7.12-2q-4.21-.88-8.37-2.18A17.21,17.21,0,0,1,414.44,54,9.73,9.73,0,0,1,411.51,46.76Z"/><path class="cls-4" d="M477.64,68.42l5.15-.45h1.39a2.3,2.3,0,0,1,1.67.64,2.2,2.2,0,0,1,.66,1.65v4a2,2,0,0,1-.66,1.48,2.88,2.88,0,0,1-1.67.81,53.84,53.84,0,0,1-10,.75Q458,77.33,458,60.41V25a2.26,2.26,0,0,1,.66-1.67,2.22,2.22,0,0,1,1.63-.66h8.42a2.22,2.22,0,0,1,1.63.66A2.27,2.27,0,0,1,471,25V37.55h10.49a2.25,2.25,0,0,1,1.63.64,2.21,2.21,0,0,1,.66,1.65v4.47a2.2,2.2,0,0,1-.66,1.65,2.25,2.25,0,0,1-1.63.64H471v13.8a8.78,8.78,0,0,0,1.8,5.92A6,6,0,0,0,477.64,68.42Z"/><path class="cls-4" d="M189.38,131.82q-7-6.65-7-20.58t7-20.6q7-6.67,20.92-6.67h8.38a26.31,26.31,0,0,1,15.09,4.44,13.91,13.91,0,0,1,6.56,12.14,3.67,3.67,0,0,1-1.32,3.18,4.36,4.36,0,0,1-2.56,1H232q-3.46,0-5.38-4.14a9.52,9.52,0,0,0-9.25-5.94h-6.69q-8.23,0-11.17,3.53t-2.93,13.08q0,9.55,2.93,13.1t11.17,3.55h7.48a9.44,9.44,0,0,0,9.21-5.94q1.92-4.17,5.41-4.17h4.47a3.37,3.37,0,0,1,2.8,1.32,4.53,4.53,0,0,1,1,2.86,13.88,13.88,0,0,1-6.54,12.13,26.3,26.3,0,0,1-15.08,4.42H210.3Q196.35,138.47,189.38,131.82Z"/><path class="cls-4" d="M250.1,133.51q-5.87-5.41-5.86-16t5.86-15.94Q256,96.22,267,96.22t16.86,5.39q5.86,5.4,5.86,15.94t-5.86,16Q278,138.92,267,138.92T250.1,133.51Zm9.51-25.71q-2.33,3-2.33,9.74t2.33,9.77q2.33,3.08,7.35,3.08t7.37-3.08q2.35-3.08,2.35-9.77t-2.35-9.74q-2.35-3-7.37-3T259.61,107.79Z"/><path class="cls-4" d="M295.23,135.88V99.3a2.26,2.26,0,0,1,.66-1.67,2.22,2.22,0,0,1,1.64-.66h8.42a2.22,2.22,0,0,1,1.64.66,2.27,2.27,0,0,1,.66,1.67v2.37q6.47-5.45,13.78-5.45a16.36,16.36,0,0,1,11.9,4.46q4.59,4.45,4.59,13.63v21.58a2.22,2.22,0,0,1-.66,1.63,2.26,2.26,0,0,1-1.67.66h-8.38a2.25,2.25,0,0,1-2.29-2.29V114.3q0-9-7.18-9-4.7,0-10.08,5.38v25.19a2.25,2.25,0,0,1-2.29,2.29h-8.42a2.25,2.25,0,0,1-2.29-2.29Z"/><path class="cls-4" d="M343.78,108.36q0-12.14,19.59-12.14Q384,96.22,384,107a2.25,2.25,0,0,1-.64,1.63,2.2,2.2,0,0,1-1.65.66h-5.6a5.64,5.64,0,0,1-4.55-2.27q-1.84-2.27-7.26-2.27-7.44,0-7.44,3.61,0,1.69,2.91,2.82a44,44,0,0,0,7.11,2,81.44,81.44,0,0,1,8.36,2.16,17.33,17.33,0,0,1,7.09,4.19,9.79,9.79,0,0,1,2.91,7.27q0,12.14-20.68,12.14t-20.68-10.75a2.25,2.25,0,0,1,2.33-2.33h5.6a5.64,5.64,0,0,1,4.55,2.27q1.84,2.27,7.26,2.27,8.61,0,8.61-3.61,0-1.69-2.91-2.82a46.52,46.52,0,0,0-7.12-2q-4.21-.88-8.37-2.18a17.22,17.22,0,0,1-7.09-4.19A9.73,9.73,0,0,1,343.78,108.36Z"/><path class="cls-4" d="M394.08,133.51q-5.87-5.41-5.86-16t5.86-15.94q5.87-5.39,16.86-5.39t16.86,5.39q5.86,5.4,5.86,15.94t-5.86,16q-5.87,5.41-16.86,5.41T394.08,133.51Zm9.51-25.71q-2.33,3-2.33,9.74t2.33,9.77q2.33,3.08,7.35,3.08t7.37-3.08q2.35-3.08,2.35-9.77t-2.35-9.74q-2.35-3-7.37-3T403.59,107.79Z"/><path class="cls-4" d="M439.21,135.88V86.59a2.27,2.27,0,0,1,.66-1.67,2.22,2.22,0,0,1,1.64-.66h8.42a2.22,2.22,0,0,1,1.63.66,2.26,2.26,0,0,1,.66,1.67v49.29a2.25,2.25,0,0,1-2.29,2.29H441.5a2.25,2.25,0,0,1-2.29-2.29Z"/><path class="cls-4" d="M463.58,133.43q-5.79-5.49-5.79-15.81t5.83-15.87q5.83-5.54,16.17-5.54t16.13,5.39q5.79,5.4,5.79,15.47v2.14a2.25,2.25,0,0,1-2.33,2.33H471.07q.38,4.62,2.65,6.73t7.27,2.11q5,0,6.84-2.26a5.77,5.77,0,0,1,4.55-2.29H498a2.25,2.25,0,0,1,2.33,2.33q0,10.79-20.56,10.75Q469.37,138.92,463.58,133.43ZM471,113.62h17.48q-.38-8.87-8.7-8.87T471,113.62Z"/></svg>