<svg id="Layer_1" data-name="Layer 1" xmlns="http://www.w3.org/2000/svg" viewBox="0 0 513.08 175.6"><defs><style>.cls-1{fill:#ffc533;}.cls-2{fill:#bfe6ed;}.cls-3{fill:#679ed1;}.cls-4{fill:#fff;}</style></defs><title>analyst console logo reverse</title><path class="cls-1" d="M135.19,110.21c-4-3-9.36-4.79-15.32.89.44.43.83.84,1.19,1.25,2.93,3.21,4.88,6.54,3.66,10.93-5,1.38-8.67-1.17-12.29-4.74l.27-.28h0a12.75,12.75,0,0,0-3.09,12.18c2.21,8.27,11.8,9.71,11.8,9.71s-1.54-6.73.11-8.82c4.63,8.93,15.33,12.23,24.48,6.5C139,131.82,142.25,115.89,135.19,110.21Z"/><polygon class="cls-2" points="60.15 48.25 50.1 58.3 86.49 164.93 102.42 148.99 95.07 127.56 95.2 127.44 88.18 107.26 88.13 107.32 77.23 75.56 109.35 86.17 93.67 101.79 100.99 121.66 129.6 93.13 150.86 100.64 166.53 84.98 60.15 48.25"/><path class="cls-3" d="M147.1,70.6a68,68,0,1,0-75,74.92L64.93,124a48.29,48.29,0,1,1,60.54-60.78Z"/><path class="cls-4" d="M181.05,73.12l9.43-35.79q3.84-14.62,25-14.66h20.26a2.93,2.93,0,0,1,2.31,1,3.55,3.55,0,0,1,.92,2.44v47a3.26,3.26,0,0,1-1.05,2.46,3.55,3.55,0,0,1-2.52,1H228.3A3.42,3.42,0,0,1,224.77,73V63.57H198L195.52,73a4.39,4.39,0,0,1-1.69,2.54,4.56,4.56,0,0,1-2.78,1h-7.41a2.46,2.46,0,0,1-2.1-.85,2.4,2.4,0,0,1-.62-1.48A5.24,5.24,0,0,1,181.05,73.12Zm19.77-20.19h24V33.3H214.06a10,10,0,0,0-9.93,7.56Z"/><path class="cls-4" d="M247.18,74.28V37.7a2.27,2.27,0,0,1,.66-1.67,2.21,2.21,0,0,1,1.63-.66h8.42a2.22,2.22,0,0,1,1.64.66,2.27,2.27,0,0,1,.66,1.67v2.37q6.46-5.44,13.78-5.45a16.38,16.38,0,0,1,11.9,4.46q4.58,4.44,4.58,13.62V74.28a2.26,2.26,0,0,1-2.33,2.3h-8.38a2.25,2.25,0,0,1-2.3-2.3V52.7q0-9-7.18-9-4.69,0-10.07,5.37V74.28a2.25,2.25,0,0,1-2.3,2.3h-8.42a2.21,2.21,0,0,1-1.63-.66A2.23,2.23,0,0,1,247.18,74.28Z"/><path class="cls-4" d="M300.39,73.87a11.21,11.21,0,0,1-5-9.78,11,11,0,0,1,5-9.69C303.72,52.14,308,51,313.23,51h12.45q0-4.4-1.85-6.13t-6.44-1.73q-4.61,0-6.47,2.28a5.67,5.67,0,0,1-4.57,2.27h-5.6a2.27,2.27,0,0,1-1.67-.66,2.19,2.19,0,0,1-.66-1.63q0-10.78,20.49-10.79,8.94,0,14.36,4T338.68,51V74.28a2.18,2.18,0,0,1-2.29,2.3h-7.25a2.21,2.21,0,0,1-1.66-.66,2.3,2.3,0,0,1-.64-1.64V73.12a22.89,22.89,0,0,1-13.7,4.23C308,77.33,303.72,76.18,300.39,73.87ZM310,60.82a4.35,4.35,0,0,0,.06,6.66,6.77,6.77,0,0,0,4.47,1.31,20.66,20.66,0,0,0,11.17-3.38V59.55H314.14A6.29,6.29,0,0,0,310,60.82Z"/><path class="cls-4" d="M346.18,74.28V25a2.28,2.28,0,0,1,.66-1.68,2.19,2.19,0,0,1,1.63-.65h8.42a2.22,2.22,0,0,1,1.64.65,2.28,2.28,0,0,1,.66,1.68V74.28a2.25,2.25,0,0,1-2.3,2.3h-8.42a2.19,2.19,0,0,1-1.63-.66A2.23,2.23,0,0,1,346.18,74.28Z"/><path class="cls-4" d="M374.54,80.49l4.92.64q5.31,0,7.41-7.79a15.38,15.38,0,0,1-10.68-3.85q-4.28-3.85-7.36-13.7l-5.61-18.16a2.1,2.1,0,0,1-.11-.7,1.68,1.68,0,0,1,.47-1,1.86,1.86,0,0,1,1.41-.6h7.86a3.46,3.46,0,0,1,2.08.74,3.26,3.26,0,0,1,1.3,1.82l4.93,15.94Q383,59.74,384.9,62a5.71,5.71,0,0,0,4.49,2.26l7.48-26.32a3.53,3.53,0,0,1,1.18-1.82,3,3,0,0,1,2-.74H408a1.62,1.62,0,0,1,1.39.6,1.87,1.87,0,0,1,.45,1,2.52,2.52,0,0,1-.07.66l-9.85,35.11q-2.64,9.33-6.52,13.31a13.4,13.4,0,0,1-10,4,56.48,56.48,0,0,1-8.67-.46,6.58,6.58,0,0,1-3.18-1.11,2.12,2.12,0,0,1-.64-1.52V82.82a2.34,2.34,0,0,1,.64-1.68,2.25,2.25,0,0,1,1.66-.65Z"/><path class="cls-4" d="M411.51,46.76q0-12.13,19.59-12.14,20.59,0,20.6,10.79a2.26,2.26,0,0,1-.64,1.63,2.21,2.21,0,0,1-1.66.66h-5.6a5.64,5.64,0,0,1-4.55-2.27q-1.83-2.28-7.25-2.28c-5,0-7.45,1.21-7.45,3.61,0,1.13,1,2.07,2.92,2.82a44.88,44.88,0,0,0,7.1,2,79.17,79.17,0,0,1,8.37,2.16A17.3,17.3,0,0,1,450,57.91a9.77,9.77,0,0,1,2.92,7.27q0,12.15-20.68,12.15T411.58,66.58a2.24,2.24,0,0,1,2.34-2.33h5.6a5.64,5.64,0,0,1,4.55,2.27c1.22,1.52,3.64,2.27,7.25,2.27q8.61,0,8.61-3.61c0-1.12-1-2.06-2.91-2.81a45.78,45.78,0,0,0-7.13-2,85.64,85.64,0,0,1-8.36-2.18A17.2,17.2,0,0,1,414.44,54,9.74,9.74,0,0,1,411.51,46.76Z"/><path class="cls-4" d="M477.64,68.42l5.15-.45h1.39a2.26,2.26,0,0,1,1.67.64,2.18,2.18,0,0,1,.66,1.65v4a2.06,2.06,0,0,1-.66,1.49,2.84,2.84,0,0,1-1.67.81,54,54,0,0,1-10,.75Q458,77.33,458,60.41V25a2.28,2.28,0,0,1,.66-1.68,2.22,2.22,0,0,1,1.64-.65h8.42a2.19,2.19,0,0,1,1.63.65A2.28,2.28,0,0,1,471,25V37.55h10.49a2.3,2.3,0,0,1,1.64.64,2.25,2.25,0,0,1,.65,1.66v4.47a2.21,2.21,0,0,1-.65,1.65,2.25,2.25,0,0,1-1.64.64H471v13.8a8.73,8.73,0,0,0,1.81,5.92A6,6,0,0,0,477.64,68.42Z"/><path class="cls-4" d="M189.38,131.82q-7-6.66-7-20.58t7-20.61q7-6.67,20.92-6.67h8.38a26.27,26.27,0,0,1,15.09,4.44,13.88,13.88,0,0,1,6.56,12.14,3.66,3.66,0,0,1-1.31,3.18,4.35,4.35,0,0,1-2.56,1H232c-2.31,0-4.1-1.37-5.38-4.13a9.52,9.52,0,0,0-9.25-5.94h-6.69q-8.23,0-11.16,3.53t-2.94,13.09q0,9.54,2.94,13.1t11.16,3.55h7.48a9.45,9.45,0,0,0,9.21-5.94q1.92-4.17,5.42-4.17h4.47a3.38,3.38,0,0,1,2.8,1.31,4.54,4.54,0,0,1,1,2.86,13.88,13.88,0,0,1-6.55,12.13,26.31,26.31,0,0,1-15.07,4.41H210.3Q196.35,138.47,189.38,131.82Z"/><path class="cls-4" d="M250.1,133.51q-5.86-5.41-5.87-16t5.87-15.94Q256,96.21,267,96.22t16.86,5.39q5.87,5.4,5.87,15.94t-5.87,16Q278,138.93,267,138.92T250.1,133.51Zm9.51-25.72q-2.33,3.06-2.33,9.74t2.33,9.78q2.33,3.08,7.35,3.08c3.35,0,5.8-1,7.37-3.08s2.35-5.32,2.35-9.78-.79-7.7-2.35-9.74-4-3-7.37-3S261.16,105.76,259.61,107.79Z"/><path class="cls-4" d="M295.23,135.88V99.3A2.24,2.24,0,0,1,297.52,97h8.42a2.23,2.23,0,0,1,1.64.66,2.27,2.27,0,0,1,.65,1.67v2.37q6.47-5.46,13.78-5.45a16.35,16.35,0,0,1,11.9,4.45q4.59,4.45,4.59,13.63v21.58a2.19,2.19,0,0,1-.66,1.63,2.27,2.27,0,0,1-1.67.66h-8.39a2.25,2.25,0,0,1-2.29-2.29V114.3q0-9-7.18-9c-3.14,0-6.49,1.8-10.08,5.38v25.19a2.24,2.24,0,0,1-2.29,2.29h-8.42a2.23,2.23,0,0,1-1.64-.66A2.19,2.19,0,0,1,295.23,135.88Z"/><path class="cls-4" d="M343.78,108.36q0-12.15,19.59-12.14Q384,96.22,384,107a2.23,2.23,0,0,1-.64,1.63,2.19,2.19,0,0,1-1.65.66h-5.6a5.62,5.62,0,0,1-4.55-2.28q-1.84-2.26-7.26-2.27-7.44,0-7.44,3.61,0,1.69,2.91,2.82a43.76,43.76,0,0,0,7.11,2,84.88,84.88,0,0,1,8.36,2.16,17.42,17.42,0,0,1,7.09,4.2,9.78,9.78,0,0,1,2.91,7.27q0,12.15-20.68,12.14t-20.67-10.75a2.27,2.27,0,0,1,.66-1.67,2.24,2.24,0,0,1,1.67-.66h5.6a5.65,5.65,0,0,1,4.55,2.28q1.85,2.26,7.25,2.27,8.61,0,8.61-3.61,0-1.69-2.91-2.82a46.84,46.84,0,0,0-7.12-2q-4.21-.89-8.37-2.18a17.31,17.31,0,0,1-7.09-4.19A9.76,9.76,0,0,1,343.78,108.36Z"/><path class="cls-4" d="M394.08,133.51q-5.86-5.41-5.86-16t5.86-15.94q5.87-5.4,16.86-5.39t16.87,5.39q5.85,5.4,5.86,15.94t-5.86,16q-5.87,5.42-16.87,5.41T394.08,133.51Zm9.51-25.72q-2.32,3.06-2.33,9.74t2.33,9.78q2.34,3.08,7.35,3.08t7.37-3.08q2.35-3.09,2.35-9.78t-2.35-9.74q-2.34-3-7.37-3T403.59,107.79Z"/><path class="cls-4" d="M439.21,135.88V86.59a2.27,2.27,0,0,1,.66-1.67,2.21,2.21,0,0,1,1.63-.66h8.42a2.22,2.22,0,0,1,1.64.66,2.27,2.27,0,0,1,.66,1.67v49.29a2.19,2.19,0,0,1-.66,1.63,2.22,2.22,0,0,1-1.64.66H441.5a2.25,2.25,0,0,1-2.29-2.29Z"/><path class="cls-4" d="M463.58,133.43q-5.79-5.48-5.79-15.8t5.83-15.87q5.83-5.55,16.17-5.54t16.13,5.39q5.79,5.4,5.79,15.47v2.14a2.24,2.24,0,0,1-2.33,2.33H471.07q.38,4.64,2.65,6.73c1.51,1.41,3.94,2.11,7.27,2.11s5.62-.75,6.84-2.26a5.8,5.8,0,0,1,4.55-2.29H498a2.28,2.28,0,0,1,1.68.66,2.3,2.3,0,0,1,.65,1.67q0,10.8-20.56,10.75Q469.37,138.92,463.58,133.43ZM471,113.62h17.48q-.37-8.87-8.7-8.87T471,113.62Z"/></svg>