<?xml version="1.0" encoding="utf-8"?>
<!-- Generator: Adobe Illustrator 24.2.1, SVG Export Plug-In . SVG Version: 6.00 Build 0)  -->
<svg version="1.1" id="Layer_1" xmlns="http://www.w3.org/2000/svg" xmlns:xlink="http://www.w3.org/1999/xlink" x="0px" y="0px"
	 viewBox="0 0 50 50" style="enable-background:new 0 0 50 50;" xml:space="preserve">
<style type="text/css">
	.st0{fill:#4D4E4E;}
</style>
<g>
	<path class="st0" d="M25,8.9C16.1,8.9,8.9,16.1,8.9,25S16.1,41.1,25,41.1S41.1,33.9,41.1,25S33.9,8.9,25,8.9z M25,39.1
		c-7.8,0-14.1-6.3-14.1-14.1S17.2,10.9,25,10.9S39.1,17.2,39.1,25S32.8,39.1,25,39.1z"/>
	<g>
		<circle class="st0" cx="19.7" cy="20.4" r="1.4"/>
		<circle class="st0" cx="30.3" cy="20.4" r="1.4"/>
	</g>
	<path class="st0" d="M25.8,31.2c-0.7,0-1.2-0.1-1.3-0.1c-0.5-0.1-0.9-0.7-0.7-1.2c0.1-0.5,0.7-0.9,1.2-0.7c0,0,1.5,0.3,2.9-0.4
		c0.3-0.2,0.6-0.4,0.9-0.6c0.7-0.5,1.4-1.1,2.5-1.1c1.3,0,2.3,1.3,2.5,1.5c0.3,0.4,0.2,1.1-0.2,1.4c-0.4,0.3-1.1,0.2-1.4-0.2
		c-0.3-0.3-0.7-0.7-0.9-0.7c-0.4,0-0.8,0.3-1.3,0.7c-0.3,0.3-0.7,0.6-1.2,0.8C27.7,31,26.6,31.2,25.8,31.2z"/>
	<path class="st0" d="M18,18.6c-0.4,0-0.6,0-0.6,0c-0.5-0.1-0.9-0.6-0.9-1.1c0.1-0.5,0.6-0.9,1.1-0.9c0,0,2.1,0.2,3.2-1.2
		c0.3-0.4,0.9-0.5,1.4-0.2c0.4,0.3,0.5,1,0.2,1.4C21.1,18.3,19,18.6,18,18.6z"/>
	<path class="st0" d="M28.3,18.5c-0.5,0-1-0.4-1-0.9c0-0.6,0.4-1,0.9-1.1c0.4,0,0.7-0.2,1.1-0.6c0.4-0.3,1-0.8,1.7-0.9
		c0.8-0.1,1.4,0,1.9,0.4c0.5,0.4,0.8,1,0.9,1.8c0.1,0.5-0.3,1-0.9,1.1c-0.5,0.1-1-0.3-1.1-0.9c0-0.3-0.1-0.4-0.2-0.5
		c0,0-0.2-0.1-0.4,0c-0.2,0-0.4,0.2-0.8,0.5C30.1,17.9,29.4,18.5,28.3,18.5C28.3,18.5,28.3,18.5,28.3,18.5z"/>
</g>
</svg>
