<?xml version="1.0" encoding="utf-8"?>
<!-- Generator: Adobe Illustrator 24.2.1, SVG Export Plug-In . SVG Version: 6.00 Build 0)  -->
<svg version="1.1" id="Layer_1" xmlns="http://www.w3.org/2000/svg" xmlns:xlink="http://www.w3.org/1999/xlink" x="0px" y="0px"
	 viewBox="0 0 50 50" style="enable-background:new 0 0 50 50;" xml:space="preserve">
<style type="text/css">
	.st0{fill:#4D4E4E;}
</style>
<g>
	<path class="st0" d="M25,8.9C16.1,8.9,8.9,16.1,8.9,25S16.1,41.1,25,41.1S41.1,33.9,41.1,25S33.9,8.9,25,8.9z M25,39.1
		c-7.8,0-14.1-6.3-14.1-14.1S17.2,10.9,25,10.9S39.1,17.2,39.1,25S32.8,39.1,25,39.1z"/>
	<path class="st0" d="M25,26.6c-2.3,0-4.2,1.9-4.2,4.2c0,2.3,1.9,4.2,4.2,4.2s4.2-1.9,4.2-4.2C29.2,28.5,27.3,26.6,25,26.6z"/>
	<g>
		<circle class="st0" cx="19.7" cy="20.4" r="1.4"/>
		<circle class="st0" cx="30.3" cy="20.4" r="1.4"/>
	</g>
</g>
</svg>
