<?xml version="1.0" encoding="utf-8"?>
<!-- Generator: Adobe Illustrator 22.0.0, SVG Export Plug-In . SVG Version: 6.00 Build 0)  -->
<svg version="1.1" id="Layer_1" xmlns="http://www.w3.org/2000/svg" xmlns:xlink="http://www.w3.org/1999/xlink" x="0px" y="0px"
	 viewBox="0 0 20 20" style="enable-background:new 0 0 20 20;" xml:space="preserve">
<style type="text/css">
	.st0{fill:#848484;}
</style>
<path class="st0" d="M11,10l2.4-2.4c0.3-0.3,0.3-0.8,0-1c-0.3-0.3-0.8-0.3-1,0L10,9L7.6,6.7C7.4,6.5,7,6.5,6.7,6.7s-0.3,0.7,0,0.9
	L9,10l-2.4,2.4c-0.3,0.3-0.3,0.8,0,1c0.3,0.3,0.8,0.3,1,0L10,11l2.4,2.4c0.3,0.3,0.8,0.3,1,0s0.3-0.8,0-1L11,10z M10,18
	c-4.5,0-8-3.5-8-8s3.5-8,8-8s8,3.5,8,8S14.5,18,10,18z"/>
</svg>
