<?xml version="1.0" encoding="utf-8"?>
<svg version="1.1" id="Layer_1" xmlns="http://www.w3.org/2000/svg" xmlns:xlink="http://www.w3.org/1999/xlink" x="0px" y="0px"
	 viewBox="0 0 20 20" style="enable-background:new 0 0 20 20;" xml:space="preserve">
<style type="text/css">
	.icon-apply-light-grey-0{clip-path:url(#SVGID_00000114031530734692420430000006627042032293858220_);}
	.icon-apply-light-grey-1{fill:#A5A5A5;}
</style>
<g id="Group_492" transform="translate(0 0)">
	<g>
		<defs>
			<rect id="SVGID_1_" x="1" y="1" width="18" height="18"/>
		</defs>
		<clipPath id="SVGID_00000039129485430636111020000003318583677501084080_">
			<use xlink:href="#SVGID_1_"  style="overflow:visible;"/>
		</clipPath>
			<g id="Group_482" transform="translate(0 0)" style="clip-path:url(#SVGID_00000039129485430636111020000003318583677501084080_);">
			<path id="Path_118" class="icon-apply-light-grey-1" d="M14.8,8l-5.3,5.3c-0.3,0.3-0.9,0.3-1.2,0l-3.1-3C4.8,9.9,4.8,9.4,5.2,9C5.5,8.7,6,8.7,6.4,9
				l2.5,2.4l4.8-4.7c0.3-0.3,0.9-0.3,1.2,0.1C15.2,7.1,15.1,7.6,14.8,8L14.8,8z M9.2,1c-5,0.4-8.6,4.8-8.2,9.8s4.8,8.6,9.8,8.2
				c5-0.4,8.6-4.8,8.2-9.8c-0.2-2.1-1.1-4.1-2.6-5.6C14.5,1.7,11.8,0.8,9.2,1z"/>
		</g>
	</g>
</g>
</svg>
