<?xml version="1.0" encoding="utf-8"?>
<!-- Generator: Adobe Illustrator 22.0.0, SVG Export Plug-In . SVG Version: 6.00 Build 0)  -->
<svg version="1.1" id="Layer_1" xmlns="http://www.w3.org/2000/svg" xmlns:xlink="http://www.w3.org/1999/xlink" x="0px" y="0px"
	 viewBox="0 0 20 20" style="enable-background:new 0 0 20 20;" xml:space="preserve">
<style type="text/css">
	.st0{fill:#4D4D4D;}
</style>
<path class="st0" d="M3.7,15.8c1.5,1.5,4,1.5,5.6,0l7.4-7.4c1.1-1.1,1.1-2.9,0-4c-1.1-1.1-2.9-1.1-4,0l-7.4,7.4
	c-0.7,0.7-0.7,1.7,0,2.4c0.7,0.7,1.7,0.7,2.4,0l6.9-6.9c0.1-0.1,0.2-0.2,0.2-0.4c0-0.2-0.1-0.3-0.2-0.4c-0.1-0.1-0.3-0.2-0.4-0.2
	c-0.2,0-0.3,0.1-0.4,0.2l-6.9,6.9c-0.2,0.2-0.6,0.2-0.8,0c-0.2-0.2-0.2-0.6,0-0.8l7.4-7.4c0.7-0.7,1.7-0.7,2.4,0
	c0.7,0.7,0.7,1.7,0,2.4L8.4,15c-1.1,1.1-2.9,1.1-4,0c-1.1-1.1-1.1-2.9,0-4l6.9-6.9l0,0c0.1-0.1,0.2-0.2,0.2-0.4
	c0-0.2-0.1-0.3-0.2-0.4c-0.1-0.1-0.3-0.2-0.4-0.2c-0.2,0-0.3,0.1-0.4,0.2l-6.9,6.9C2.1,11.7,2.1,14.2,3.7,15.8L3.7,15.8z"/>
</svg>
