<?xml version="1.0" encoding="utf-8"?>
<!-- Generator: Adobe Illustrator 22.0.0, SVG Export Plug-In . SVG Version: 6.00 Build 0)  -->
<svg version="1.1" id="Layer_1" xmlns="http://www.w3.org/2000/svg" xmlns:xlink="http://www.w3.org/1999/xlink" x="0px" y="0px"
	 viewBox="0 0 20 20" style="enable-background:new 0 0 20 20;" xml:space="preserve">
<style type="text/css">
	.st0{fill:#4D4E4E;}
</style>
<g>
	<path class="st0" d="M15.6,1.3c-0.5,0-0.8,0.3-0.8,0.8s0.3,0.8,0.8,0.8h0.9l-3.2,3.2c-0.3,0.3-0.3,0.9,0,1.3c0.3,0.3,0.9,0.3,1.3,0
		l3.2-3.1v0.9c0,0.5,0.3,0.8,0.8,0.8c0.5,0,0.8-0.3,0.8-0.8V2.3c0-0.5-0.3-0.9-0.9-0.9L15.6,1.3z"/>
	<path class="st0" d="M4.4,16.3c0.3,0.3,0.8,0.3,1.2,0l4.7-5.9c0.2-0.3,0.2-0.8-0.1-1c-0.3-0.2-0.8-0.1-1,0.1l-4.1,5.2l-1.6-2
		c-0.2-0.3-0.7-0.3-1-0.1c-0.3,0.5-0.5,0.9-0.1,1.2L4.4,16.3 M0.5,9.3c0-1.3,0.9-2.2,2.2-2.2H10c1.3,0,2.2,0.9,2.2,2.2v7.3
		c0,1.3-0.9,2.2-2.2,2.2H2.8c-1.3,0-2.2-0.9-2.2-2.2V9.3"/>
</g>
</svg>
