<?xml version="1.0" encoding="utf-8"?>
<!-- Generator: Adobe Illustrator 22.0.0, SVG Export Plug-In . SVG Version: 6.00 Build 0)  -->
<svg version="1.1" id="Layer_1" xmlns="http://www.w3.org/2000/svg" xmlns:xlink="http://www.w3.org/1999/xlink" x="0px" y="0px"
	 viewBox="0 0 20 20" style="enable-background:new 0 0 20 20;" xml:space="preserve">
<style type="text/css">
	.st0{fill:#4D4E4E;}
</style>
<g>
	<path class="st0" d="M15.6,4.4v11.4H4.4V4.4H15.6 M15.6,2.5H4.4c-1,0-1.8,0.8-1.8,1.8v11.4c0,0.9,0.8,1.7,1.8,1.7h11.4
		c1,0,1.8-0.8,1.8-1.8V4.4C17.5,3.4,16.6,2.5,15.6,2.5L15.6,2.5z"/>
	<g>
		<path class="st0" d="M8.7,7.9H7.1c0-0.8,0.2-1.4,0.8-2s1.2-0.7,2.2-0.7c0.6,0,1.1,0.1,1.5,0.3s0.7,0.5,1,0.9
			c0.2,0.4,0.3,0.8,0.3,1.2c0,0.2,0,0.5-0.1,0.7s-0.2,0.5-0.4,0.7c-0.1,0.2-0.3,0.4-0.7,0.7c-0.3,0.3-0.6,0.6-0.7,0.7
			c-0.1,0.2-0.2,0.3-0.2,0.5c-0.1,0.2-0.1,0.5-0.1,0.9H9v-0.2c0-0.6,0.1-1.1,0.3-1.5c0.2-0.4,0.5-0.9,1-1.2c0.4-0.4,0.7-0.7,0.8-0.8
			c0.1-0.2,0.2-0.3,0.2-0.5c0-0.2-0.1-0.5-0.3-0.7c-0.2-0.2-0.5-0.2-0.9-0.2S9.4,6.9,9.2,7.1C8.8,7.3,8.7,7.6,8.7,7.9z M9.9,12.7
			c0.3,0,0.6,0.1,0.7,0.3c0.2,0.2,0.3,0.4,0.3,0.7s-0.1,0.6-0.3,0.7s-0.5,0.3-0.7,0.3c-0.3,0-0.6-0.1-0.7-0.3
			c-0.2-0.2-0.3-0.5-0.3-0.7s0.1-0.6,0.3-0.7C9.3,12.8,9.6,12.7,9.9,12.7z"/>
	</g>
</g>
</svg>
