<?xml version="1.0" encoding="utf-8"?>
<!-- Generator: Adobe Illustrator 26.5.0, SVG Export Plug-In . SVG Version: 6.00 Build 0)  -->
<svg version="1.1" id="Layer_1" xmlns="http://www.w3.org/2000/svg" xmlns:xlink="http://www.w3.org/1999/xlink" x="0px" y="0px"
	 viewBox="0 0 20 20" style="enable-background:new 0 0 20 20;" xml:space="preserve">
<style type="text/css">
	.st0{fill:#FFFFFF;}
</style>
<g id="Group_553" transform="translate(0 0)">
	<g>
		<g id="Group_552" transform="translate(0 0)">
			<path id="Path_131" class="st0" d="M17.6,14.7h-3.8v3.8h3.8L17.6,14.7z M6.2,14.7H2.4v3.8h3.8V14.7z M11.9,14.7H8.1v3.8h3.8
				L11.9,14.7z M15.7,12.8H4.3v-1.4c0-1.3,1.8-2.4,4.2-2.7c0.2-0.4,0.2-0.9,0-1.3C7.7,6.8,7.1,5.8,7.2,4.7C7.1,3,8.3,1.6,10,1.5
				c1.7,0.1,2.9,1.5,2.8,3.2c0,1.1-0.5,2.1-1.4,2.7c-0.2,0.4-0.2,0.9,0,1.3c2.4,0.3,4.2,1.4,4.2,2.7L15.7,12.8z"/>
		</g>
	</g>
</g>
</svg>
