<?xml version="1.0" encoding="utf-8"?>
<!-- Generator: Adobe Illustrator 22.0.0, SVG Export Plug-In . SVG Version: 6.00 Build 0)  -->
<svg version="1.1" id="Layer_1" xmlns="http://www.w3.org/2000/svg" xmlns:xlink="http://www.w3.org/1999/xlink" x="0px" y="0px"
	 viewBox="0 0 20 20" style="enable-background:new 0 0 20 20;" xml:space="preserve">
<style type="text/css">
	.st0{fill:gray;}
</style>
<path class="st0" d="M10,2c-4.4,0-8,3.6-8,8c0,4.4,3.6,8,8,8s8-3.6,8-8C18,5.6,14.4,2,10,2z M10,4.3c1.2,0,2.2,0.4,3.1,1l-7.9,7.9
	c-0.6-0.9-1-2-1-3.1C4.3,6.8,6.8,4.3,10,4.3z M10,15.7c-1.2,0-2.2-0.4-3.1-1l7.9-7.9c0.6,0.9,1,2,1,3.1C15.7,13.2,13.2,15.7,10,15.7
	z"/>
</svg>
