<?xml version="1.0" encoding="utf-8"?>
<!-- Generator: Adobe Illustrator 22.0.0, SVG Export Plug-In . SVG Version: 6.00 Build 0)  -->
<svg version="1.1" id="Layer_1" xmlns="http://www.w3.org/2000/svg" xmlns:xlink="http://www.w3.org/1999/xlink" x="0px" y="0px"
	 viewBox="0 0 20 20" style="enable-background:new 0 0 20 20;" xml:space="preserve">
<style type="text/css">
	.st0{fill-rule:evenodd;clip-rule:evenodd;fill:#999999;}
</style>
<path class="st0" d="M17.3,1.3H2.7c-1.2,0-2.2,1-2.2,2.2v9.1c0,1.2,1,2.2,2.2,2.2h0.2v3.2c0,0.3,0.2,0.6,0.5,0.7
	c0.1,0,0.2,0.1,0.3,0.1c0.2,0,0.4-0.1,0.6-0.2L8,14.8h9.4c1.2,0,2.2-1,2.2-2.2V3.5C19.5,2.3,18.5,1.3,17.3,1.3 M5.2,5.3h7.1
	c0.4,0,0.8,0.4,0.8,0.8c0,0.4-0.4,0.8-0.8,0.8H5.2C4.8,6.8,4.5,6.5,4.5,6C4.5,5.6,4.8,5.3,5.2,5.3 M14.7,10H5.2
	c-0.4,0-0.8-0.4-0.8-0.8c0-0.4,0.4-0.8,0.8-0.8h9.5c0.4,0,0.8,0.4,0.8,0.8C15.5,9.6,15.2,10,14.7,10"/>
</svg>
