<?xml version="1.0" encoding="utf-8"?>
<!-- Generator: Adobe Illustrator 22.0.0, SVG Export Plug-In . SVG Version: 6.00 Build 0)  -->
<svg version="1.1" id="Layer_1" xmlns="http://www.w3.org/2000/svg" xmlns:xlink="http://www.w3.org/1999/xlink" x="0px" y="0px"
	 viewBox="0 0 20 20" style="enable-background:new 0 0 20 20;" xml:space="preserve">
<style type="text/css">
	.st0{fill:#FFFFFF;}
</style>
<path class="st0" d="M6.3,4.3l3.1,5.5H3.2C3.3,7.4,4.5,5.4,6.3,4.3z M10,10.6l3.1,5.5c-0.9,0.5-2,0.8-3.1,0.8S7.8,16.5,6.9,16
	L10,10.6z M13.7,4.3c1.8,1.2,3,3.2,3.1,5.5h-6.3L13.7,4.3z M10,17.7c4.3,0,7.7-3.5,7.7-7.7c0-4.3-3.5-7.7-7.7-7.7
	c-4.3,0-7.7,3.5-7.7,7.7C2.3,14.3,5.7,17.7,10,17.7z"/>
</svg>
