<?xml version="1.0" encoding="utf-8"?>
<!-- Generator: Adobe Illustrator 22.0.0, SVG Export Plug-In . SVG Version: 6.00 Build 0)  -->
<svg version="1.1" id="Layer_1" xmlns="http://www.w3.org/2000/svg" xmlns:xlink="http://www.w3.org/1999/xlink" x="0px" y="0px"
	 viewBox="0 0 20 20" style="enable-background:new 0 0 20 20;" xml:space="preserve">
<style type="text/css">
	.st0{fill:#4D4D4D;}
</style>
<g>
	<g>
		<path class="st0" d="M6,12.7L6,12.7c0.5-0.1,0.9-0.3,1.2-0.4l-0.1-0.2v0c-0.3-0.5-0.5-1.2-0.6-1.8C6.3,10.2,6.1,10,6,9.9
			C5.9,9.6,6,9.3,6.2,9.1C6.2,9,6.3,8.9,6.3,8.8c0,0,0,0,0,0C6.7,8.3,6.9,7.5,7,6.7c0-1.3-1-2.4-2.2-2.4h0c0,0,0,0,0,0
			c-1.2,0-2.2,1.1-2.2,2.4c0,0.9,0.3,1.6,0.6,2.1c0,0,0,0,0,0C3.2,8.9,3.3,9,3.4,9.1c0.1,0.2,0.3,0.6,0.1,0.8
			c-0.3,0.6-2.3,1.1-2.3,1.1c-0.4,0.1-0.7,0.5-0.7,0.9v0.9l5.2,0C5.8,12.7,5.9,12.7,6,12.7L6,12.7z"/>
		<path class="st0" d="M18.8,11c0,0-2-0.5-2.3-1.1c-0.1-0.3,0-0.6,0.1-0.8c0.1-0.1,0.1-0.2,0.2-0.3c0,0,0,0,0,0
			c0.3-0.5,0.6-1.3,0.6-2.1c0-1.3-1-2.4-2.2-2.4c0,0,0,0,0,0s0,0,0,0C14,4.3,13,5.3,13,6.7c0,0.9,0.3,1.6,0.6,2.1c0,0,0,0,0,0
			c0.1,0.1,0.1,0.2,0.2,0.3C14,9.3,14.1,9.6,14,9.9c-0.1,0.2-0.3,0.3-0.5,0.4c-0.1,0.7-0.3,1.4-0.7,2c0.3,0.1,0.6,0.2,1.1,0.4
			c0.1,0,0.1,0,0.1,0c0.1,0,0.2,0.1,0.3,0.1l5.3,0v-0.9C19.5,11.5,19.2,11.1,18.8,11z"/>
		<path class="st0" d="M13.6,13.9c0,0-2-0.5-2.3-1.1c0,0,0,0,0,0h0c-0.1-0.3,0-0.6,0.1-0.8c0.1-0.1,0.1-0.2,0.2-0.3c0,0,0,0,0,0
			c0.2-0.3,0.3-0.5,0.4-0.9c0,0,0,0,0,0v0c0.1-0.4,0.2-0.8,0.2-1.3c0-1.3-1-2.4-2.2-2.4c0,0,0,0,0,0s0,0,0,0c-1.2,0-2.2,1.1-2.2,2.4
			c0,0.5,0.1,0.9,0.2,1.2l0,0c0,0,0,0,0,0c0.1,0.3,0.2,0.6,0.4,0.9c0,0,0,0,0,0c0.1,0.1,0.1,0.2,0.2,0.3c0.1,0.2,0.2,0.5,0.1,0.8
			c0,0,0,0,0,0c-0.3,0.6-2.3,1.1-2.3,1.1C6,14,5.7,14.4,5.7,14.8v0.9l8.5,0v-0.9C14.2,14.4,14,14,13.6,13.9z"/>
	</g>
</g>
</svg>
