<?xml version="1.0" encoding="utf-8"?>
<!-- Generator: Adobe Illustrator 23.1.1, SVG Export Plug-In . SVG Version: 6.00 Build 0)  -->
<svg version="1.1" id="Layer_1" xmlns="http://www.w3.org/2000/svg" xmlns:xlink="http://www.w3.org/1999/xlink" x="0px" y="0px"
	 viewBox="0 0 20 20" style="enable-background:new 0 0 20 20;" xml:space="preserve">
<style type="text/css">
	.st0{fill:#4D4E4E;}
</style>
<g>
	<rect id="Rectangle_403" x="8.27" y="6.55" class="st0" width="1.95" height="9.18"/>
	<path id="Path_195" class="st0" d="M4.73,6.57v-2.3h-1.3v2.3h-2.3v1.3h2.3v2.3h1.3v-2.3h2.3v-1.3L4.73,6.57L4.73,6.57z"/>
	<path id="Path_196" class="st0" d="M17.99,7.27c-0.74-0.53-1.64-0.78-2.54-0.72h-2.93v9.18h1.95v-3.27h0.84
		c0.94,0.06,1.88-0.22,2.64-0.78c0.64-0.57,0.98-1.41,0.92-2.27C18.92,8.6,18.6,7.81,17.99,7.27z M16.45,10.51
		c-0.4,0.26-0.87,0.39-1.34,0.35h-0.64V8.14h0.89c0.42-0.03,0.83,0.08,1.17,0.33c0.27,0.27,0.4,0.64,0.37,1.01
		C16.92,9.88,16.76,10.26,16.45,10.51z"/>
</g>
</svg>
