<?xml version="1.0" encoding="utf-8"?>
<!-- Generator: Adobe Illustrator 22.0.0, SVG Export Plug-In . SVG Version: 6.00 Build 0)  -->
<svg version="1.1" id="Layer_1" xmlns="http://www.w3.org/2000/svg" xmlns:xlink="http://www.w3.org/1999/xlink" x="0px" y="0px"
	 viewBox="0 0 14 14" style="enable-background:new 0 0 14 14;" xml:space="preserve">
<style type="text/css">
	.st0{fill:#717273;}
</style>
<g>
	<path class="st0" d="M13.3,5c-0.2-0.3-0.7-0.4-1-0.3C10.8,5,8.9,4.5,8.4,4.2c0,0,0.1-0.3,0-0.3c0.1-0.1,0.1-0.1,0.3-0.1
		c0.2,0.1,0.6,0.1,0.8,0C9.3,3.5,9.1,3,8.9,2.6C8.7,2.7,8.4,3,8.2,3.1c-0.4-1-1.8-1.2-2.8-0.7H5.3c0,0-0.2-0.6-0.3-0.9
		C4.5,1.7,4.2,2.1,4.1,2.1c-0.3,0-0.7,0-0.9,0c0,0.4,0.2,1,0.2,1.5C3,4,2.5,4.4,2.2,4.9C2,4.9,1.6,4.8,1.3,5C1.1,5,0.8,5.3,0.8,5.5
		c0,0.1,0.2,0.3,0.7,0.4C0.7,6.8,0.4,8.2,1.1,8.8C0.8,8.9,0.7,9.1,0.6,9.4C0.5,9.7,0.7,9.8,1,9.8c0.3,0.1,0.7-0.1,1-0.3
		c0.6,0.3,0.9,0.3,1.7,0.4c0.1,0,0.2,0.2,0.2,0.2s-0.4,0-0.7,0c-0.4,0.1-0.7,0.3-0.4,0.7c0.3,0.4,1,0.6,1.6,0.4
		c0.3,0.3,0.2,1-0.4,1.2c0.6,0,1.1-0.3,1.2-1.1c0-0.1-0.1-0.3-0.2-0.4c0-0.1-0.1-0.2-0.1-0.2s0.3-0.6-0.3-0.9c0.2,0,0.7-0.2,0.7-0.2
		s0.2,0.2,0.3,0.2c0.2,0,0.3-0.1,0.4-0.2c0.2-0.3-0.1-0.4-0.1-0.4L6,8.8c0,0,0.2,0.2,0.3,0.3C6.7,9.6,6.7,10,7,10.6
		c0.1,0.2,0.3,0.4,0.7,0.6c0.2,0.1,0.4,0.1,0.7,0C8.8,11,9,10.9,9.3,10.8c1.6-0.9,2.7-2.1,3.6-3.9C13.2,6.4,13.6,5.5,13.3,5z"/>
</g>
</svg>
