<?xml version="1.0" encoding="utf-8"?>
<!-- Generator: Adobe Illustrator 22.0.0, SVG Export Plug-In . SVG Version: 6.00 Build 0)  -->
<svg version="1.1" id="Layer_1" xmlns="http://www.w3.org/2000/svg" xmlns:xlink="http://www.w3.org/1999/xlink" x="0px" y="0px"
	 viewBox="0 0 20 20" style="enable-background:new 0 0 20 20;" xml:space="preserve">
<style type="text/css">
	.st0{fill:#4D4E4E;}
</style>
<g>
	<path class="st0" d="M17.8,8L17.8,8L17.8,8c0,0.2-0.2,0.4-0.4,0.7c-0.7,1.2-1.4,3-1.6,4.2c-0.7,4.4-2.5,4.6-4.6,4.6
		s-3.5-1.1-4.8-1.9l-4.2-3.7c-0.4-0.2-0.4-0.7,0-1.1c0.2-0.2,0.4-0.2,0.5-0.2c0.2,0,0.2,0,0.4,0l0,0c0,0,0.4,0.2,1.4,0.7
		c0.5,0.4,1.6,0.7,2.1,0.7c0.2,0,0.4,0,0.4,0c0.7-0.4,0.4-1.9-0.2-4.4L6,4.3C6,4.1,6,4,6,3.8c0.2-0.2,0.4-0.4,0.5-0.4h0.2
		c0.2,0,0.2,0,0.4,0.2c0.2,0.2,0.4,0.2,0.4,0.5l1.4,4.1C9,8.9,9.1,9.1,9.5,9.1l0,0c0.4,0,0.4-0.4,0.4-0.9v-5c0-0.4,0.4-0.7,0.7-0.7
		s0.7,0.4,0.7,0.7L11.4,8c0,0.5,0,1.1,0.4,1.1l0,0c0.4,0,0.5-0.7,0.5-0.9l1.2-4.1c0-0.2,0.2-0.4,0.4-0.5c0.2-0.2,0.4-0.2,0.4-0.2
		h0.2c0.2,0,0.4,0.2,0.5,0.4c0.2,0.2,0.2,0.4,0.2,0.5l-0.7,4.6c0,0.4,0,0.5,0.2,0.7h0.2c0.2,0,0.4,0,0.4-0.2l1.6-2.1
		C16.9,7.1,17.1,7,17.3,7c0,0,0,0,0.2,0c0.2,0,0.4,0,0.4,0.2C18,7.3,18,7.3,18,7.5C18,7.7,18,7.8,17.8,8L17.8,8z"/>
</g>
</svg>
