<?xml version="1.0" encoding="utf-8"?>
<!-- Generator: Adobe Illustrator 27.3.1, SVG Export Plug-In . SVG Version: 6.00 Build 0)  -->
<svg version="1.1" id="Layer_1" xmlns="http://www.w3.org/2000/svg" xmlns:xlink="http://www.w3.org/1999/xlink" x="0px" y="0px"
	 viewBox="0 0 20 20" style="enable-background:new 0 0 20 20;" xml:space="preserve">
<style type="text/css">
	.st0{fill:#FFFFFF;}
	.st1{fill:#5FB766;}
</style>
<g>
	<g>
		<polyline class="st0" points="19.4,6.6 19.5,6.6 19.5,6.6 19.5,6.5 19.5,6.5 19.5,6.5 19.5,6.5 19.6,6.4 19.6,6.4 19.6,6.3 
			19.6,6.3 19.6,6.3 19.6,6.3 19.6,6.2 19.7,6.2 19.7,6.1 19.7,6.1 19.7,6.1 19.7,6.1 19.7,6.1 19.7,6 19.7,6 19.7,5.9 19.7,5.9 
			19.7,5.9 19.7,5.8 19.7,5.8 19.7,5.8 19.6,5.7 19.6,5.7 19.6,5.7 19.6,5.6 19.6,5.6 19.6,5.6 19.6,5.5 19.5,5.5 19.5,5.5 
			19.5,5.4 19.4,5.4 19.5,5.4 		"/>
	</g>
</g>
<circle class="st1" cx="10" cy="10" r="7"/>
<g>
	<g>
		<path class="st0" d="M13.5,6.1h-2.2c-0.1,0-0.2,0.1-0.2,0.2v0.6c0,0,0,0.1,0.1,0.2c0,0,0.1,0.1,0.2,0.1h0.9l-4,4
			c0,0-0.1,0.1-0.1,0.2c0,0.1,0,0.1,0.1,0.2L8.7,12c0,0,0,0,0.1,0c0,0,0.1,0,0.2-0.1l4-4v0.9c0,0.1,0,0.2,0.2,0.2h0.6
			c0,0,0.1,0,0.2-0.1c0,0,0-0.1,0-0.1V6.6c0-0.1,0-0.2-0.1-0.4C13.8,6.1,13.7,6.1,13.5,6.1L13.5,6.1z"/>
		<path class="st0" d="M12.4,10.4h-0.6c-0.1,0-0.2,0.1-0.2,0.2v2.3H7.2V8.6h2.3c0,0,0.1,0,0.2-0.1c0,0,0.1-0.1,0-0.2V7.8
			c0,0,0-0.1-0.1-0.2c0,0-0.1,0-0.1,0H6.7c-0.3,0-0.5,0.2-0.5,0.5v5.4c0,0.2,0.2,0.5,0.5,0.5h5.4c0.3,0,0.5-0.2,0.5-0.5v-2.9
			C12.6,10.5,12.5,10.4,12.4,10.4L12.4,10.4z"/>
	</g>
</g>
</svg>
