<?xml version="1.0" encoding="utf-8"?>
<!-- Generator: Adobe Illustrator 22.0.0, SVG Export Plug-In . SVG Version: 6.00 Build 0)  -->
<svg version="1.1" id="Layer_1" xmlns="http://www.w3.org/2000/svg" xmlns:xlink="http://www.w3.org/1999/xlink" x="0px" y="0px"
	 viewBox="0 0 22 22" style="enable-background:new 0 0 22 22;" xml:space="preserve">
<style type="text/css">
	.st0{fill:#5FB766;}
	.st1{fill:#FFFFFF;}
</style>
<g>
	<g>
		<g>
			<circle class="st0" cx="11" cy="11" r="9.5"/>
			<path class="st1" d="M11,21.5C5.2,21.5,0.5,16.8,0.5,11S5.2,0.5,11,0.5S21.5,5.2,21.5,11S16.8,21.5,11,21.5z M11,2.6
				c-4.6,0-8.4,3.8-8.4,8.4s3.8,8.4,8.4,8.4s8.4-3.8,8.4-8.4S15.6,2.6,11,2.6z"/>
		</g>
	</g>
	<path class="st1" d="M14.8,7.5c-1.6,1.6-3.4,3.2-5.1,4.8l-2.7-2l-1.2,1.6l3.4,2.5L9.8,15l0.6-0.6c1.8-1.8,3.9-3.6,5.7-5.4L14.8,7.5
		z"/>
</g>
</svg>
