<?xml version="1.0" encoding="utf-8"?>
<!-- Generator: Adobe Illustrator 22.0.0, SVG Export Plug-In . SVG Version: 6.00 Build 0)  -->
<svg version="1.1" id="Layer_1" xmlns="http://www.w3.org/2000/svg" xmlns:xlink="http://www.w3.org/1999/xlink" x="0px" y="0px"
	 viewBox="0 0 20 20" style="enable-background:new 0 0 20 20;" xml:space="preserve">
<style type="text/css">
	.st0{fill:#FFFFFF;}
</style>
<g>
	<polygon class="st0" points="16.3,4.5 9.9,4.5 8.1,2.7 1.7,2.7 1.7,6.4 16.3,6.4 	"/>
	<path class="st0" d="M16.3,7.3H1.7v9.4h14.6l1.8-9.4H16.3z M6.1,9.6h6.4c0.1,0,0.1,0,0.2,0l-3.2,2.7c-0.1,0.1-0.3,0.1-0.4,0
		L5.9,9.6C5.9,9.6,6,9.6,6.1,9.6z M13.1,13.8c0,0.3-0.2,0.6-0.6,0.6H6.1c-0.3,0-0.6-0.2-0.6-0.6v-3.7c0,0,0-0.1,0-0.1l3.2,2.7
		c0.3,0.3,0.8,0.3,1.2,0l3.2-2.7c0,0,0,0.1,0,0.1V13.8z"/>
</g>
</svg>
