<?xml version="1.0" encoding="utf-8"?>
<!-- Generator: Adobe Illustrator 16.0.0, SVG Export Plug-In . SVG Version: 6.00 Build 0)  -->
<!DOCTYPE svg PUBLIC "-//W3C//DTD SVG 1.1//EN" "http://www.w3.org/Graphics/SVG/1.1/DTD/svg11.dtd">
<svg version="1.1" xmlns="http://www.w3.org/2000/svg" xmlns:xlink="http://www.w3.org/1999/xlink" x="0px" y="0px" width="1000px"
	 height="1000px" viewBox="0 0 1000 1000" enable-background="new 0 0 1000 1000" xml:space="preserve">
<g id="Layer_1" display="none">
	<polygon display="inline" fill="#3E3E3E" points="342.667,231.655 461,231.655 434,286.217 342.667,286.217 	"/>
	<polygon display="inline" fill="#3E3E3E" points="343,714.784 434,714.784 461,768.346 343,768.346 	"/>
	<polygon display="inline" fill="#3E3E3E" points="537.666,471.655 611,471.655 611,539.217 538,539.217 	"/>
	<polygon display="inline" fill="#3E3E3E" points="538.666,471.655 461,231.655 434,286.217 492.5,471.655 492.5,539.217 
		434,714.784 461,768.346 539,539.217 	"/>
	<polygon display="inline" fill="#3E3E3E" points="591.688,377 722.084,505.436 592.5,635 564.666,635 564.666,583 611,539.217 
		611,471.655 564.666,422.5 564.666,377 	"/>
</g>
<g id="Layer_3" display="none">
	<path display="inline" fill="#3E3E3E" d="M145.507,80.947L40.769,185.685v247.779h275.032V80.947H145.507z M139.027,118.739v60.467
		H78.561L139.027,118.739z M62.981,411.251V201.264h98.259v-98.259h132.501v308.247H62.981z"/>
	<path display="inline" fill="#3E3E3E" d="M145.507,569.303L40.769,674.039v247.779h275.032V569.303H145.507z M139.027,607.094
		v60.467H78.561L139.027,607.094z M62.981,899.607V689.619h98.26v-98.26h132.501v308.248H62.981z"/>
	<polygon display="inline" fill="#3E3E3E" points="254.808,200.782 146.277,309.312 101.183,264.393 75.951,289.801 
		146.277,360.127 280.214,226.013 	"/>
	<polygon display="inline" fill="#3E3E3E" points="117.08,883.045 275.169,725.064 249.55,699.625 91.461,857.605 	"/>
	<polygon display="inline" fill="#3E3E3E" points="88.019,725.102 246.001,883.189 271.44,857.57 113.46,699.48 	"/>
	<path display="inline" fill="#3E3E3E" d="M822.281,337.834l-84.701,84.702v247.631H960V337.834H822.281z M817.042,368.396v48.899
		h-48.899L817.042,368.396z M755.543,652.203V435.136h79.463v-79.463h107.155v296.531H755.543z"/>
	<rect x="855.381" y="414.97" display="inline" fill="#3E3E3E" width="61.974" height="14.133"/>
	<rect x="780.359" y="472.96" display="inline" fill="#3E3E3E" width="136.995" height="14.133"/>
	<rect x="780.359" y="530.949" display="inline" fill="#3E3E3E" width="136.995" height="14.134"/>
	<rect x="781.676" y="588.939" display="inline" fill="#3E3E3E" width="136.994" height="14.133"/>
</g>
<g id="Layer_4">
	<polygon fill="#3E3E3E" points="71.112,139.728 71.112,308.005 249.118,308.005 425.722,498.511 245.288,678.945 71.112,678.945 
		71.111,854.523 317.252,854.523 580.081,590.294 740.421,591.695 740.421,672.346 925.368,497.127 743.572,318.044 
		743.198,406.729 587.031,406.729 315.869,139.728 	"/>
</g>
<g id="Layer_2" display="none">
	<polygon display="inline" fill="#3E3E3E" points="376.801,561.088 25.801,954.375 49.801,954.375 402.801,561.088 	"/>
	<polygon display="inline" fill="#3E3E3E" points="49.801,561.088 402.634,954.375 376.801,954.375 25.801,561.088 	"/>
</g>
</svg>
