<?xml version="1.0" encoding="utf-8"?>
<!-- Generator: Adobe Illustrator 22.0.0, SVG Export Plug-In . SVG Version: 6.00 Build 0)  -->
<svg version="1.1" id="Layer_1" xmlns="http://www.w3.org/2000/svg" xmlns:xlink="http://www.w3.org/1999/xlink" x="0px" y="0px"
	 viewBox="0 0 20 20" style="enable-background:new 0 0 20 20;" xml:space="preserve">
<style type="text/css">
	.gear_one{fill:#BABABA;}
	.bounding_box{fill:none;}
	.gear_two:#4D4D4D;}
</style>
<g id="gear_larger" class="rotating">
	<path class="gear_one" d="M7.9,11.5c0,0.7-0.5,1.1-1.1,1.1s-1.1-0.5-1.1-1.1c0-0.7,0.5-1.1,1.1-1.1S7.9,10.8,7.9,11.5z M12.3,11l-0.2-1
		l-1.5-0.3L10.1,9l0.6-1.4L10,6.9L8.6,7.8L7.8,7.4L7.3,5.9h-1L5.7,7.4L4.9,7.8L3.6,6.9L2.9,7.6L3.5,9L3,9.8l-1.5,0.3l-0.2,1l1.3,0.8
		l0.2,0.9l-1,1.1l0.4,1l1.5-0.3L4.4,15v1.5l1,0.4l1-1.1h0.9l1,1.1l1-0.4V15l0.7-0.6l1.5,0.3l0.5-0.9l-1-1.1l0.2-0.9L12.3,11z"/>
	<rect x="1.3" y="5.9" class="bounding_box" width="11" height="11"/>
</g>
<g id="gear_smaller" class="rotating">
	<path class="gear_two" d="M13.8,7c0-0.5,0.4-0.9,0.9-0.9s0.9,0.4,0.9,0.9s-0.4,0.9-0.9,0.9C14.2,7.8,13.8,7.4,13.8,7z M17.3,6.6l1-1.1
		l-0.5-0.9l-1.4,0.3l-0.6-0.4l-0.5-1.4h-1.1l-0.5,1.4L13,4.9l-1.4-0.3l-0.5,0.9l1,1.1v0.7l-1,1.1l0.5,0.9L13,9l0.6,0.4l0.5,1.4h1.1
		l0.5-1.4L16.3,9l1.4,0.3l0.5-0.9l-1-1.1V6.6H17.3z"/>
	<rect x="10.7" y="2.9" class="bounding_box" width="8" height="8"/>
</g>
</svg>
