<?xml version="1.0" encoding="utf-8"?>
<!-- Generator: Adobe Illustrator 22.0.0, SVG Export Plug-In . SVG Version: 6.00 Build 0)  -->
<svg version="1.1" id="Layer_1" xmlns="http://www.w3.org/2000/svg" xmlns:xlink="http://www.w3.org/1999/xlink" x="0px" y="0px"
	 viewBox="0 0 20 20" style="enable-background:new 0 0 20 20;" xml:space="preserve">
<style type="text/css">
	.st0{fill:#E37333;}
</style>
<path class="st0" d="M19,10c0-0.1-0.1-0.2-0.2-0.3l-2.1-1.5l1.1-2.3c0.1-0.1,0.1-0.2,0-0.3c-0.1-0.1-0.2-0.2-0.3-0.2l-2.6-0.2
	l-0.2-2.6c0-0.1-0.1-0.2-0.2-0.3c-0.1,0-0.2-0.1-0.3,0l-2.3,1.1l-1.5-2.1C10.2,1,9.8,1,9.7,1.2L8.2,3.3L5.8,2.2
	c-0.1-0.1-0.2-0.1-0.3,0C5.4,2.3,5.3,2.4,5.3,2.5L5.1,5.1L2.5,5.3c-0.1,0-0.2,0.1-0.3,0.2c0,0.1-0.1,0.2,0,0.3l1.1,2.3L1.2,9.7
	C1.1,9.8,1,9.9,1,10c0,0.1,0.1,0.2,0.1,0.2l2.1,1.5l-1.1,2.3c-0.1,0.1-0.1,0.2,0,0.3c0.1,0.1,0.2,0.2,0.3,0.2L5,14.9l0.2,2.6
	c0,0.1,0.1,0.2,0.2,0.3c0.1,0,0.2,0.1,0.3,0l2.3-1.1l1.5,2.1C9.7,18.9,9.8,19,10,19c0.1,0,0.2-0.1,0.2-0.1l1.5-2.1l2.3,1.1
	c0.1,0.1,0.2,0.1,0.3,0c0.1-0.1,0.2-0.2,0.2-0.3l0.2-2.6l2.6-0.2c0.1,0,0.2-0.1,0.3-0.2c0-0.1,0.1-0.2,0-0.3l-1.1-2.3l2.1-1.5h0
	C18.8,10.2,19,10.1,19,10z M10.7,14c-0.2,0.2-0.5,0.3-0.8,0.3c-0.3,0-0.6-0.1-0.8-0.3c-0.2-0.2-0.3-0.5-0.3-0.8s0.1-0.6,0.3-0.8
	c0.4-0.4,1.1-0.4,1.5,0c0.2,0.2,0.3,0.5,0.3,0.8S10.9,13.8,10.7,14z M11,10.3c0,0.6-0.5,1.1-1.1,1.1c-0.6,0-1.1-0.5-1.1-1.1V6.8
	c0-0.6,0.5-1.1,1.1-1.1c0.6,0,1.1,0.5,1.1,1.1V10.3z"/>
</svg>
