<?xml version="1.0" encoding="utf-8"?>
<!-- Generator: Adobe Illustrator 22.0.0, SVG Export Plug-In . SVG Version: 6.00 Build 0)  -->
<svg version="1.1" id="Layer_1" xmlns="http://www.w3.org/2000/svg" xmlns:xlink="http://www.w3.org/1999/xlink" x="0px" y="0px"
	 viewBox="0 0 20 20" style="enable-background:new 0 0 20 20;" xml:space="preserve">
<style type="text/css">
	.st0{fill:#4D4D4D;stroke:#4D4D4D;stroke-width:0.5;stroke-miterlimit:10;}
	.st1{fill:#4D4D4D;}
</style>
<g>
	<path class="st0" d="M14.5,17.8h-9L1,10l4.5-7.8h9L19,10L14.5,17.8z M6.1,16.7h7.7l3.9-6.7l-3.9-6.7H6.1L2.3,10L6.1,16.7z"/>
	<path class="st1" d="M14.4,9.6h-1.9c0-0.2-0.1-0.3-0.1-0.5c0.2-0.2,0.8-0.6,1.3-1.2c0.6-0.9,0.6-1.4,0.6-1.5c0-0.2-0.2-0.4-0.4-0.4
		s-0.4,0.2-0.5,0.4c0,0,0,0.4-0.5,1.1C12.6,8,12.2,8.3,12,8.4c-0.2-0.3-0.5-0.6-0.9-0.8c0-0.1,0.1-0.6,0-1c-0.1-0.7-0.6-0.7-0.6-0.7
		s0.3,0.7-0.3,1.4c-0.1,0-0.2,0-0.3,0s-0.2,0-0.3,0C9.1,6.5,9.4,5.9,9.4,5.9S9,5.9,8.9,6.6c-0.1,0.4,0,0.8,0,1
		C8.6,7.7,8.3,8,8.1,8.4c-0.3-0.2-0.7-0.5-1-1C6.7,6.7,6.6,6.3,6.6,6.3c0-0.2-0.2-0.4-0.4-0.4C6,5.9,5.8,6.1,5.8,6.4
		c0,0.1,0,0.6,0.6,1.5c0.4,0.7,1,1.1,1.3,1.2C7.6,9.3,7.6,9.4,7.5,9.6H5.6c-0.2,0-0.4,0.2-0.4,0.4s0.2,0.4,0.4,0.4h1.8
		c0,0.3,0.1,0.6,0.1,0.9c-0.3,0.1-0.6,0.3-0.9,0.6c-0.9,0.7-1.1,1.6-1.1,1.7c-0.1,0.2,0.1,0.5,0.3,0.5h0.1c0.2,0,0.4-0.1,0.4-0.3
		c0,0,0.2-0.7,0.8-1.2c0.2-0.2,0.5-0.3,0.7-0.4C8.3,13,9,13.6,9.9,13.6s1.7-0.6,2.1-1.4c0.2,0.1,0.5,0.2,0.7,0.4
		c0.6,0.5,0.8,1.2,0.8,1.2c0,0.2,0.2,0.3,0.4,0.3H14c0.2-0.1,0.4-0.3,0.3-0.5c0,0-0.2-1-1.1-1.7c-0.3-0.2-0.6-0.4-0.9-0.6
		c0.1-0.3,0.1-0.6,0.1-0.9h1.8c0.2,0,0.4-0.2,0.4-0.4C14.8,9.8,14.6,9.6,14.4,9.6z"/>
</g>
</svg>
