<?xml version="1.0" encoding="utf-8"?>
<!-- Generator: Adobe Illustrator 28.2.0, SVG Export Plug-In . SVG Version: 6.00 Build 0)  -->
<svg version="1.1" id="Layer_1" xmlns="http://www.w3.org/2000/svg" xmlns:xlink="http://www.w3.org/1999/xlink" x="0px" y="0px"
	 viewBox="0 0 20 20" style="enable-background:new 0 0 20 20;" xml:space="preserve">
<style type="text/css">
	.st0{fill:#4D4E4E;}
</style>
<g>
	<path class="st0" d="M18.5,15.1c0,0.2,0,0.4-0.2,0.6c-0.2,0.2-0.4,0.2-0.6,0.2H2.3c-0.2,0-0.4,0-0.6-0.2c-0.2-0.2-0.2-0.4-0.2-0.4
		v-10V5.1l1.6,1.4l6.3,5.3c0.2,0,0.4,0.2,0.6,0.2c0.2,0,0.4,0,0.4-0.2l7.8-6.6l0.2-0.2v0.2V15.1z M17.7,4.1l-7.6,6.3L2.5,4.1H17.7z"
		/>
</g>
</svg>
