<?xml version="1.0" encoding="utf-8"?>
<!-- Generator: Adobe Illustrator 22.0.0, SVG Export Plug-In . SVG Version: 6.00 Build 0)  -->
<svg version="1.1" id="Layer_1" xmlns="http://www.w3.org/2000/svg" xmlns:xlink="http://www.w3.org/1999/xlink" x="0px" y="0px"
	 viewBox="0 0 20 20" style="enable-background:new 0 0 20 20;" xml:space="preserve">
<style type="text/css">
	.st0{fill:#4D4D4D;}
</style>
<path class="st0" d="M12.3,3.8L11.8,3H8.2L7.7,3.8H4.8v1.8h10.4V3.8H12.3z M7.8,10l0.9-0.9l1.2,1.2l1.2-1.2l0.9,0.9l-1.2,1.2
	l1.2,1.2l-0.9,0.9L10,12.1l-1.2,1.2l-0.9-0.9l1.2-1.2L7.8,10z M5.4,15.5C5.4,16.3,6,17,6.9,17h6.3c0.8,0,1.5-0.7,1.5-1.5l0-9.4H5.4
	L5.4,15.5z"/>
</svg>
