<?xml version="1.0" encoding="utf-8"?>
<!-- Generator: Adobe Illustrator 22.0.0, SVG Export Plug-In . SVG Version: 6.00 Build 0)  -->
<svg version="1.1" id="Layer_1" xmlns="http://www.w3.org/2000/svg" xmlns:xlink="http://www.w3.org/1999/xlink" x="0px" y="0px"
	 viewBox="0 0 20 20" style="enable-background:new 0 0 20 20;" xml:space="preserve">
<style type="text/css">
	.st0{fill:#D7DADB;}
</style>
<path class="st0" d="M16.2,4.2c-0.2-0.1-0.2-0.1-0.3-0.1c-0.1,0-0.2,0-0.3,0.1l-4.3,3.3V4.7c0-0.3-0.1-0.5-0.3-0.5c0,0-0.1,0-0.2,0
	c-0.1,0-0.2,0-0.3,0.1L3.8,9.6C3.6,9.7,3.6,9.8,3.6,10s0.1,0.3,0.2,0.4l6.8,5.3c0.1,0.1,0.2,0.1,0.3,0.1s0.2,0,0.3-0.1
	c0.2-0.1,0.2-0.3,0.2-0.4v-2.9l4.3,3.3c0.1,0.1,0.2,0.1,0.3,0.1c0.1,0,0.2,0,0.3-0.1c0.2-0.1,0.2-0.3,0.2-0.4V4.7
	C16.5,4.5,16.4,4.2,16.2,4.2z M15.4,14.3L9.9,10l5.5-4.3V14.3z"/>
</svg>
