<?xml version="1.0" encoding="utf-8"?>
<!-- Generator: Adobe Illustrator 23.1.1, SVG Export Plug-In . SVG Version: 6.00 Build 0)  -->
<svg version="1.1" id="Layer_1" xmlns="http://www.w3.org/2000/svg" xmlns:xlink="http://www.w3.org/1999/xlink" x="0px" y="0px"
	 viewBox="0 0 40 40" style="enable-background:new 0 0 40 40;" xml:space="preserve">
<style type="text/css">
	.st0{fill:#999;}
</style>
<path class="st0" d="M37.5,33.6l-9.9-9.9c1.5-2.2,2.2-4.8,2.2-7.5c0-3.6-1.4-7.1-4-9.7s-6.1-4-9.7-4S9,4,6.4,6.5
	c-2.6,2.6-4,6.1-4,9.7s1.5,7.1,4.1,9.7s6.1,4,9.7,4c2.7,0,5.4-0.8,7.6-2.3l9.9,9.8L37.5,33.6z M16.2,24.5c-2.2,0-4.3-0.9-5.9-2.4
	c-1.6-1.6-2.4-3.7-2.4-5.9s0.9-4.3,2.5-5.9C11.9,8.8,14,7.9,16.2,8l0,0c2.2,0,4.3,0.9,5.8,2.4c1.5,1.6,2.4,3.7,2.4,5.8
	c0,2.2-0.9,4.3-2.4,5.9S18.4,24.6,16.2,24.5z"/>
</svg>
