<?xml version="1.0" encoding="utf-8"?>
<!-- Generator: Adobe Illustrator 22.0.0, SVG Export Plug-In . SVG Version: 6.00 Build 0)  -->
<svg version="1.1" id="Layer_1" xmlns="http://www.w3.org/2000/svg" xmlns:xlink="http://www.w3.org/1999/xlink" x="0px" y="0px"
	 viewBox="0 0 14 14" style="enable-background:new 0 0 14 14;" xml:space="preserve">
<style type="text/css">
	.icon-cat-grey{fill:#333333;}
</style>
<path class="icon-cat-grey" d="M4.1,5.1c0.5,0,1-0.4,1-1s-0.4-0.9-1-0.9S3.3,3.6,3.3,4.2C3.3,4.7,3.7,5.1,4.1,5.1z M2.5,1.9l3.2-0.4
	c0.3,0,0.7,0.1,0.9,0.3l5.7,5.7c0.2,0.2,0.2,0.5-0.1,0.8l-4,4c-0.3,0.3-0.6,0.3-0.8,0.1L1.7,6.7C1.6,6.5,1.5,6.1,1.5,5.8l0.4-3.2
	C1.9,2.2,2.2,1.9,2.5,1.9z"/>
</svg>
