<?xml version="1.0" encoding="utf-8"?>
<!-- Generator: Adobe Illustrator 22.0.0, SVG Export Plug-In . SVG Version: 6.00 Build 0)  -->
<svg version="1.1" id="Layer_1" xmlns="http://www.w3.org/2000/svg" xmlns:xlink="http://www.w3.org/1999/xlink" x="0px" y="0px"
	 viewBox="0 0 20 20" style="enable-background:new 0 0 20 20;" xml:space="preserve">
<style type="text/css">
	.st0{fill:#E37333;}
</style>
<g>
	<path class="st0" d="M8,12V4.6h7.4L8,12z M15.4,3.1H8c-0.9,0-1.6,0.7-1.6,1.6V12c0,0.4,0.2,0.8,0.5,1.1s0.7,0.5,1.1,0.5h7.4
		c0.4,0,0.8-0.2,1.1-0.5S17,12.4,17,12V4.6C16.9,3.8,16.2,3.1,15.4,3.1z"/>
	<path class="st0" d="M4.6,16.9H12c0.4,0,0.8-0.2,1.1-0.5s0.5-0.7,0.5-1.1v-0.5c0-0.4-0.4-0.8-0.8-0.8c-0.4,0-0.8,0.4-0.8,0.8v0.5
		H4.6V8H5c0.4,0,0.8-0.4,0.8-0.8S5.4,6.4,5,6.4H4.6C3.8,6.4,3.1,7.1,3.1,8v7.4c0,0.4,0.2,0.8,0.5,1.1C3.8,16.8,4.2,16.9,4.6,16.9z"
		/>
</g>
</svg>
