<?xml version="1.0" encoding="utf-8"?>
<!-- Generator: Adobe Illustrator 22.0.0, SVG Export Plug-In . SVG Version: 6.00 Build 0)  -->
<svg version="1.1" id="Layer_1" xmlns="http://www.w3.org/2000/svg" xmlns:xlink="http://www.w3.org/1999/xlink" x="0px" y="0px"
	 viewBox="0 0 20 20" style="enable-background:new 0 0 20 20;" xml:space="preserve">
<style type="text/css">
	.st0{fill:#7A7A7A;}
</style>
<g>
	<path class="st0" d="M11.2,12.1H9c0-1.8,0.9-2.5,1.5-3c0.3-0.2,0.5-0.4,0.6-0.6C11.3,8,11.3,7.4,11,7c-0.2-0.3-0.4-0.4-0.7-0.4
		c-1.4,0-1.5,1.5-1.5,1.5H6.6c0-1.5,1.2-3.7,3.7-3.7c1.1,0,2,0.5,2.6,1.4c0.7,1.1,0.7,2.5,0.2,3.6c-0.3,0.6-0.8,1-1.1,1.3
		C11.4,11.1,11.2,11.3,11.2,12.1z"/>
	<circle class="st0" cx="10.1" cy="14.5" r="1.1"/>
</g>
</svg>
