<?xml version="1.0" encoding="utf-8"?>
<!-- Generator: Adobe Illustrator 22.0.0, SVG Export Plug-In . SVG Version: 6.00 Build 0)  -->
<svg version="1.1" id="Layer_1" xmlns="http://www.w3.org/2000/svg" xmlns:xlink="http://www.w3.org/1999/xlink" x="0px" y="0px"
	 viewBox="0 0 20 20" style="enable-background:new 0 0 20 20;" xml:space="preserve">
<style type="text/css">
	.st0{fill:#4D4D4D;}
</style>
<g>
	<polygon class="st0" points="15.4,5.6 10,5.6 8.4,4.1 3,4.1 3,7.2 15.4,7.2 	"/>
	<path class="st0" d="M15.4,8H3v8h12.4L17,8H15.4z M11.9,14.4H6.8v-0.5c0-0.3,0.2-0.5,0.4-0.6c0,0,1.2-0.3,1.4-0.6
		c0.1-0.2,0-0.4-0.1-0.5c0,0-0.1-0.1-0.1-0.2l0,0C8.2,11.7,8,11.3,8,10.7c0-0.8,0.6-1.4,1.3-1.4l0,0l0,0c0.7,0,1.3,0.6,1.3,1.4
		c0,0.5-0.2,1-0.4,1.3l0,0c0,0.1-0.1,0.1-0.1,0.2c-0.1,0.1-0.2,0.3-0.1,0.5c0.2,0.3,1.4,0.6,1.4,0.6c0.2,0.1,0.4,0.3,0.4,0.6v0.5
		H11.9z"/>
</g>
</svg>
