<?xml version="1.0" encoding="utf-8"?>
<!-- Generator: Adobe Illustrator 22.0.0, SVG Export Plug-In . SVG Version: 6.00 Build 0)  -->
<svg version="1.1" id="Layer_1" xmlns="http://www.w3.org/2000/svg" xmlns:xlink="http://www.w3.org/1999/xlink" x="0px" y="0px"
	 viewBox="0 0 20 20" style="enable-background:new 0 0 20 20;" xml:space="preserve">
<style type="text/css">
	.st0{fill:#F98443;}
	.st1{fill:#FFFFFF;}
</style>
<g>
	<circle class="st0" cx="10" cy="10" r="9.4"/>
	<g>
		<g>
			<path class="st1" d="M9.7,8.7c0,0.8-0.2,1.4-0.7,1.8c-0.5,0.4-1.2,0.6-2,0.6H6.3v2.5H4.8V6.5H7c0.9,0,1.5,0.2,2,0.6
				C9.5,7.4,9.7,8,9.7,8.7z M6.3,9.8h0.5c0.5,0,0.8-0.1,1-0.3s0.3-0.5,0.3-0.8c0-0.4-0.1-0.6-0.3-0.8C7.7,7.8,7.4,7.7,7,7.7H6.3V9.8
				z"/>
			<path class="st1" d="M15.5,13.6h-5v-1l1.8-1.8c0.5-0.5,0.9-0.9,1-1.1s0.3-0.4,0.4-0.6s0.1-0.4,0.1-0.6c0-0.3-0.1-0.5-0.2-0.6
				c-0.2-0.1-0.4-0.2-0.6-0.2c-0.3,0-0.5,0.1-0.8,0.2s-0.5,0.3-0.8,0.5l-0.8-1c0.4-0.3,0.6-0.5,0.9-0.6s0.5-0.2,0.8-0.3
				s0.6-0.1,0.9-0.1c0.4,0,0.8,0.1,1.2,0.2s0.6,0.4,0.8,0.7s0.3,0.6,0.3,1c0,0.3-0.1,0.6-0.2,0.9c-0.1,0.3-0.3,0.6-0.5,0.9
				c-0.2,0.3-0.7,0.7-1.3,1.3l-0.9,0.9v0.1h3.1V13.6z"/>
		</g>
	</g>
</g>
</svg>
