<?xml version="1.0" encoding="utf-8"?>
<!-- Generator: Adobe Illustrator 22.0.0, SVG Export Plug-In . SVG Version: 6.00 Build 0)  -->
<svg version="1.1" id="Layer_1" xmlns="http://www.w3.org/2000/svg" xmlns:xlink="http://www.w3.org/1999/xlink" x="0px" y="0px"
	 viewBox="0 0 20 20" style="enable-background:new 0 0 20 20;" xml:space="preserve">
<style type="text/css">
	.st0{fill:none;stroke:#000000;stroke-width:4.5454;stroke-miterlimit:10;}
	.st1{fill:#4D4E4E;}
</style>
<path class="st0" d="M27-15"/>
<g>
	<path class="st1" d="M10.6,2.6L10.6,2.6c-3.5,0-6.4,2.4-7.1,5.6H2l2.2,2.6l2.2-2.6h-1C6,6,8.1,4.4,10.6,4.4c3.1,0,5.6,2.5,5.6,5.6
		s-2.5,5.6-5.6,5.6c-2.1,0-3.9-1.1-4.9-2.8l-1.4,1c1.3,2.1,3.6,3.6,6.3,3.6c4,0,7.4-3.3,7.4-7.4S14.7,2.6,10.6,2.6z"/>
	<polygon class="st1" points="9.3,12.7 10.6,11.4 11.9,12.7 13.3,11.3 12,10 13.3,8.7 11.9,7.3 10.6,8.6 9.3,7.3 7.9,8.7 9.2,10 
		7.9,11.3 	"/>
</g>
</svg>
