<?xml version="1.0" encoding="utf-8"?>
<!-- Generator: Adobe Illustrator 22.0.0, SVG Export Plug-In . SVG Version: 6.00 Build 0)  -->
<svg version="1.1" id="Layer_1" xmlns="http://www.w3.org/2000/svg" xmlns:xlink="http://www.w3.org/1999/xlink" x="0px" y="0px"
	 viewBox="0 0 20 20" style="enable-background:new 0 0 20 20;" xml:space="preserve">
<style type="text/css">
	.st0{fill:#FFFFFF;}
</style>
<path class="st0" d="M16.1,1.6H3.9C3.4,1.6,3,2,3,2.5v14.9c0,0.5,0.4,0.9,0.9,0.9h12.1c0,0,0,0,0,0h0.4c0.3,0,0.5-0.2,0.5-0.5v-0.4
	c0-0.3-0.2-0.5-0.5-0.5h-0.3v0H4.9c-0.3,0-0.5-0.2-0.5-0.5v-1.3c0-0.3,0.2-0.5,0.5-0.5h11.7c0.3,0,0.5-0.2,0.5-0.5v-0.5v-0.7V2.5
	C17,2,16.6,1.6,16.1,1.6z M11.1,12.7c0,0.2-0.1,0.3-0.3,0.3H9.2c-0.2,0-0.3-0.1-0.3-0.3V7.2c0-0.2,0.1-0.3,0.3-0.3h1.6
	c0.2,0,0.3,0.1,0.3,0.3V12.7z M11.1,5.3c0,0.2-0.1,0.3-0.3,0.3H9.2c-0.2,0-0.3-0.1-0.3-0.3V3.8c0-0.2,0.1-0.3,0.3-0.3h1.6
	c0.2,0,0.3,0.1,0.3,0.3V5.3z"/>
</svg>
