<?xml version="1.0" encoding="utf-8"?>
<!-- Generator: Adobe Illustrator 22.0.0, SVG Export Plug-In . SVG Version: 6.00 Build 0)  -->
<svg version="1.1" id="Layer_1" xmlns="http://www.w3.org/2000/svg" xmlns:xlink="http://www.w3.org/1999/xlink" x="0px" y="0px"
	 viewBox="0 0 20 20" style="enable-background:new 0 0 20 20;" xml:space="preserve">
<style type="text/css">
	.st0{fill:#4D4E4E;}
</style>
<path class="st0" d="M15.2,16.1c-2.1,2.1-4.8,2.1-5,2.1h-5v-3.3H10c0,0,1.7,0,2.7-1c0.6-0.6,0.8-1.5,0.8-2.7c0-3.5-3.1-3.9-3.7-4.1
	H9.4v1.2c0,0.6-0.4,0.8-1,0.6L3.3,6c-0.4-0.2-0.4-0.8,0-1l5-2.9c0.4-0.2,1,0,1,0.6v1h0.8c2.3,0.2,6.8,1.9,6.8,7.3
	C17,13.2,16.4,14.9,15.2,16.1L15.2,16.1z"/>
</svg>
