<?xml version="1.0" encoding="utf-8"?>
<!-- Generator: Adobe Illustrator 22.0.0, SVG Export Plug-In . SVG Version: 6.00 Build 0)  -->
<svg version="1.1" id="Layer_1" xmlns="http://www.w3.org/2000/svg" xmlns:xlink="http://www.w3.org/1999/xlink" x="0px" y="0px"
	 viewBox="0 0 15 15" style="enable-background:new 0 0 15 15;" xml:space="preserve">
<style type="text/css">
	.st0{fill:#B2B2B2;}
	.st1{fill:#FFFFFF;}
</style>
<g>
	<g>
		<circle class="st0" cx="7.5" cy="7.5" r="7"/>
	</g>
</g>
<path class="st1" d="M10.3,10.2c-1,1-2.3,1-2.4,1H5.5V9.6h2.3c0,0,0.8,0,1.3-0.5c0.3-0.3,0.4-0.7,0.4-1.3c0-1.7-1.5-1.9-1.8-2H7.5
	v0.6c0,0.3-0.2,0.4-0.5,0.3L4.6,5.3c-0.2-0.1-0.2-0.4,0-0.5L7,3.4c0.2-0.1,0.5,0,0.5,0.3v0.5h0.4c1.1,0.1,3.3,0.9,3.3,3.5
	C11.2,8.8,10.9,9.6,10.3,10.2L10.3,10.2z"/>
</svg>
