<?xml version="1.0" encoding="utf-8"?>
<!-- Generator: Adobe Illustrator 22.0.0, SVG Export Plug-In . SVG Version: 6.00 Build 0)  -->
<svg version="1.1" id="Layer_1" xmlns="http://www.w3.org/2000/svg" xmlns:xlink="http://www.w3.org/1999/xlink" x="0px" y="0px"
	 viewBox="0 0 20 20" style="enable-background:new 0 0 20 20;" xml:space="preserve">
<style type="text/css">
	.st0{fill:#D7DADB;}
</style>
<path class="st0" d="M13.4,10.1c0,2.2-1.5,3.4-3.4,3.4S6.6,12,6.6,10.1C6.6,8,8.1,6.7,10,6.7S13.4,8,13.4,10.1z M17.5,9.5l-0.3-1.4
	l-2-0.4l-0.7-1l0.8-1.9l-1-1L12.4,5l-1.1-0.5l-0.7-2H9.3l-0.8,2L7.4,5.1L5.6,3.9l-1,1l0.8,1.9l-0.6,1l-2,0.4L2.5,9.6l1.8,1.1
	l0.3,1.2l-1.4,1.5l0.5,1.4l2-0.4l1,0.5v2l1.4,0.5L9.5,16h1.2l1.4,1.5l1.4-0.5v-2l1-0.8l2,0.4l0.7-1.2l-1.4-1.5l0.3-1.2L17.5,9.5z"/>
</svg>
