<?xml version="1.0" encoding="utf-8"?>
<!-- Generator: Adobe Illustrator 27.1.1, SVG Export Plug-In . SVG Version: 6.00 Build 0)  -->
<svg version="1.1" id="Layer_1" xmlns="http://www.w3.org/2000/svg" xmlns:xlink="http://www.w3.org/1999/xlink" x="0px" y="0px"
	 viewBox="0 0 22 22" style="enable-background:new 0 0 22 22;" xml:space="preserve">
<style type="text/css">
	.st0{fill:#FFFFFF;} /* Change fill color to white */
	.st1{fill:none;stroke:#FFFFFF;stroke-width:2;stroke-miterlimit:10;} /* Add white circle */
</style>
<g id="Group_294" transform="translate(0 0)">
	<g>
		<g id="Group_293">
			<circle class="st1" cx="10.5" cy="10.5" r="10"/> <!-- Circle added around the SVG content -->
			<path id="Path_98" class="st0" d="M7.4,10.8c0.1,0.2,0.2,0.4,0.2,0.6l5.8-7.8c-0.3-0.5-0.6-0.9-1-1.2c-0.9-0.7-2-0.9-3.1-0.7
				C7.8,1.9,6.6,3,6.2,4.4C6,5.5,6,6.5,6.3,7.5C6.6,8.6,7.1,9.7,7.4,10.8"/>
			<path id="Path_99" class="st0" d="M2.9,17.6l3.3-4.5c-0.3,0.1-0.5,0.2-0.8,0.3C4.8,13.6,4,13.8,3.3,14C2.8,14.1,2.4,14.5,2.2,15
				C2,15.9,1.9,16.8,2,17.6H2.9z"/>
			<path id="Path_100" class="st0" d="M16.7,14c-0.3-0.1-0.7-0.2-1-0.3c-0.8-0.2-1.6-0.4-2.4-0.7c-1-0.4-1.3-1-1-1.9l-4.9,6.5H18
				c-0.1-0.7-0.1-1.5-0.2-2.2C17.7,14.8,17.3,14.3,16.7,14"/>
			<path id="Path_101" class="st0" d="M15.4,2.7L3.7,18.3h1.9L17.3,2.7H15.4z"/>
		</g>
	</g>
</g>
</svg>
