<?xml version="1.0" encoding="utf-8"?>
<!-- Generator: Adobe Illustrator 24.0.2, SVG Export Plug-In . SVG Version: 6.00 Build 0)  -->
<svg version="1.1" id="Layer_1" xmlns="http://www.w3.org/2000/svg" xmlns:xlink="http://www.w3.org/1999/xlink" x="0px" y="0px"
	 viewBox="0 0 25 25" style="enable-background:new 0 0 25 25;" xml:space="preserve">
<style type="text/css">
	.st0{fill:#676868;}
</style>
<g id="Group_2" transform="translate(0)">
	<path id="Path_3" class="st0" d="M21.1,6.7l-4.2-4.2c-0.2-0.2-0.4-0.2-0.6-0.2H4.5C4.1,2.2,3.7,2.6,3.7,3V22c0,0.5,0.4,0.9,0.9,0.9
		h15.9c0.5,0,0.8-0.4,0.9-0.9V7.3C21.3,7,21.2,6.8,21.1,6.7z M16.2,8.1h3.4v13H5.4V3.9h10v3.4C15.4,7.7,15.7,8.1,16.2,8.1L16.2,8.1z
		"/>
	<path id="Path_4" class="st0" d="M12.5,7.1l-1.4,4.2H6.7l3.6,2.6l-1.4,4.2l3.6-2.6l3.6,2.6l-1.4-4.2l3.6-2.6h-4.4L12.5,7.1z"/>
</g>
</svg>
