<?xml version="1.0" encoding="utf-8"?>
<!-- Generator: Adobe Illustrator 22.0.0, SVG Export Plug-In . SVG Version: 6.00 Build 0)  -->
<svg version="1.1" id="Layer_1" xmlns="http://www.w3.org/2000/svg" xmlns:xlink="http://www.w3.org/1999/xlink" x="0px" y="0px"
	 viewBox="0 0 20 20" style="enable-background:new 0 0 20 20;" xml:space="preserve">
<style type="text/css">
	.st0{fill:#FFFFFF;}
</style>
<g>
	<path class="st0" d="M18.6,14.3l-1.2,1.3v-0.3l0,0v-3.7c0-0.3-0.3-0.6-0.6-0.6h-6.1V7.4H9.3v3.5H3.1c-0.3,0-0.6,0.3-0.6,0.6v3.7
		l0,0v0.2l-1.1-1.1l-1,0.9L3.2,18l2.6-2.7l-1-0.9l-1.2,1.2v-3.4h5.5v3.1h0.1v0.2l-1.1-1.1l-0.9,1l2.7,2.7l2.7-2.7l-0.9-0.9l-1.2,1.2
		v-3.4h5.5v3.1l0,0v0.2l-1.1-1.1l-1.1,1l2.7,2.7l2.6-2.7L18.6,14.3z"/>
	<rect x="6" y="2" class="st0" width="8.1" height="4.9"/>
</g>
</svg>
