<?xml version="1.0" encoding="utf-8"?>
<!-- Generator: Adobe Illustrator 22.0.0, SVG Export Plug-In . SVG Version: 6.00 Build 0)  -->
<svg version="1.1" id="Layer_1" xmlns="http://www.w3.org/2000/svg" xmlns:xlink="http://www.w3.org/1999/xlink" x="0px" y="0px"
	 viewBox="0 0 20 20" style="enable-background:new 0 0 20 20;" xml:space="preserve">
<style type="text/css">
	.st0{fill-rule:evenodd;clip-rule:evenodd;fill:#4D4D4D;}
</style>
<path class="st0" d="M10.8,10l1.8-1.8c0.2-0.2,0.2-0.6,0-0.8c-0.2-0.2-0.6-0.2-0.8,0L10,9.2L8.2,7.5C8,7.3,7.7,7.3,7.5,7.5
	C7.3,7.7,7.3,8,7.5,8.2L9.2,10l-1.8,1.8c-0.2,0.2-0.2,0.6,0,0.8c0.2,0.2,0.6,0.2,0.8,0l1.8-1.8l1.8,1.8c0.2,0.2,0.6,0.2,0.8,0
	c0.2-0.2,0.2-0.6,0-0.8L10.8,10z M10,16.1c-3.4,0-6.1-2.7-6.1-6.1S6.6,3.9,10,3.9s6.1,2.7,6.1,6.1S13.4,16.1,10,16.1z"/>
</svg>
