<?xml version="1.0" encoding="utf-8"?>
<!-- Generator: Adobe Illustrator 22.0.0, SVG Export Plug-In . SVG Version: 6.00 Build 0)  -->
<svg version="1.1" id="Layer_1" xmlns="http://www.w3.org/2000/svg" xmlns:xlink="http://www.w3.org/1999/xlink" x="0px" y="0px"
	 viewBox="0 0 14 14" style="enable-background:new 0 0 14 14;" xml:space="preserve">
<style type="text/css">
	.st0{fill:#717273;}
</style>
<g>
	<path id="Wikipedia_4_" class="st0" d="M13.7,2.3c0,0-2.1,0-2.8,0l-0.2,0v0.3c0,0,0.1,0.1,0.1,0.1c0,0,0.1,0,0.1,0l0.3,0
		c0.3,0,0.4,0.1,0.5,0.2c0.1,0.1,0.1,0.3,0,0.6L9.3,9.9l-0.1,0L7.6,6.3c0-0.1,0-0.1,0-0.1L9,3.6C9.1,3.4,9.3,3.1,9.3,3
		c0.1-0.2,0.2-0.3,0.6-0.3c0.1,0,0.1,0,0.1-0.1V2.3l0,0c0,0-1.5,0-2.2,0l0,0v0.3c0,0,0,0.1,0,0.1c0,0,0,0,0.1,0l0.1,0
		c0.3,0,0.4,0.1,0.5,0.1C8.4,3,8.5,3.1,8.3,3.5l-1,2.2l-0.9-2C6.1,3,6.1,2.8,6.5,2.7l0.1,0c0.1,0,0.1,0,0.1-0.1V2.3l0,0
		c0,0-1.6,0-2.4,0l0,0v0.3c0,0.1,0.1,0.1,0.2,0.1c0.4,0.1,0.4,0.1,0.8,1c0.1,0.1,0.2,0.5,0.2,0.5l0.9,2c0,0,0.1,0.3,0.3,0.7l-1.4,3
		l-0.1,0c0,0-2.1-4.9-2.7-6.5C2.5,3.2,2.5,3.1,2.5,3c0-0.2,0.1-0.3,0.4-0.3l0.4,0c0.1,0,0.2,0,0.2-0.1V2.3l-0.1,0c0,0-2.6,0-3.1,0
		l-0.1,0v0.3c0,0.1,0.1,0.1,0.2,0.1c0.3,0,0.5,0.1,0.6,0.2C1.2,3,1.3,3.2,1.4,3.6c0.8,2,2.4,5.6,3.2,7.6c0.2,0.6,0.5,0.6,0.9,0
		c0.4-0.7,1.1-2.3,1.6-3.5c0.5,1.2,1.2,2.8,1.5,3.5c0.3,0.6,0.5,0.6,0.8,0c0.8-1.9,3-7.6,3-7.6c0.1-0.3,0.2-0.5,0.4-0.7
		c0.2-0.2,0.4-0.2,0.8-0.3c0.1,0,0.1,0,0.1-0.1L13.7,2.3L13.7,2.3z"/>
</g>
</svg>
