<?xml version="1.0" encoding="utf-8"?>
<!-- Generator: Adobe Illustrator 22.0.0, SVG Export Plug-In . SVG Version: 6.00 Build 0)  -->
<svg version="1.1" id="Layer_1" xmlns="http://www.w3.org/2000/svg" xmlns:xlink="http://www.w3.org/1999/xlink" x="0px" y="0px"
	 viewBox="0 0 20 20" style="enable-background:new 0 0 20 20;" xml:space="preserve">
<style type="text/css">
	.st0{fill:#FFFFFF;}
</style>
<path class="st0" d="M1,5.6V3.8c0-0.2,0.2-0.4,0.4-0.4h1.8c0.2,0,0.4,0.2,0.4,0.4v1.8C3.7,5.8,3.5,6,3.2,6H1.4C1.2,6,1,5.8,1,5.6z
	 M1,16.2v-1.8C1,14.2,1.2,14,1.4,14h1.8c0.2,0,0.4,0.2,0.4,0.4v1.8c0,0.2-0.2,0.4-0.4,0.4H1.4C1.2,16.7,1,16.5,1,16.2z M1,10.9V9.1
	c0-0.2,0.2-0.4,0.4-0.4h1.8c0.2,0,0.4,0.2,0.4,0.4v1.8c0,0.2-0.2,0.4-0.4,0.4H1.4C1.2,11.3,1,11.1,1,10.9z M5.7,5.3V4
	c0-0.2,0.2-0.4,0.4-0.4h12.4C18.8,3.6,19,3.8,19,4v1.3c0,0.2-0.2,0.4-0.4,0.4H6.1C5.9,5.8,5.7,5.6,5.7,5.3z M5.7,16v-1.3
	c0-0.2,0.2-0.4,0.4-0.4h12.4c0.2,0,0.4,0.2,0.4,0.4V16c0,0.2-0.2,0.4-0.4,0.4H6.1C5.9,16.4,5.7,16.2,5.7,16z M5.7,10.7V9.3
	c0-0.2,0.2-0.4,0.4-0.4h12.4c0.2,0,0.4,0.2,0.4,0.4v1.3c0,0.2-0.2,0.4-0.4,0.4H6.1C5.9,11.1,5.7,10.9,5.7,10.7z"/>
</svg>
