<?xml version="1.0" encoding="utf-8"?>
<!-- Generator: Adobe Illustrator 22.0.0, SVG Export Plug-In . SVG Version: 6.00 Build 0)  -->
<svg version="1.1" id="Layer_1" xmlns="http://www.w3.org/2000/svg" xmlns:xlink="http://www.w3.org/1999/xlink" x="0px" y="0px"
	 viewBox="0 0 20 20" style="enable-background:new 0 0 20 20;" xml:space="preserve">
<style type="text/css">
	.st0{fill:#4D4D4D;}
</style>
<path class="st0" d="M19.3,9.2h-1.7c-0.4-3.6-3.2-6.5-6.8-6.8V0.7c0-0.1-0.1-0.2-0.2-0.2h-1c-0.1,0-0.2,0.1-0.2,0.2v1.7
	c-3.7,0.4-6.6,3.3-7,6.8H0.7c-0.1,0-0.2,0.1-0.2,0.2v1c0,0.1,0.1,0.2,0.2,0.2h1.7c0.4,3.6,3.2,6.5,6.8,6.8v1.7
	c0,0.1,0.1,0.2,0.2,0.2h1c0.1,0,0.2-0.1,0.2-0.2v-1.7c3.6-0.4,6.5-3.2,6.8-6.8h1.7c0.1,0,0.2-0.1,0.2-0.2v-1
	C19.5,9.4,19.4,9.2,19.3,9.2z M10.8,16.1v-3.8c0-0.1-0.1-0.2-0.2-0.2h-1c-0.1,0-0.2,0.1-0.2,0.2v3.8c-2.8-0.3-5-2.5-5.3-5.3h3.8
	c0.1,0,0.2-0.1,0.2-0.2v-1c0-0.1-0.1-0.2-0.2-0.2h-4c0.3-2.8,2.5-5,5.3-5.3v3.8c0,0,0.2,0.1,0.3,0.1h1c0.1,0,0.2-0.1,0.2-0.2V3.9
	c2.8,0.3,5,2.5,5.3,5.3h-3.8c-0.1,0-0.2,0.1-0.2,0.2v1c0,0.1,0.1,0.2,0.2,0.2H16C15.7,13.5,13.5,15.7,10.8,16.1z"/>
</svg>
