<?xml version="1.0" encoding="utf-8"?>
<!-- Generator: Adobe Illustrator 26.1.0, SVG Export Plug-In . SVG Version: 6.00 Build 0)  -->
<svg version="1.1" id="Layer_1" xmlns="http://www.w3.org/2000/svg" xmlns:xlink="http://www.w3.org/1999/xlink" x="0px" y="0px"
	 viewBox="0 0 20 20" style="enable-background:new 0 0 20 20;" xml:space="preserve">
<style type="text/css">
	.st0{fill:#4E4E4E;}
</style>
<g>
	<path id="Path_52" class="st0" d="M17.8,16.6L17.8,16.6l-3.3-3.3c0.1-0.2,0.3-0.3,0.4-0.5c1.6-2.4,1.5-5.5-0.2-7.9
		c-0.2-0.3-0.5-0.6-0.7-0.9c0,0,0,0,0,0c-1-1-2.3-1.7-3.7-1.9C9.5,2,8.8,2,8.1,2C7.8,2.1,7.4,2.2,7,2.3C6.7,2.4,6.3,2.5,6,2.7
		C5.3,3,4.7,3.4,4.2,3.9C2.6,5.3,1.8,7.4,2,9.6c0.1,1.5,0.7,2.9,1.7,4c1.9,2.2,4.9,3,7.6,2c0.4-0.1,0.7-0.3,1.1-0.5
		c0.3-0.2,0.6-0.4,0.9-0.6l0.8,0.8l2.1,2.1l0.5,0.5c0.3,0.3,0.8,0.3,1.2,0c0.2-0.2,0.2-0.4,0.2-0.6C18,17,17.9,16.8,17.8,16.6
		 M12.2,13.2c-0.4,0.3-0.8,0.5-1.2,0.7c-0.4,0.2-0.9,0.3-1.3,0.4c-0.5,0.1-1,0.1-1.4,0c-0.5-0.1-0.9-0.2-1.3-0.4
		c-0.4-0.2-0.8-0.4-1.2-0.7c-0.4-0.3-0.7-0.6-1-1c-0.3-0.4-0.5-0.8-0.7-1.2c-0.2-0.4-0.3-0.9-0.4-1.3c-0.1-0.5-0.1-1,0-1.4
		c0.1-0.5,0.2-0.9,0.4-1.3c0.2-0.4,0.4-0.8,0.7-1.2c0.3-0.4,0.6-0.7,1-1c0.4-0.3,0.8-0.5,1.2-0.7c0.4-0.2,0.9-0.3,1.3-0.4
		c0.5-0.1,1-0.1,1.4,0c0.5,0.1,0.9,0.2,1.3,0.4c0.4,0.2,0.8,0.4,1.2,0.7c0.2,0.1,0.3,0.3,0.5,0.5l0,0c0.2,0.2,0.3,0.3,0.5,0.5
		c0.3,0.4,0.5,0.8,0.7,1.2c0.2,0.4,0.3,0.9,0.4,1.3c0.1,0.5,0.1,1,0,1.4c-0.1,0.5-0.2,0.9-0.4,1.3c-0.2,0.4-0.4,0.8-0.7,1.2
		C12.9,12.6,12.6,12.9,12.2,13.2"/>
	<path id="Path_53" class="st0" d="M11.1,6c-0.1-0.2-0.2-0.3-0.4-0.4C10.5,5.3,10.2,5.1,9.8,5C9.5,4.9,9.2,4.8,8.9,4.8
		C8.5,4.9,8.1,5,7.7,5.2C6.9,5.6,6.4,6.5,6.4,7.4c0,0.2,0.1,0.4,0.2,0.6c0.3,0.3,0.8,0.3,1.2,0C7.9,7.8,8,7.6,8,7.4c0,0,0-0.1,0-0.1
		c0-0.1,0-0.2,0.1-0.2c0.1-0.2,0.2-0.3,0.3-0.4c0.1,0,0.1-0.1,0.2-0.1c0.1,0,0.2,0,0.2-0.1c0.1,0,0.2,0,0.3,0c0.2,0,0.3,0.1,0.4,0.2
		c0.1,0.1,0.1,0.1,0.2,0.2C9.8,7,9.9,7.1,9.9,7.3c0,0.1,0,0.2,0,0.3c0,0.1,0,0.2-0.1,0.2c0,0.1-0.1,0.1-0.1,0.2
		C9.7,8.1,9.6,8.1,9.6,8.2C9.5,8.2,9.4,8.3,9.3,8.3C9.2,8.3,9.1,8.4,9,8.4C8.6,8.7,8.3,9.1,8.2,9.5c-0.1,0.3-0.1,0.6-0.1,0.8
		c0,0.2,0.1,0.4,0.2,0.6c0.3,0.3,0.8,0.3,1.2,0c0.1-0.2,0.2-0.4,0.2-0.6c0-0.1,0-0.3,0-0.4c0,0,0,0,0,0l0,0l0,0c0,0,0.1,0,0.1-0.1
		c0.1,0,0.2-0.1,0.3-0.2c0.2-0.1,0.3-0.2,0.5-0.3c0.2-0.2,0.4-0.5,0.5-0.8c0.2-0.4,0.3-0.8,0.3-1.1c0-0.4-0.1-0.7-0.3-1.1
		C11.3,6.2,11.2,6.1,11.1,6"/>
	<path id="Path_54" class="st0" d="M9,11.4c-0.2,0-0.4,0.1-0.6,0.2c-0.3,0.3-0.3,0.8,0,1.2C8.5,13,8.7,13.1,9,13.1
		c0.2,0,0.4-0.1,0.6-0.2c0.3-0.3,0.3-0.8,0-1.2C9.4,11.5,9.2,11.4,9,11.4"/>
</g>
</svg>
