<?xml version="1.0" encoding="utf-8"?>
<!-- Generator: Adobe Illustrator 22.0.0, SVG Export Plug-In . SVG Version: 6.00 Build 0)  -->
<svg version="1.1" id="Layer_1" xmlns="http://www.w3.org/2000/svg" xmlns:xlink="http://www.w3.org/1999/xlink" x="0px" y="0px"
	 viewBox="0 0 20 20" style="enable-background:new 0 0 20 20;" xml:space="preserve">
<style type="text/css">
	.st0{fill-rule:evenodd;clip-rule:evenodd;fill:#E37333;}
</style>
<path class="st0" d="M12.5,7.1c-0.2,0.4,0,0.6,0.4,0.4l3.5-1.5c0.6-0.2,1.2,0,1.4,0.6l0.1,0.1c0.2,0.6,0,1.2-0.6,1.4l-3.5,1.5
	c-0.4,0.2-0.4,0.5,0,0.6l3.5,1.5c0.6,0.2,0.8,0.9,0.6,1.4l-0.1,0.1c-0.2,0.6-0.9,0.8-1.4,0.6l-3.5-1.5c-0.4-0.2-0.6,0-0.4,0.4
	l1.5,3.5c0.2,0.6,0,1.2-0.6,1.4l-0.1,0.1c-0.6,0.2-1.2,0-1.4-0.6l-1.5-3.5c-0.2-0.4-0.5-0.4-0.6,0l-1.5,3.5
	c-0.2,0.6-0.9,0.8-1.4,0.6l-0.1-0.1c-0.6-0.2-0.8-0.9-0.6-1.4l1.5-3.5c0.2-0.4,0-0.6-0.4-0.4l-3.5,1.5c-0.6,0.2-1.2,0-1.4-0.6
	l-0.1-0.1c-0.2-0.6,0-1.2,0.6-1.4l3.5-1.5c0.4-0.2,0.4-0.5,0-0.6L2.7,8.2C2.1,8,1.9,7.4,2.1,6.8l0.1-0.1C2.4,6.1,3,5.8,3.6,6.1
	l3.5,1.5c0.4,0.2,0.6,0,0.4-0.4L6.1,3.6C5.8,3,6.1,2.4,6.7,2.1l0.1-0.1c0.6-0.2,1.2,0,1.4,0.6l1.5,3.5c0.2,0.4,0.5,0.4,0.6,0
	l1.5-3.5c0.2-0.6,0.9-0.8,1.4-0.6l0.1,0.1c0.6,0.2,0.8,0.9,0.6,1.4L12.5,7.1z"/>
</svg>
