<?xml version="1.0" encoding="utf-8"?>
<!-- Generator: Adobe Illustrator 22.0.0, SVG Export Plug-In . SVG Version: 6.00 Build 0)  -->
<svg version="1.1" id="Layer_1" xmlns="http://www.w3.org/2000/svg" xmlns:xlink="http://www.w3.org/1999/xlink" x="0px" y="0px"
	 viewBox="0 0 20 20" style="enable-background:new 0 0 20 20;" xml:space="preserve">
<style type="text/css">
	.st0{fill:#FFFFFF;}
</style>
<path class="st0" d="M15.9,14c-0.1,0-3.3-0.9-3.8-1.8c-0.2-0.4,0-1,0.2-1.3c0.1-0.1,0.2-0.3,0.3-0.4c0.6-0.9,1-2.1,1-3.5
	C13.7,4.8,12,3,10,3S6.3,4.8,6.4,6.9c0,1.4,0.5,2.6,1,3.5c0.1,0.1,0.2,0.3,0.3,0.4c0.2,0.4,0.4,0.9,0.2,1.3c-0.5,1-3.7,1.9-3.8,1.9
	C3.5,14.2,3,14.8,3,15.5V17h14v-1.5C17,14.8,16.5,14.2,15.9,14z M10.5,13.6c-0.1,0.1-0.3,0.2-0.6,0.2s-0.5-0.1-0.6-0.2
	s-0.2-0.3-0.2-0.5c0-0.2,0.1-0.4,0.2-0.6c0.1-0.1,0.3-0.2,0.6-0.2c0.2,0,0.4,0.1,0.6,0.2s0.2,0.3,0.2,0.6
	C10.7,13.3,10.6,13.5,10.5,13.6z M10.9,10c-0.3,0.3-0.4,0.7-0.4,1.3H9.2c0-0.5,0.1-0.9,0.2-1.2c0.1-0.3,0.4-0.6,0.8-1
	c0.4-0.4,0.6-0.6,0.7-0.8C11,8,11.1,7.7,11.1,7.4c0-0.4-0.1-0.6-0.3-0.8S10.4,6.3,10,6.3c-0.3,0-0.6,0.1-0.8,0.3S8.9,7,8.9,7.3H7.5
	c0-0.7,0.2-1.2,0.7-1.6S9.3,5.1,10,5.1c0.8,0,1.4,0.2,1.8,0.6s0.7,1,0.7,1.7c0,0.6-0.3,1.3-0.9,1.9L10.9,10z"/>
</svg>
