<?xml version="1.0" encoding="utf-8"?>
<!-- Generator: Adobe Illustrator 22.0.0, SVG Export Plug-In . SVG Version: 6.00 Build 0)  -->
<svg version="1.1" id="Layer_1" xmlns="http://www.w3.org/2000/svg" xmlns:xlink="http://www.w3.org/1999/xlink" x="0px" y="0px"
	 viewBox="0 0 20 20" style="enable-background:new 0 0 20 20;" xml:space="preserve">
<style type="text/css">
	.st0{fill:#FFFFFF;}
</style>
<g>
	<path class="st0" d="M6.6,12.3L6.6,12.3c0.4-0.1,0.8-0.2,1-0.3l-0.1-0.1v0c-0.2-0.5-0.4-1-0.5-1.6C6.8,10.1,6.6,10,6.5,9.9
		c-0.1-0.2,0-0.5,0.1-0.7C6.7,9.1,6.8,9,6.8,9c0,0,0,0,0,0c0.3-0.5,0.5-1.1,0.5-1.9C7.4,5.9,6.5,5,5.4,5h0c0,0,0,0,0,0
		c-1.1,0-2,0.9-1.9,2.1C3.5,7.9,3.8,8.5,4,9c0,0,0,0,0,0c0,0.1,0.1,0.2,0.2,0.2c0.1,0.2,0.2,0.5,0.1,0.7c-0.2,0.5-2,0.9-2,0.9
		C2,11,1.7,11.3,1.7,11.7v0.8l4.6,0C6.3,12.4,6.4,12.4,6.6,12.3L6.6,12.3z"/>
	<path class="st0" d="M17.7,10.8c0,0-1.8-0.5-2-0.9c-0.1-0.2,0-0.5,0.1-0.7C15.9,9.1,15.9,9,16,9c0,0,0,0,0,0
		c0.3-0.5,0.5-1.1,0.5-1.9c0-1.2-0.9-2.1-1.9-2.1c0,0,0,0,0,0s0,0,0,0c-1.1,0-2,0.9-1.9,2.1c0,0.8,0.2,1.4,0.5,1.9c0,0,0,0,0,0
		c0,0.1,0.1,0.2,0.2,0.2c0.1,0.2,0.2,0.5,0.1,0.7c-0.1,0.1-0.2,0.3-0.5,0.4c-0.1,0.6-0.3,1.2-0.6,1.7c0.2,0.1,0.6,0.2,1,0.3
		c0.1,0,0.1,0,0.1,0c0.1,0,0.2,0.1,0.2,0.1l4.6,0v-0.8C18.3,11.3,18,11,17.7,10.8z"/>
	<path class="st0" d="M13.1,13.4c0,0-1.8-0.5-2-0.9c0,0,0,0,0,0h0c-0.1-0.2,0-0.5,0.1-0.7c0.1-0.1,0.1-0.1,0.2-0.2c0,0,0,0,0,0
		c0.1-0.2,0.3-0.5,0.3-0.8c0,0,0,0,0,0v0c0.1-0.3,0.2-0.7,0.2-1.1c0-1.2-0.9-2.1-1.9-2.1c0,0,0,0,0,0s0,0,0,0c-1.1,0-2,0.9-1.9,2.1
		c0,0.4,0.1,0.8,0.2,1.1l0,0c0,0,0,0,0,0c0.1,0.3,0.2,0.5,0.4,0.8c0,0,0,0,0,0c0,0.1,0.1,0.2,0.2,0.2c0.1,0.2,0.2,0.5,0.1,0.7
		c0,0,0,0,0,0c-0.2,0.5-2,0.9-2,0.9c-0.3,0.1-0.6,0.4-0.6,0.8V15l7.4,0v-0.8C13.7,13.8,13.5,13.5,13.1,13.4z"/>
</g>
</svg>
