<?xml version="1.0" encoding="utf-8"?>
<!-- Generator: Adobe Illustrator 26.5.0, SVG Export Plug-In . SVG Version: 6.00 Build 0)  -->
<svg version="1.1" id="Layer_1" xmlns="http://www.w3.org/2000/svg" xmlns:xlink="http://www.w3.org/1999/xlink" x="0px" y="0px"
	 viewBox="0 0 20 20" style="enable-background:new 0 0 20 20;" xml:space="preserve">
<style type="text/css">
	.st0{fill:#FFFFFF;}
</style>
<path class="st0" d="M9.4,6.3L4.8,7.8V6.7l4.6-1.8L9.4,6.3L9.4,6.3z M9.4,9l-4.6,1.1V9l4.6-1.3V9z M9.4,11.8l-4.6,0.6v-1.1l4.6-0.8
	V11.8z M9.4,14.6l-4.6,0.1v-1.2l4.6-0.4V14.6z M16.2,5l-0.5-0.2l-1.2-0.5l-1.5-0.6l-1.3-0.5l-1.1-0.4l0,0c-0.2-0.1-0.5-0.1-0.7,0
	L4,5C3.7,5.1,3.5,5.4,3.5,5.8v9.9H2.9c-0.2,0-0.5,0-0.6,0.2C2.1,16,2,16.3,2,16.5c0,0.2,0.1,0.5,0.3,0.6c0.2,0.2,0.4,0.2,0.6,0.2
	h14.4c0.4,0,0.7-0.4,0.7-0.8c0-0.4-0.3-0.8-0.7-0.8h-0.6V5.8C16.7,5.4,16.5,5.1,16.2,5L16.2,5z"/>
</svg>
