<?xml version="1.0" encoding="utf-8"?>
<!-- Generator: Adobe Illustrator 22.0.0, SVG Export Plug-In . SVG Version: 6.00 Build 0)  -->
<svg version="1.1" id="Layer_1" xmlns="http://www.w3.org/2000/svg" xmlns:xlink="http://www.w3.org/1999/xlink" x="0px" y="0px"
	 viewBox="0 0 20 20" style="enable-background:new 0 0 20 20;" xml:space="preserve">
<style type="text/css">
	.st0{fill:#5FB766;}
	.st1{fill:#FFFFFF;}
</style>
<g>
	<circle class="st0" cx="10" cy="10" r="9.4"/>
	<g>
		<g>
			<path class="st1" d="M9.7,8.7c0,0.8-0.2,1.4-0.7,1.8c-0.5,0.4-1.2,0.6-2,0.6H6.3v2.5H4.8V6.5H7c0.9,0,1.5,0.2,2,0.6
				C9.5,7.4,9.7,8,9.7,8.7z M6.3,9.8h0.5c0.5,0,0.8-0.1,1-0.3c0.2-0.2,0.3-0.5,0.3-0.8c0-0.4-0.1-0.6-0.3-0.8C7.7,7.8,7.4,7.7,7,7.7
				H6.3V9.8z"/>
			<path class="st1" d="M13.1,9c0.7,0,1.2,0.2,1.6,0.6c0.4,0.4,0.6,0.9,0.6,1.6c0,0.8-0.2,1.4-0.7,1.8s-1.2,0.6-2.1,0.6
				c-0.8,0-1.4-0.1-1.9-0.4V12c0.3,0.1,0.6,0.2,0.9,0.3s0.7,0.1,1,0.1c0.9,0,1.4-0.4,1.4-1.1c0-0.7-0.5-1.1-1.4-1.1
				c-0.2,0-0.4,0-0.6,0.1s-0.4,0.1-0.5,0.1l-0.6-0.3L11,6.5h3.9v1.3h-2.5l-0.1,1.4l0.2,0C12.6,9.1,12.9,9,13.1,9z"/>
		</g>
	</g>
</g>
</svg>
