<?xml version="1.0" encoding="utf-8"?>
<!-- Generator: Adobe Illustrator 22.0.0, SVG Export Plug-In . SVG Version: 6.00 Build 0)  -->
<svg version="1.1" id="Layer_1" xmlns="http://www.w3.org/2000/svg" xmlns:xlink="http://www.w3.org/1999/xlink" x="0px" y="0px"
	 viewBox="0 0 20 20" style="enable-background:new 0 0 20 20;" xml:space="preserve">
<style type="text/css">
	.st0{fill:#4D4E4E;}
</style>
<g>
	<path class="st0" d="M3,11.6v4.5c0,0.3,0.2,0.5,0.5,0.5h13c0.3,0,0.5-0.2,0.5-0.5v-4.5c0-0.3-0.2-0.5-0.5-0.5h-13
		C3.2,11.1,3,11.4,3,11.6z"/>
	<path class="st0" d="M3,4.3v4.5C3,9,3.2,9.2,3.5,9.2h13C16.8,9.2,17,9,17,8.7V4.3c0-0.3-0.2-0.5-0.5-0.5h-13C3.2,3.8,3,4,3,4.3z"/>
</g>
</svg>
