<?xml version="1.0" encoding="utf-8"?>
<!-- Generator: Adobe Illustrator 22.0.0, SVG Export Plug-In . SVG Version: 6.00 Build 0)  -->
<svg version="1.1" id="Layer_1" xmlns="http://www.w3.org/2000/svg" xmlns:xlink="http://www.w3.org/1999/xlink" x="0px" y="0px"
	 viewBox="0 0 20 20" style="enable-background:new 0 0 20 20;" xml:space="preserve">
<style type="text/css">
	.st0{fill:#4D4D4D;}
</style>
<path class="st0" d="M18.6,8.2h-0.8c-0.2,0-0.4-0.1-0.4-0.3c-0.1-0.6-0.4-1.1-0.7-1.6c-0.1-0.2-0.1-0.4,0-0.5l0.5-0.5
	c0.2-0.2,0.2-0.5,0-0.6l-1.9-1.9c-0.1-0.1-0.2-0.1-0.3-0.1c-0.1,0-0.2,0-0.3,0.1l-0.5,0.5c-0.1,0.1-0.2,0.1-0.3,0.1
	c-0.1,0-0.1,0-0.2,0c-0.5-0.3-1-0.5-1.6-0.7c-0.2,0-0.3-0.2-0.3-0.4V1.5c0-0.2-0.2-0.4-0.4-0.4H8.6c-0.2,0-0.4,0.2-0.4,0.4v0.8
	c0,0.2-0.1,0.4-0.3,0.4C7.3,2.9,6.8,3.1,6.2,3.4c-0.1,0-0.1,0-0.2,0s-0.2,0-0.3-0.1L5.2,2.8C5.1,2.7,5,2.6,4.9,2.6
	c-0.1,0-0.2,0-0.3,0.1L2.7,4.6C2.5,4.8,2.5,5,2.7,5.2l0.6,0.5c0.1,0.1,0.1,0.4,0,0.5C3,6.8,2.8,7.3,2.6,7.9c0,0.2-0.2,0.3-0.4,0.3
	H1.4C1.2,8.2,1,8.4,1,8.7v2.7c0,0.2,0.2,0.4,0.4,0.4h0.8c0.2,0,0.4,0.1,0.4,0.3c0.1,0.6,0.4,1.1,0.7,1.6c0.1,0.2,0.1,0.4,0,0.5
	l-0.6,0.5c-0.2,0.2-0.2,0.4,0,0.6l1.9,1.9c0.1,0.1,0.2,0.1,0.3,0.1c0.1,0,0.2,0,0.3-0.1l0.5-0.5c0.1-0.1,0.2-0.1,0.3-0.1
	s0.1,0,0.2,0c0.5,0.3,1,0.5,1.6,0.7c0.2,0,0.3,0.2,0.3,0.4v0.8c0,0.2,0.2,0.4,0.4,0.4h2.7c0.2,0,0.4-0.2,0.4-0.4v-0.8
	c0-0.2,0.1-0.4,0.3-0.4c0.6-0.1,1.1-0.4,1.6-0.7c0,0,0.1,0,0.2,0s0.2,0,0.3,0.1l0.5,0.5c0.1,0.1,0.2,0.1,0.3,0.1
	c0.1,0,0.2,0,0.3-0.1l1.9-1.9c0.2-0.2,0.2-0.4,0-0.6l-0.5-0.5c-0.1-0.1-0.2-0.4,0-0.5c0.3-0.5,0.5-1,0.7-1.6c0-0.2,0.2-0.3,0.4-0.3
	h0.8c0.2,0,0.4-0.2,0.4-0.4V8.7C19,8.4,18.8,8.2,18.6,8.2z M4.4,11.9c-0.1-0.4-0.2-0.8-0.3-1.3c0.3-0.1,1.3-0.4,1.5-0.7
	c0.1-0.2,0-0.4-0.1-0.6c0-0.1-0.1-0.1-0.1-0.2c0,0,0,0,0,0C5.1,8.8,4.9,8.3,4.9,7.7c0-0.9,0.7-1.6,1.5-1.6c0,0,0,0,0,0h0
	c0.8,0,1.5,0.7,1.5,1.6c0,0.6-0.2,1.1-0.4,1.5c0,0,0,0,0,0c0,0.1-0.1,0.1-0.1,0.2C7.3,9.5,7.2,9.7,7.3,9.9c0.1,0.1,0.2,0.2,0.3,0.3
	c0.1,0.4,0.2,0.8,0.4,1.2v0l0.1,0.1c-0.2,0.1-0.4,0.2-0.8,0.3l0,0l0,0c-0.1,0-0.1,0-0.2,0.1L4.4,11.9z M12.9,13.9H7.1v-0.6
	c0-0.3,0.2-0.5,0.5-0.6c0,0,1.4-0.4,1.6-0.7c0,0,0,0,0,0c0.1-0.2,0-0.4-0.1-0.5c0-0.1-0.1-0.1-0.1-0.2c0,0,0,0,0,0
	c-0.1-0.2-0.2-0.4-0.3-0.6c0,0,0,0,0,0c-0.1-0.3-0.1-0.5-0.1-0.9c0-0.9,0.7-1.6,1.5-1.6c0,0,0,0,0,0s0,0,0,0c0.8,0,1.5,0.7,1.5,1.6
	c0,0.3-0.1,0.6-0.1,0.9c0,0,0,0,0,0c-0.1,0.2-0.2,0.4-0.3,0.6c0,0,0,0,0,0c0,0.1-0.1,0.1-0.1,0.2c-0.1,0.1-0.2,0.4-0.1,0.5l0,0
	c0,0,0,0,0,0c0.2,0.4,1.6,0.7,1.6,0.7c0.3,0.1,0.5,0.3,0.5,0.6V13.9z M15.6,11.9l-2.7,0c-0.1,0-0.1-0.1-0.2-0.1c0,0,0,0-0.1,0
	c-0.3-0.1-0.6-0.2-0.8-0.3c0.2-0.4,0.4-0.9,0.5-1.3c0.2-0.1,0.3-0.2,0.4-0.3c0.1-0.2,0-0.4-0.1-0.6c0-0.1-0.1-0.1-0.1-0.2
	c0,0,0,0,0,0c-0.2-0.4-0.4-0.9-0.4-1.5c0-0.9,0.7-1.6,1.5-1.6c0,0,0,0,0,0s0,0,0,0c0.8,0,1.5,0.7,1.5,1.6c0,0.6-0.2,1.1-0.4,1.5
	c0,0.1-0.1,0.1-0.1,0.2c-0.1,0.2-0.2,0.4-0.1,0.6c0.2,0.3,1.1,0.6,1.5,0.7C15.9,11.1,15.8,11.5,15.6,11.9z"/>
</svg>
