<?xml version="1.0" encoding="utf-8"?>
<!-- Generator: Adobe Illustrator 22.0.0, SVG Export Plug-In . SVG Version: 6.00 Build 0)  -->
<svg version="1.1" id="Layer_1" xmlns="http://www.w3.org/2000/svg" xmlns:xlink="http://www.w3.org/1999/xlink" x="0px" y="0px"
	 viewBox="0 0 20 20" style="enable-background:new 0 0 20 20;" xml:space="preserve">
<style type="text/css">
	.st0{fill:#4D4D4D;}
</style>
<g>
	<path class="st0" d="M6.5,11.8l-2.7,2.7c-0.4,0.4-0.4,1.1,0,1.5l0.6,0.6C4.9,17,5.6,17,6,16.6l2.7-2.7C8.9,13.7,9,13.4,9,13.1
		l-1.6-1.6C7.1,11.5,6.8,11.6,6.5,11.8z"/>
	<polygon class="st0" points="15.1,5.8 16.4,5.4 17,3.8 16.3,3.1 14.7,3.6 14,4.9 11.2,7.7 12.5,9 	"/>
	<path class="st0" d="M9.7,8.1c0.5-1.3,0.2-2.7-0.8-3.7c-0.7-0.7-1.5-1-2.4-1c-0.4,0-0.8,0.1-1.1,0.2l-0.2,0l1.7,1.7L6.6,6.7
		L4.9,7.3L3.2,5.6v0.1C2.8,7,3.1,8.4,4,9.3c0.7,0.7,1.5,1,2.4,1c0.5,0,0.9-0.1,1.3-0.3l6.4,6.2c0.2,0.2,0.5,0.3,0.8,0.3
		s0.6-0.1,0.8-0.3l0.3-0.3c0.2-0.2,0.3-0.5,0.3-0.8s-0.1-0.6-0.3-0.8L9.7,8.1z"/>
</g>
</svg>
