<?xml version="1.0" encoding="utf-8"?>
<!-- Generator: Adobe Illustrator 22.0.0, SVG Export Plug-In . SVG Version: 6.00 Build 0)  -->
<svg version="1.1" id="Layer_1" xmlns="http://www.w3.org/2000/svg" xmlns:xlink="http://www.w3.org/1999/xlink" x="0px" y="0px"
	 viewBox="0 0 20 20" style="enable-background:new 0 0 20 20;" xml:space="preserve">
<style type="text/css">
	.st0{fill:#4D4E4E;}
</style>
<path class="st0" d="M11,11.2H9V4.9h2V11.2z M11,14H9v-1.5h2V14z M19,8.5l-2.4-1.7l0.3-2.9l-2.9-0.2l-1.4-2.6L10,2.5L7.4,1.1
	L6.1,3.7L3.1,3.9l0.3,2.9L1,8.5l1.8,2.3l-1.1,2.7l2.8,1l0.6,2.9L8,16.8l2,2.1l2.1-2.1l2.9,0.7l0.6-2.9l2.8-1l-1.1-2.7L19,8.5z"/>
</svg>
