<?xml version="1.0" encoding="utf-8"?>
<!-- Generator: Adobe Illustrator 22.0.0, SVG Export Plug-In . SVG Version: 6.00 Build 0)  -->
<svg version="1.1" id="Layer_1" xmlns="http://www.w3.org/2000/svg" xmlns:xlink="http://www.w3.org/1999/xlink" x="0px" y="0px"
	 viewBox="0 0 20 20" style="enable-background:new 0 0 20 20;" xml:space="preserve">
<style type="text/css">
	.st0{fill:#FFFFFF;}
</style>
<g>
	<path class="st0" d="M17.2,14.7c0.3-0.3,0.4-0.7,0.6-1.1v0l-1.3-1.3l0-0.1c0-0.1,0.1-0.3,0.1-0.4c0.1-0.3,0.2-0.5,0.2-0.7v-0.2
		l1.9-0.4V9.3l-1.8-0.4l0-0.1c0-0.2-0.1-0.3-0.1-0.5c0-0.1-0.1-0.2-0.1-0.3c-0.4,0.1-0.8,0.1-1.2,0.1l-0.8,0.8
		c0.3,1.2,0.1,2.4-0.5,3.4c-0.1,0.1-0.1,0.2-0.1,0.2c-0.2,0.3-0.4,0.6-0.6,0.8c-1.1,1.1-2.8,1.5-4.4,1.2l-1,1c0.1,0.3,0,0.7-0.1,1.1
		c0.3,0.1,0.6,0.2,1,0.3l0.1,0l0.4,1.9h1.1l0.4-1.9l1.5-0.4l1.3,1.3c0.3-0.2,0.7-0.3,1-0.6l-0.5-1.9l1.1-1.1L17.2,14.7
		C17.2,14.7,17.2,14.7,17.2,14.7z"/>
	<path class="st0" d="M15.2,6.7c0.9,0.3,1.9,0,2.6-0.6c0.8-0.7,1-1.8,0.6-2.9l-1.7,2.3l-2-1.4V3.7L16,1.6c-0.7-0.1-1.4,0.2-2,0.7
		c-0.7,0.8-0.9,1.7-0.6,2.6l0,0.1l-8.4,8.5l-0.1,0c-0.9-0.3-1.9,0-2.6,0.6c-0.8,0.7-1,1.8-0.6,2.9l1.6-2.3l2,1.4v0.3L4,18.6
		c0.7,0.1,1.4-0.2,2-0.7c0.7-0.8,0.9-1.7,0.6-2.6l0-0.1L15,6.6L15.2,6.7z"/>
	<path class="st0" d="M18.8,10.4L18.8,10.4C18.8,10.4,18.8,10.4,18.8,10.4C18.8,10.4,18.8,10.4,18.8,10.4z"/>
	<path class="st0" d="M2.4,5.6L2.1,6.2l1.3,1.3l0,0.1C3.3,8,3.2,8.4,3.1,8.8l0,0.2L1.2,9.4v1.1l1.9,0.6l0.3,1.2
		c0.4-0.1,0.7-0.1,1-0.1l0.9-0.9c-0.4-1.2-0.2-2.5,0.5-3.6c0-0.1,0.1-0.1,0.1-0.2C6.1,7.3,6.3,7,6.6,6.8C7.8,5.5,9.6,5,11.2,5.5
		L12,4.7c-0.1-0.4,0-0.9,0.1-1.3c-0.3-0.1-0.6-0.2-1-0.3l-0.2,0l-0.4-1.9H9.4L8.9,3.1L7.4,3.5L6.2,2.1C5.8,2.3,5.4,2.5,5.1,2.8
		l0.5,1.9l-1,1L2.7,5.2C2.6,5.3,2.5,5.5,2.4,5.6z"/>
</g>
</svg>
