<?xml version="1.0" encoding="utf-8"?>
<!-- Generator: Adobe Illustrator 22.0.0, SVG Export Plug-In . SVG Version: 6.00 Build 0)  -->
<svg version="1.1" id="Layer_1" xmlns="http://www.w3.org/2000/svg" xmlns:xlink="http://www.w3.org/1999/xlink" x="0px" y="0px"
	 viewBox="0 0 20 20" style="enable-background:new 0 0 20 20;" xml:space="preserve">
<style type="text/css">
	.st0{fill:#4D4E4E;}
</style>
<g>
	<path class="st0" d="M16.4,16.4H3.6V3.6h12.8V16.4z M17.2,2.1H2.8C2.3,2.1,2,2.4,2,2.9v14.3C2,17.7,2.4,18,2.8,18h14.3
		c0.5,0,0.8-0.4,0.8-0.8V2.8C18,2.4,17.6,2.1,17.2,2.1z"/>
	<path class="st0" d="M7.6,10.8h1.5v1.5c0,0.5,0.4,0.8,0.8,0.8s0.8-0.4,0.8-0.8v-1.5h1.5c0.5,0,0.8-0.4,0.8-0.8s-0.5-0.8-0.8-0.8
		h-1.5V7.6c0-0.5-0.4-0.8-0.8-0.8S9.2,7.3,9.2,7.6v1.5H7.6c-0.5,0-0.8,0.4-0.8,0.8S7.3,10.8,7.6,10.8z"/>
</g>
</svg>
