<?xml version="1.0" encoding="utf-8"?>
<!-- Generator: Adobe Illustrator 22.0.0, SVG Export Plug-In . SVG Version: 6.00 Build 0)  -->
<svg version="1.1" id="Layer_1" xmlns="http://www.w3.org/2000/svg" xmlns:xlink="http://www.w3.org/1999/xlink" x="0px" y="0px"
	 viewBox="0 0 20 20" style="enable-background:new 0 0 20 20;" xml:space="preserve">
<style type="text/css">
	.st0{fill:#4D4D4D;}
</style>
<path class="st0" d="M13.8,7.1H6.2C6,7.1,5.8,6.9,5.8,6.6c0-0.2,0.2-0.4,0.4-0.4h7.6c0.2,0,0.4,0.2,0.4,0.4
	C14.2,6.9,14,7.1,13.8,7.1z M13.8,9.6H6.2C6,9.6,5.8,9.4,5.8,9.2S6,8.8,6.2,8.8h7.6c0.2,0,0.4,0.2,0.4,0.4S14,9.6,13.8,9.6z
	 M13.8,12.1H6.2c-0.2,0-0.4-0.2-0.4-0.4s0.2-0.4,0.4-0.4h7.6c0.2,0,0.4,0.2,0.4,0.4C14.2,11.9,14,12.1,13.8,12.1z M13.8,14.6H6.2
	c-0.2,0-0.4-0.2-0.4-0.4s0.2-0.4,0.4-0.4h7.6c0.2,0,0.4,0.2,0.4,0.4C14.2,14.4,14,14.6,13.8,14.6z M16.3,2.8h-2.1v1.3
	c0,0.2-0.2,0.4-0.4,0.4s-0.4-0.2-0.4-0.4V2.4C13.4,2.2,13.2,2,13,2s-0.4,0.2-0.4,0.4v0.4h-1.7v1.3c0,0.2-0.2,0.4-0.4,0.4
	s-0.4-0.2-0.4-0.4V2.4C10,2.2,9.8,2,9.6,2C9.3,2,9.2,2.2,9.2,2.4v0.4H7.5v1.3c0,0.2-0.2,0.4-0.4,0.4c-0.2,0-0.4-0.2-0.4-0.4V2.4
	C6.6,2.2,6.4,2,6.2,2S5.8,2.2,5.8,2.4v0.4H3.7C3.5,2.8,3.3,3,3.3,3.3v14.3c0,0.1,0,0.2,0.1,0.3C3.5,18,3.6,18,3.7,18h12.6
	c0.1,0,0.2,0,0.3-0.1c0.1-0.1,0.1-0.2,0.1-0.3V3.3c0-0.1,0-0.2-0.1-0.3S16.4,2.8,16.3,2.8L16.3,2.8z"/>
</svg>
