<?xml version="1.0" encoding="utf-8"?>
<!-- Generator: Adobe Illustrator 22.0.0, SVG Export Plug-In . SVG Version: 6.00 Build 0)  -->
<svg version="1.1" id="Layer_1" xmlns="http://www.w3.org/2000/svg" xmlns:xlink="http://www.w3.org/1999/xlink" x="0px" y="0px"
	 viewBox="0 0 20 20" style="enable-background:new 0 0 20 20;" xml:space="preserve">
<style type="text/css">
	.st0{fill:#FFFFFF;}
</style>
<g>
	<path class="st0" d="M10,15.3c-2.9,0-5.3-2.4-5.3-5.3c0-2.9,2.4-5.3,5.3-5.3c2.9,0,5.3,2.4,5.3,5.3C15.3,12.9,12.9,15.3,10,15.3z
		 M10,3c-3.9,0-7,3.1-7,7s3.1,7,7,7s7-3.1,7-7S13.9,3,10,3z"/>
	<polygon class="st0" points="10.8,6.3 9.1,6.3 9.1,11.4 13.5,11.4 13.5,9.8 10.8,9.8 	"/>
</g>
</svg>
