<?xml version="1.0" encoding="utf-8"?>
<!-- Generator: Adobe Illustrator 24.0.2, SVG Export Plug-In . SVG Version: 6.00 Build 0)  -->
<svg version="1.1" id="Layer_1" xmlns="http://www.w3.org/2000/svg" xmlns:xlink="http://www.w3.org/1999/xlink" x="0px" y="0px"
	 viewBox="0 0 25 25" style="enable-background:new 0 0 25 25;" xml:space="preserve">
<style type="text/css">
	.icon-webrep-tix-grey{fill-rule:evenodd;clip-rule:evenodd;fill:#333333;}
</style>
<g>
	<path id="Path_1" class="icon-webrep-tix-grey" d="M23.4,17.5h-3.8l-1.2-3.7l-1.2,3.7h-3.8l3.1,2.3l-1.2,3.7l3.1-2.3l3.1,2.3l-1.2-3.7L23.4,17.5z"/>
	<path id="Path_2" class="icon-webrep-tix-grey" d="M12.9,19.7c-0.1,0.1-0.2,0.2-0.3,0.3c0,0-0.1,0.1-0.1,0.1c-0.2,0.2-0.4,0.3-0.6,0.3
		c-0.2,0-0.4-0.1-0.6-0.3c0,0-0.1-0.1-0.1-0.1s-0.1-0.1-0.1-0.1c-0.2-0.2-0.4-0.5-0.5-0.8c-0.2-0.4-0.4-0.9-0.6-1.3
		c-0.1-0.3-0.2-0.6-0.3-0.8c-0.1-0.4-0.2-0.8-0.3-1.2l6.4,0l0.8-2.4c0-0.8,0-1.6,0-2.3c0-0.3,0-0.6-0.1-0.9h3.6c0,0.1,0,0.2,0.1,0.3
		c0.2,0.9,0.2,1.9,0.1,2.8c0,0.1,0,0.2,0,0.3l0.7,2.3h0.6c1.1-2.8,0.9-5.9-0.5-8.6c-1.1-2-2.7-3.6-4.8-4.6c-0.9-0.4-1.8-0.7-2.8-0.8
		c-0.5-0.1-1-0.1-1.4-0.1h-0.3c-0.5,0-1,0-1.4,0.1C8.3,2,6.5,2.9,5,4.3C4.1,5.1,3.3,6.1,2.8,7.1C2.3,8,2,9,1.8,10
		c-0.2,1.1-0.2,2.3-0.1,3.4c0.7,5.1,5.1,8.9,10.2,8.9h0.1c0.6,0,1.2-0.1,1.8-0.2l0.5-1.5L12.9,19.7z M15,4.1
		c0.1,0.1,0.3,0.1,0.4,0.2c1.7,0.8,3.1,2.1,4,3.8l0,0c-1.1,0-2.1-0.1-3.2-0.1c0-0.1,0-0.3-0.1-0.4c-0.2-0.8-0.4-1.6-0.6-2.4
		c-0.1-0.3-0.2-0.5-0.3-0.8C15.2,4.4,15.1,4.2,15,4.1L15,4.1z M9.8,6.4C9.9,6.2,10,6,10.1,5.8c0.1-0.4,0.3-0.8,0.5-1.1
		c0.1-0.3,0.3-0.5,0.5-0.7c0,0,0.1-0.1,0.1-0.1c0.2-0.2,0.4-0.3,0.7-0.4H12c0.1,0,0.3,0.1,0.4,0.1c0.1,0.1,0.3,0.2,0.4,0.3
		c0.2,0.2,0.4,0.5,0.5,0.7c0.2,0.4,0.4,0.7,0.5,1.1C13.8,6,13.9,6.2,14,6.4c0.2,0.5,0.3,1.1,0.4,1.6l0,0c-1.6,0-3.3,0-4.9,0.1
		C9.5,7.5,9.7,7,9.8,6.4L9.8,6.4z M3.5,13.1c-0.1-0.9-0.1-1.9,0.1-2.8c0-0.1,0-0.2,0.1-0.3h3.6c0,0.3,0,0.6-0.1,0.9
		c0,0.9,0,1.9,0.1,2.8c-1.2,0-2.4,0-3.6,0C3.6,13.6,3.6,13.4,3.5,13.1L3.5,13.1z M8.7,19.8c-1.9-0.8-3.5-2.2-4.4-4.1h3.2
		c0.1,0.7,0.3,1.4,0.5,2.1c0.1,0.3,0.2,0.6,0.3,0.9c0.1,0.3,0.2,0.5,0.3,0.8C8.7,19.6,8.7,19.7,8.7,19.8L8.7,19.8z M8.8,4.1
		C8.7,4.2,8.6,4.4,8.6,4.5C8.4,4.8,8.3,5,8.2,5.3C8,6.1,7.7,6.9,7.6,7.7c0,0.2-0.1,0.3-0.1,0.5c-1.1,0-2.1,0-3.2,0l0-0.1
		c0.9-1.7,2.3-3,4-3.8C8.5,4.2,8.6,4.1,8.8,4.1L8.8,4.1z M9.1,11.5c0-0.5,0-0.9,0.1-1.4h5.5c0,0.4,0.1,0.8,0.1,1.2
		c0,0.8,0,1.6-0.1,2.5c-1.8,0-3.7,0-5.5,0.1C9.1,13,9.1,12.2,9.1,11.5L9.1,11.5z"/>
</g>
</svg>
