<?xml version="1.0" encoding="utf-8"?>
<!-- Generator: Adobe Illustrator 22.0.0, SVG Export Plug-In . SVG Version: 6.00 Build 0)  -->
<svg version="1.1" id="Layer_1" xmlns="http://www.w3.org/2000/svg" xmlns:xlink="http://www.w3.org/1999/xlink" x="0px" y="0px"
	 viewBox="0 0 20 20" style="enable-background:new 0 0 20 20;" xml:space="preserve">
<style type="text/css">
	.st0{fill:#FFBC00;}
	.st1{fill:#FFFFFF;}
</style>
<g>
	<circle class="st0" cx="10" cy="10" r="7"/>
	<path class="st1" d="M10.5,12.4l2.4-2.4l-2.4-2.4l1.1-1.1L15,10l-3.5,3.5L10.5,12.4z M8.1,10L10,8.1l1.9,1.9L10,11.9L8.1,10z
		 M8.5,13.5L5,10l3.5-3.5l1.1,1.1L7.1,10l2.4,2.4L8.5,13.5z M11.5,5.6L10,7.1L8.5,5.6L4.1,10l4.4,4.4l1.5-1.5l1.5,1.5l4.4-4.4
		L11.5,5.6z"/>
</g>
</svg>
