<?xml version="1.0" encoding="utf-8"?>
<!-- Generator: Adobe Illustrator 22.0.0, SVG Export Plug-In . SVG Version: 6.00 Build 0)  -->
<svg version="1.1" id="Layer_1" xmlns="http://www.w3.org/2000/svg" xmlns:xlink="http://www.w3.org/1999/xlink" x="0px" y="0px"
	 viewBox="0 0 20 20" style="enable-background:new 0 0 20 20;" xml:space="preserve">
<style type="text/css">
	.st0{fill:#4D4E4E;}
</style>
<g>
	<path class="st0" d="M7,15.2c0,0,0,0.1,0.1,0.1c0.1,0.1,0.2,0.1,0.2,0l0.6-0.6c0.3-0.3,0.9-0.3,1.2,0l0,0c0.3,0.3,0.3,0.9,0,1.2
		l-2.3,2.3c-0.3,0.3-0.9,0.3-1.2,0L3.2,16c-0.3-0.3-0.3-0.9,0-1.2l0,0c0.3-0.3,0.9-0.3,1.2,0L5,15.4l0.1,0.1c0.1,0,0.2-0.1,0.2-0.2
		v-3.4c0-0.5,0.4-0.9,0.9-0.9s0.9,0.4,0.9,0.9L7,15.2z M5.4,5c0,0,0-0.1-0.1-0.1c0-0.1-0.1-0.1-0.2,0L4.6,5.5
		c-0.3,0.3-0.9,0.3-1.2,0C3,5.1,3,4.6,3.4,4.2l2.3-2.3c0.3-0.3,0.9-0.3,1.2,0l2.3,2.3c0.3,0.3,0.3,0.9,0,1.2C8.9,5.7,8.3,5.7,8,5.4
		L7.4,4.8L7.3,4.7c-0.1,0-0.2,0.1-0.2,0.2v3.4c0,0.5-0.4,0.9-0.9,0.9S5.3,8.8,5.3,8.3L5.4,5z"/>
	<path class="st0" d="M14.6,15.2c0,0,0,0.1,0.1,0.1c0.1,0.1,0.2,0.1,0.2,0l0.6-0.6c0.3-0.3,0.9-0.3,1.2,0l0,0c0.3,0.3,0.3,0.9,0,1.2
		l-2.3,2.3c-0.3,0.3-0.9,0.3-1.2,0L10.8,16c-0.3-0.3-0.3-0.9,0-1.2l0,0c0.3-0.3,0.9-0.3,1.2,0l0.6,0.6l0.1,0.1
		c0.1,0,0.2-0.1,0.2-0.2v-3.4c0-0.5,0.4-0.9,0.9-0.9s0.9,0.4,0.9,0.9L14.6,15.2z M13,5c0,0,0-0.1-0.1-0.1c0-0.1-0.1-0.1-0.2,0
		l-0.5,0.6c-0.3,0.3-0.9,0.3-1.2,0c-0.4-0.4-0.4-0.9,0-1.3l2.3-2.3c0.3-0.3,0.9-0.3,1.2,0l2.3,2.3c0.3,0.3,0.3,0.9,0,1.2
		c-0.3,0.3-0.9,0.3-1.2,0L15,4.8l-0.1-0.1c-0.1,0-0.2,0.1-0.2,0.2v3.4c0,0.5-0.4,0.9-0.9,0.9s-0.9-0.4-0.9-0.9L13,5z"/>
</g>
</svg>
