<?xml version="1.0" encoding="utf-8"?>
<!-- Generator: Adobe Illustrator 22.0.0, SVG Export Plug-In . SVG Version: 6.00 Build 0)  -->
<svg version="1.1" id="Layer_1" xmlns="http://www.w3.org/2000/svg" xmlns:xlink="http://www.w3.org/1999/xlink" x="0px" y="0px"
	 viewBox="0 0 14 14" style="enable-background:new 0 0 14 14;" xml:space="preserve">
<style type="text/css">
	.st0{fill:#717273;}
</style>
<path class="st0" d="M7,2.6c0.7,0,1.3,0.5,1.5,1.2C8,3.6,7.5,3.5,7,3.5s-1,0.1-1.5,0.3C5.6,3.1,6.2,2.6,7,2.6z M6.1,1.1
	c-0.1,0-0.2,0-0.3,0.2c0,0.1,0,0.2,0,0.3l0.3,0.6c-0.8,0.3-1.3,1-1.4,1.9c-0.3,0.2-0.6,0.4-1,0.6L2.7,3.6c-0.1-0.1-0.3-0.1-0.4,0
	c-0.1,0.1-0.1,0.3,0,0.4l1.1,1.1C2.7,5.9,2.3,6.9,2.3,8H0.8C0.6,8,0.5,8.1,0.5,8.3c0,0.2,0.1,0.3,0.3,0.3h1.6c0.1,1.1,0.5,2,1.1,2.8
	l-1.1,1.1c-0.1,0.1-0.1,0.3,0,0.4c0.1,0.1,0.3,0.1,0.4,0l1.1-1.1c0.8,0.7,1.8,1.1,2.9,1.2V6.3h0.4v6.6c1.1,0,2.1-0.5,2.9-1.2
	l1.1,1.1c0.1,0.1,0.3,0.1,0.4,0c0.1-0.1,0.1-0.3,0-0.4l-1.1-1.1c0.6-0.8,1.1-1.7,1.1-2.8h1.6c0.2,0,0.3-0.1,0.3-0.3
	c0-0.2-0.1-0.3-0.3-0.3h-1.6c-0.1-1.1-0.5-2-1.1-2.8L11.6,4c0.1-0.1,0.1-0.3,0-0.4c-0.1-0.1-0.3-0.1-0.4,0l-1.1,1.1
	C9.8,4.4,9.5,4.1,9.1,4c0-0.9-0.6-1.6-1.4-1.9l0.3-0.6c0-0.1,0-0.2,0-0.3C8.1,1.1,8,1,7.8,1C7.8,1,7.6,1,7.6,1.1L7.1,1.9
	c0,0-0.1,0-0.2,0s-0.1,0-0.2,0L6.3,1.1C6.3,1.1,6.2,1.1,6.1,1.1z"/>
</svg>
