<?xml version="1.0" encoding="utf-8"?>
<!-- Generator: Adobe Illustrator 22.0.0, SVG Export Plug-In . SVG Version: 6.00 Build 0)  -->
<svg version="1.1" id="Layer_1" xmlns="http://www.w3.org/2000/svg" xmlns:xlink="http://www.w3.org/1999/xlink" x="0px" y="0px"
	 viewBox="0 0 14 14" style="enable-background:new 0 0 14 14;" xml:space="preserve">
<style type="text/css">
	.st0{fill:#717273;}
</style>
<g>
	<path class="st0" d="M2.8,6.9c0,0.1,0,0.2,0,0.3c0,0.6,0,1.4,0,1.7c0,0,0,0,0,0l8.4-1.9c0,0,0,0,0,0c0-0.7,0-1.9,0-2.6c0,0,0,0,0,0
		L2.8,6.2C2.8,6.4,2.8,6.7,2.8,6.9z"/>
	<path class="st0" d="M3.2,9.6c1,1.4,3.8,3,3.8,3s4.2-2.4,4.2-3.8c0-0.2,0-0.6,0-1L3.2,9.6z"/>
	<path class="st0" d="M2.8,5.3l8.4-1.9c0-0.1,0-0.3,0-0.3L7,1.3L2.8,3.1c0,0,0,0.5,0,0.6c0,0.2,0,0.4,0,0.6C2.8,4.5,2.8,4.9,2.8,5.3
		z"/>
</g>
</svg>
