<?xml version="1.0" encoding="utf-8"?>
<!-- Generator: Adobe Illustrator 27.5.0, SVG Export Plug-In . SVG Version: 6.00 Build 0)  -->
<svg version="1.1"
	 id="svg8" xmlns:inkscape="http://www.inkscape.org/namespaces/inkscape" xmlns:cc="http://creativecommons.org/ns#" xmlns:rdf="http://www.w3.org/1999/02/22-rdf-syntax-ns#" xmlns:sodipodi="http://sodipodi.sourceforge.net/DTD/sodipodi-0.dtd" xmlns:svg="http://www.w3.org/2000/svg" xmlns:dc="http://purl.org/dc/elements/1.1/" inkscape:version="1.0.1 (c497b03c, 2020-09-10)" sodipodi:docname="icon_hide2.svg"
	 xmlns="http://www.w3.org/2000/svg" xmlns:xlink="http://www.w3.org/1999/xlink" x="0px" y="0px" viewBox="0 0 592.6 573.7"
	 style="enable-background:new 0 0 592.6 573.7;" xml:space="preserve">
<style type="text/css">
	.st0{fill:#4D4E4E;}
</style>
<sodipodi:namedview  bordercolor="#666666" borderopacity="1.0" id="base" inkscape:current-layer="layer1" inkscape:cx="392.16279" inkscape:cy="555.77522" inkscape:document-rotation="0" inkscape:document-units="mm" inkscape:pageopacity="0.0" inkscape:pageshadow="2" inkscape:window-height="943" inkscape:window-maximized="0" inkscape:window-width="1252" inkscape:window-x="2138" inkscape:window-y="276" inkscape:zoom="0.35" pagecolor="#ffffff" showgrid="false">
	</sodipodi:namedview>
<g id="layer1" transform="translate(-1.2402609,-1.45114)" inkscape:groupmode="layer" inkscape:label="Layer 1">
	<g id="g66" transform="matrix(10.90823,0,0,10.90823,14.684955,-23.884845)">
		<path id="path64" class="st0" d="M48.2,29.8c0-2-7.7-13.9-22.4-13.9c-2.3-0.3-4.5,0.3-6.5,0.6l-7.9-8.5c-1.1-1.1-2.6-1.1-3.7,0
			c-1.1,1.1-1.1,2.6,0,3.7l6.5,7.1C7.1,22.4,3.7,28.3,3.7,29.8c0,2,7.7,13.9,22.4,13.9c3.4,0,6.5-0.6,9.1-1.7l6.8,7.7
			c0.6,0.3,1.4,0.6,2,0.6s1.4-0.3,2-0.6c1.1-1.1,1.1-2.6,0-3.7l-6-6.5C45.3,35.7,48.2,30.6,48.2,29.8L48.2,29.8z M26.1,40.8
			c-5.4-0.3-9.9-5.1-9.9-11.1c0-2.6,0.9-4.8,2-6.8l5.1,5.7c-1.1,1.1-2.3,1.1-2.3,1.1c0,3.1,2.3,5.4,5.1,5.4c0.9,0,1.7-0.3,2.3-0.6
			l3.7,4C30.3,40,28.3,40.8,26.1,40.8z M30.9,29.5c0-2.6-2.3-4.8-4.5-5.1l-4.3-4.8c1.1-0.6,2.6-0.9,4-0.9c5.4,0,9.9,5.1,9.9,11.1
			c0,1.4-0.3,3.1-0.9,4.3L30.9,29.5z"/>
	</g>
</g>
</svg>
