<?xml version="1.0" encoding="utf-8"?>
<!-- Generator: Adobe Illustrator 22.0.0, SVG Export Plug-In . SVG Version: 6.00 Build 0)  -->
<svg version="1.1" id="Layer_1" xmlns="http://www.w3.org/2000/svg" xmlns:xlink="http://www.w3.org/1999/xlink" x="0px" y="0px"
	 viewBox="0 0 20 20" style="enable-background:new 0 0 20 20;" xml:space="preserve">
<path d="M10.7,2.5c-0.3,0.5-0.4,1.2-0.3,1.8L7.7,8.4c-0.6-0.2-1.3-0.2-2,0C5.1,8.7,4.6,9.1,4.2,9.7l3.3,2.2l-0.2-0.1l-3.2,4.8
	l0.4,0.2L7.7,12l3.2,2.1c0.4-0.6,0.6-1.3,0.5-1.9c-0.1-0.7-0.3-1.3-0.8-1.8l2.7-4.2v0c0.6,0,1.2-0.4,1.6-0.9L15,5l-4.1-2.7L10.7,2.5
	z"/>
</svg>
