<?xml version="1.0" encoding="utf-8"?>
<!-- Generator: Adobe Illustrator 22.0.0, SVG Export Plug-In . SVG Version: 6.00 Build 0)  -->
<svg version="1.1" id="Layer_1" xmlns="http://www.w3.org/2000/svg" xmlns:xlink="http://www.w3.org/1999/xlink" x="0px" y="0px"
	 viewBox="0 0 20 20" style="enable-background:new 0 0 20 20;" xml:space="preserve">
<style type="text/css">
	.st0{fill:#E37333;}
	.st1{fill:#FFFFFF;}
</style>
<circle class="st0" cx="10" cy="10" r="7"/>
<g>
	<path class="st1" d="M8.8,11.2V6.9h4.3L8.8,11.2z M13.1,6H8.8C8.3,6,7.9,6.4,7.9,6.9v4.2c0,0.2,0.1,0.5,0.3,0.6
		c0.2,0.2,0.4,0.3,0.6,0.3h4.3c0.2,0,0.5-0.1,0.6-0.3c0.2-0.2,0.3-0.4,0.3-0.6V6.9C14,6.4,13.6,6,13.1,6z"/>
	<path class="st1" d="M6.8,14h4.3c0.2,0,0.5-0.1,0.6-0.3c0.2-0.2,0.3-0.4,0.3-0.6v-0.3c0-0.2-0.2-0.5-0.5-0.5s-0.5,0.2-0.5,0.5v0.3
		H6.8V8.8h0.2c0.2,0,0.5-0.2,0.5-0.5S7.3,7.9,7.1,7.9H6.8C6.4,7.9,6,8.3,6,8.8v4.3c0,0.2,0.1,0.5,0.3,0.6C6.4,13.9,6.6,14,6.8,14z"
		/>
</g>
</svg>
