<?xml version="1.0" encoding="utf-8"?>
<!-- Generator: Adobe Illustrator 22.0.0, SVG Export Plug-In . SVG Version: 6.00 Build 0)  -->
<svg version="1.1" id="Layer_1" xmlns="http://www.w3.org/2000/svg" xmlns:xlink="http://www.w3.org/1999/xlink" x="0px" y="0px"
	 viewBox="0 0 20 20" style="enable-background:new 0 0 20 20;" xml:space="preserve">
<style type="text/css">
	.st0{fill:#4D4E4E;}
</style>
<path class="st0" d="M10,1c-5,0-9,4-9,9s4,9,9,9s9-4,9-9S15,1,10,1z M10,3.8c1.2,0,2.3,0.4,3.2,0.9l-8.4,8.4c-0.6-0.9-0.9-2-0.9-3.2
	C3.8,6.6,6.6,3.8,10,3.8z M10,16.2c-1.2,0-2.3-0.4-3.2-0.9l8.4-8.4c0.6,0.9,0.9,2,0.9,3.2C16.2,13.4,13.4,16.2,10,16.2z"/>
</svg>
