<?xml version="1.0" encoding="utf-8"?>
<!-- Generator: Adobe Illustrator 26.4.1, SVG Export Plug-In . SVG Version: 6.00 Build 0)  -->
<svg version="1.1" id="Layer_1" xmlns="http://www.w3.org/2000/svg" xmlns:xlink="http://www.w3.org/1999/xlink" x="0px" y="0px"
	 viewBox="0 0 25 25" style="enable-background:new 0 0 25 25;" xml:space="preserve">
<style type="text/css">
	.icon-sender-domain-tix-0{fill-rule:evenodd;clip-rule:evenodd;fill:#333333;}
	.icon-sender-domain-tix-1{fill:#333333;}
</style>
<g>
	<path class="icon-sender-domain-tix-0" d="M23.2,14.9c0-0.1-0.1-0.1-0.2-0.1h-2.9L19.2,12c0-0.1-0.1-0.1-0.2-0.1S18.8,12,18.8,12L18,14.7h-2.9
		c-0.1,0-0.2,0.1-0.2,0.1c0,0.1,0,0.2,0.1,0.2l2.4,1.7l-0.9,2.8c0,0.1,0,0.2,0.1,0.2h0.1h0.1l2.4-1.7l2.4,1.7c0.1,0,0.2,0,0.2,0
		c0.1,0,0.1-0.1,0.1-0.2L21,16.7l2.4-1.7C23.2,15,23.3,15,23.2,14.9z"/>
	<path class="icon-sender-domain-tix-1" d="M18.7,5H3.5C2.4,5,1.6,5.8,1.6,6.9v9.4c0,0.6,0.2,1.1,0.6,1.4c0.3,0.3,0.7,0.4,1.3,0.4h12.3l0.4-1l-0.7-0.5
		H4.3l4.4-4.4l2,1.8c0.3,0.3,0.7,0.3,1,0l2-1.8l1.4,1.4h2.2l-2.4-2.4l4.4-4v3.4l0.1,0c0.5,0.1,0.8,0.4,0.9,0.8l0.4,1.6V6.9
		C20.6,5.8,19.8,5,18.7,5z M7.5,11.3l-4.4,4.4V7.3L7.5,11.3z M17.9,6.5l-6.8,6.1L4.4,6.5H17.9z"/>
</g>
</svg>
