<?xml version="1.0" encoding="utf-8"?>
<!-- Generator: Adobe Illustrator 25.4.1, SVG Export Plug-In . SVG Version: 6.00 Build 0)  -->
<svg version="1.1" id="Layer_1" xmlns="http://www.w3.org/2000/svg" xmlns:xlink="http://www.w3.org/1999/xlink" x="0px" y="0px"
	 viewBox="0 0 20 20" style="enable-background:new 0 0 20 20;" xml:space="preserve">
<style type="text/css">
	.st0{fill:#4D4E4E;}
</style>
<path class="st0" d="M17.2,15.2c0,0,0,0.1,0.1,0.1c0.1,0.1,0.2,0.1,0.2,0l0.6-0.6c0.3-0.3,0.9-0.3,1.2,0l0,0c0.3,0.3,0.3,0.9,0,1.2
	L17,18.2c-0.3,0.3-0.9,0.3-1.2,0L13.4,16c-0.3-0.3-0.3-0.9,0-1.2l0,0c0.3-0.3,0.9-0.3,1.2,0l0.6,0.6l0.1,0.1c0.1,0,0.2-0.1,0.2-0.2
	v-3.4c0-0.5,0.4-0.9,0.9-0.9c0.5,0,0.9,0.4,0.9,0.9L17.2,15.2z M15.6,5c0,0,0-0.1-0.1-0.1c0-0.1-0.1-0.1-0.2,0l-0.5,0.6
	c-0.3,0.3-0.9,0.3-1.2,0c-0.4-0.4-0.4-0.9,0-1.3l2.3-2.3c0.3-0.3,0.9-0.3,1.2,0l2.3,2.3c0.3,0.3,0.3,0.9,0,1.2
	c-0.3,0.3-0.9,0.3-1.2,0l-0.6-0.6l-0.1-0.1c-0.1,0-0.2,0.1-0.2,0.2v3.4c0,0.5-0.4,0.9-0.9,0.9c-0.5,0-0.9-0.4-0.9-0.9L15.6,5z"/>
<g>
	<path class="st0" d="M4.3,13.6c0.3,0.3,0.8,0.3,1.2,0l4.7-5.9c0.2-0.3,0.2-0.8-0.1-1s-0.8-0.1-1,0.1L5,12l-1.6-2
		c-0.2-0.3-0.6-0.4-1-0.1c-0.5,0.4-0.5,0.8-0.1,1.2L4.3,13.6 M0.5,6.6c0-1.3,0.8-2.2,2.1-2.2h7.3c1.3,0,2.2,0.9,2.2,2.2v7.3
		c0,1.3-0.9,2.2-2.2,2.2H2.7c-1.3,0-2.2-0.9-2.2-2.2V6.6z"/>
</g>
</svg>
