<?xml version="1.0" encoding="UTF-8"?>
<svg id="Layer_1" xmlns="http://www.w3.org/2000/svg" viewBox="-3 -3 20 20">
  <defs>
    <style>
      .cls-1 {fill: #fff;}
      .cls-2 {fill: #5fb766;}
    </style>
  </defs>
  <circle class="cls-2" cx="7" cy="7" r="7"/>
  <g>
    <path class="cls-1" d="m10.5,3.1h-2.2c-.1,0-.2.1-.2.2v.6s0,.1.1.2c0,0,.1.1.2.1h.9l-4,4s-.1.1-.1.2,0,.1.1.2l.4.4h.1s.1,0,.2-.1l4-4v.9c0,.1,0,.2.2.2h.6s.1,0,.2-.1v-2.3c0-.1,0-.2-.1-.4-.1-.1-.2-.1-.4-.1h0Z"/>
    <path class="cls-1" d="m9.4,7.4h-.6c-.1,0-.2.1-.2.2v2.3h-4.4v-4.3h2.3s.1,0,.2-.1c0,0,.1-.1,0-.2v-.5s0-.1-.1-.2h-2.9c-.3,0-.5.2-.5.5v5.4c0,.2.2.5.5.5h5.4c.3,0,.5-.2.5-.5v-2.9c0-.1-.1-.2-.2-.2h0Z"/>
  </g>
</svg>