<?xml version="1.0" encoding="utf-8"?>
<!-- Generator: Adobe Illustrator 22.0.0, SVG Export Plug-In . SVG Version: 6.00 Build 0)  -->
<svg version="1.1" id="Layer_1" xmlns="http://www.w3.org/2000/svg" xmlns:xlink="http://www.w3.org/1999/xlink" x="0px" y="0px"
	 viewBox="0 0 20 20" style="enable-background:new 0 0 20 20;" xml:space="preserve">
<style type="text/css">
	.st0{fill:#4D4E4E;}
</style>
<g>
	<path class="st0" d="M5.3,14.8c0,0,0-0.1-0.1-0.1c-0.1-0.1-0.2-0.1-0.2,0l-0.6,0.6c-0.3,0.3-0.9,0.3-1.2,0l0,0
		c-0.3-0.3-0.3-0.9,0-1.2l2.3-2.3c0.3-0.3,0.9-0.3,1.2,0L9,14.1c0.3,0.3,0.3,0.9,0,1.2l0,0c-0.3,0.3-0.9,0.3-1.2,0l-0.6-0.6
		l-0.1-0.1c-0.1,0-0.2,0.1-0.2,0.2v3.4C6.9,18.6,6.5,19,6,19s-0.9-0.4-0.9-0.9L5.3,14.8z M7.1,5.2c0,0,0,0.1,0.1,0.1
		c0.1,0.1,0.2,0.1,0.2,0L8,4.7c0.3-0.3,0.9-0.3,1.2,0s0.3,0.9,0,1.2L6.9,8.2C6.6,8.5,6,8.5,5.7,8.2L3.3,6C3,5.7,3,5.1,3.3,4.8
		c0.3-0.3,0.9-0.3,1.2,0l0.6,0.6l0.1,0.1c0.1,0,0.2-0.1,0.2-0.2V1.9C5.3,1.4,5.7,1,6.2,1s0.9,0.4,0.9,0.9V5.2z"/>
	<path class="st0" d="M12.9,14.8c0,0,0-0.1-0.1-0.1c-0.1-0.1-0.2-0.1-0.2,0L12,15.3c-0.3,0.3-0.9,0.3-1.2,0l0,0
		c-0.3-0.3-0.3-0.9,0-1.2l2.3-2.3c0.3-0.3,0.9-0.3,1.2,0l2.3,2.3c0.3,0.3,0.3,0.9,0,1.2l0,0c-0.3,0.3-0.9,0.3-1.2,0l-0.6-0.6
		l-0.1-0.1c-0.1,0-0.2,0.1-0.2,0.2v3.4c0,0.5-0.4,0.9-0.9,0.9s-0.9-0.4-0.9-0.9L12.9,14.8z M14.7,5.2c0,0,0,0.1,0.1,0.1
		c0.1,0.1,0.2,0.1,0.2,0l0.6-0.6c0.3-0.3,0.9-0.3,1.2,0c0.3,0.3,0.3,0.9,0,1.2l-2.3,2.3c-0.3,0.3-0.9,0.3-1.2,0L10.9,6
		c-0.3-0.3-0.3-0.9,0-1.2c0.3-0.3,0.9-0.3,1.2,0l0.6,0.6l0.1,0.1c0.1,0,0.2-0.1,0.2-0.2V1.9C12.9,1.4,13.3,1,13.8,1s0.9,0.4,0.9,0.9
		V5.2z"/>
</g>
</svg>
