<?xml version="1.0" encoding="utf-8"?>
<!-- Generator: Adobe Illustrator 22.0.0, SVG Export Plug-In . SVG Version: 6.00 Build 0)  -->
<svg version="1.1" id="Layer_1" xmlns="http://www.w3.org/2000/svg" xmlns:xlink="http://www.w3.org/1999/xlink" x="0px" y="0px"
	 viewBox="0 0 20 20" style="enable-background:new 0 0 20 20;" xml:space="preserve">
<style type="text/css">
	.st0{fill:#C9C9C9;}
</style>
<path class="st0" d="M10.8,13.4L10.8,13.4V4.3l0.8,0.8c0.4,0.4,0.8,0.3,1.1,0c0.3-0.3,0.4-0.8,0-1.1l-2.2-2.2
	c-0.3-0.3-0.8-0.3-1.1,0L7.3,3.9c-0.4,0.4-0.3,0.8,0,1.1c0.3,0.3,0.8,0.4,1.1,0l0.8-0.8v2.3v0.1v9.1l-0.8-0.8
	c-0.4-0.4-0.8-0.3-1.1,0c-0.3,0.3-0.4,0.8,0,1.1l2.2,2.2c0.3,0.3,0.8,0.3,1.1,0l2.2-2.2c0.4-0.4,0.3-0.8,0-1.1
	c-0.3-0.3-0.8-0.4-1.1,0l-0.8,0.8L10.8,13.4z"/>
</svg>
