<?xml version="1.0" encoding="utf-8"?>
<!-- Generator: Adobe Illustrator 22.0.0, SVG Export Plug-In . SVG Version: 6.00 Build 0)  -->
<svg version="1.1" id="Layer_1" xmlns="http://www.w3.org/2000/svg" xmlns:xlink="http://www.w3.org/1999/xlink" x="0px" y="0px"
	 viewBox="0 0 20 20" style="enable-background:new 0 0 20 20;" xml:space="preserve">
<path style= "fill: #4E4E4E" d="M13.7,11.5l-1.1,1.1l-1.5-1.5l-1.5,1.5l-1.1-1.1L10,10L8.5,8.5l1.1-1.1l1.5,1.5l1.5-1.5l1.1,1.1L12.2,10L13.7,11.5z M18,4.6
	H5.8C5.5,4.6,5.3,4.8,5.1,5L1.6,9.8c-0.1,0.2-0.1,0.4,0,0.6l3.5,4.6c0.2,0.2,0.4,0.3,0.6,0.3H18c0.3,0,0.5-0.2,0.5-0.5V5.1
	C18.5,4.9,18.3,4.6,18,4.6L18,4.6z"/>
</svg>
