<?xml version="1.0" encoding="utf-8"?>
<!-- Generator: Adobe Illustrator 27.5.0, SVG Export Plug-In . SVG Version: 6.00 Build 0)  -->
<svg version="1.1" id="Layer_1" xmlns="http://www.w3.org/2000/svg" xmlns:xlink="http://www.w3.org/1999/xlink" x="0px" y="0px"
	 viewBox="0 0 20 20" style="enable-background:new 0 0 20 20;" xml:space="preserve">
<style type="text/css">
	.st0{fill-rule:evenodd;clip-rule:evenodd;fill:#4D4E4E;}
</style>
<g id="Group_304" transform="translate(0 0)">
	<g>
		<g id="Group_303" transform="translate(0 0)">
			<path id="Path_107" class="st0" d="M7.1,5.7v9.8c0,0.4-0.4,0.8-0.8,0.8c-0.4,0-0.8-0.4-0.8-0.8c0,0,0,0,0,0V5.7L4.6,6.6
				c-0.3,0.3-0.8,0.3-1.1,0c-0.3-0.3-0.3-0.8,0-1.1l2.2-2.2C5.9,3.1,6.1,3,6.3,3h0c0.2,0,0.4,0.1,0.6,0.2l2.2,2.2
				c0.3,0.3,0.3,0.8,0,1.1C8.8,6.9,8.3,6.9,8,6.6l0,0L7.1,5.7z M12.9,14.3V4.5c0-0.4,0.4-0.8,0.8-0.8s0.8,0.4,0.8,0.8c0,0,0,0,0,0
				v9.8l0.9-0.9c0.3-0.3,0.8-0.3,1.1,0c0.3,0.3,0.3,0.8,0,1.1l0,0l-2.2,2.2c-0.1,0.1-0.3,0.2-0.6,0.2h0c-0.2,0-0.4-0.1-0.6-0.2
				l-2.2-2.2c-0.3-0.3-0.3-0.8,0-1.1c0.3-0.3,0.8-0.3,1.1,0l0,0L12.9,14.3z"/>
		</g>
	</g>
</g>
</svg>
