<?xml version="1.0" encoding="utf-8"?>
<!-- Generator: Adobe Illustrator 24.2.1, SVG Export Plug-In . SVG Version: 6.00 Build 0)  -->
<svg version="1.1" id="Layer_1" xmlns="http://www.w3.org/2000/svg" xmlns:xlink="http://www.w3.org/1999/xlink" x="0px" y="0px"
	 viewBox="0 0 20 20" style="enable-background:new 0 0 20 20;" xml:space="preserve">
<style type="text/css">
	.st0{fill:#FFF;}
</style>
<path class="st0" d="M17,3.1c-1,0-1.8,0.8-1.8,1.8c0,0.4,0.1,0.8,0.4,1.1l-3.1,4.2C12.4,10,12.2,10,12,10c-0.4,0-0.7,0.1-1,0.3
	L8.6,8.4C8.6,8.2,8.7,8,8.7,7.8c0-1-0.8-1.8-1.8-1.8S5.1,6.8,5.1,7.8c0,0.5,0.2,0.9,0.5,1.2l-2.3,4.4c-0.1,0-0.2,0-0.3,0
	c-1,0-1.8,0.8-1.8,1.8c0,1,0.8,1.8,1.8,1.8c1,0,1.8-0.8,1.8-1.8c0-0.5-0.2-0.9-0.5-1.2l2.3-4.4c0.1,0,0.2,0,0.3,0
	c0.4,0,0.7-0.1,1-0.3l2.4,1.9c-0.1,0.2-0.1,0.4-0.1,0.6c0,1,0.8,1.8,1.8,1.8c1,0,1.8-0.8,1.8-1.8c0-0.4-0.1-0.8-0.4-1.1l3.1-4.2
	c0.2,0.1,0.4,0.1,0.6,0.1c1,0,1.8-0.8,1.8-1.8C18.8,3.9,18,3.1,17,3.1"/>
</svg>
