<?xml version="1.0" encoding="utf-8"?>
<!-- Generator: Adobe Illustrator 22.0.0, SVG Export Plug-In . SVG Version: 6.00 Build 0)  -->
<svg version="1.1" id="Layer_1" xmlns="http://www.w3.org/2000/svg" xmlns:xlink="http://www.w3.org/1999/xlink" x="0px" y="0px"
	 viewBox="0 0 20 20" style="enable-background:new 0 0 20 20;" xml:space="preserve">
<g>
	<path d="M14,18.2v-0.8h-11c-0.2,0-0.4-0.2-0.4-0.4V6c0-0.2,0.2-0.4,0.4-0.4h11c0.2,0,0.4,0.2,0.4,0.4v11c0,0.2-0.2,0.4-0.4,0.4V19
		c1.2,0,2.1-0.9,2.1-2.1V6c0-1.2-0.9-2.1-2.1-2.1h-11C1.9,3.9,1,4.8,1,6v11C1,18.1,1.9,19,3.1,19h11V18.2z"/>
	<path d="M5.8,2.6h0.4c0.5,0,0.8-0.4,0.8-0.8C7.1,1.3,6.7,1,6.3,1H5.8C5.4,1,5,1.3,5,1.8C5,2.3,5.4,2.6,5.8,2.6"/>
	<path d="M10.3,2.6h0.8c0.5,0,0.8-0.4,0.8-0.8c0-0.5-0.4-0.8-0.8-0.8h-0.8C9.8,1,9.5,1.3,9.5,1.8C9.5,2.3,9.8,2.6,10.3,2.6z
		 M15.1,2.6H16c0.5,0,0.8-0.4,0.8-0.8C16.8,1.3,16.4,1,16,1h-0.8c-0.5,0-0.8,0.4-0.8,0.8C14.3,2.3,14.7,2.6,15.1,2.6z M17.4,4.1v0.8
		c0,0.5,0.4,0.8,0.8,0.8c0.5,0,0.8-0.4,0.8-0.8V4.1c0-0.5-0.4-0.8-0.8-0.8C17.7,3.2,17.4,3.6,17.4,4.1z M17.4,8.9v0.8
		c0,0.5,0.4,0.8,0.8,0.8c0.5,0,0.8-0.4,0.8-0.8V8.9c0-0.5-0.4-0.8-0.8-0.8C17.7,8.1,17.4,8.5,17.4,8.9z"/>
	<path d="M17.4,13.8v0.4c0,0.5,0.4,0.8,0.8,0.8c0.5,0,0.8-0.4,0.8-0.8v-0.4c0-0.5-0.4-0.8-0.8-0.8C17.7,12.9,17.4,13.3,17.4,13.8"/>
</g>
</svg>
