<?xml version="1.0" encoding="utf-8"?>
<!-- Generator: Adobe Illustrator 22.0.0, SVG Export Plug-In . SVG Version: 6.00 Build 0)  -->
<svg version="1.1" id="Layer_1" xmlns="http://www.w3.org/2000/svg" xmlns:xlink="http://www.w3.org/1999/xlink" x="0px" y="0px"
	 viewBox="0 0 20 20" style="enable-background:new 0 0 20 20;" xml:space="preserve">
<style type="text/css">
	.st0{fill:#4D4E4E;}
</style>
<g>
	<path class="st0" d="M6.6,6.2L9,5.6v2l0,0v1.1c0,0.6,0.4,1,1,1l0,0l0,0c0.6,0,1-0.4,1-1V5.6l2.4,0.7c0,0,0.1,0,0.1,0
		c0.2,0,0.3-0.1,0.4-0.2c0.1-0.2,0.1-0.4,0-0.6l-3.5-4.2C10.2,1,9.8,1,9.6,1.2L6.1,5.4C6,5.6,5.9,5.8,6.1,6C6.2,6.2,6.4,6.3,6.6,6.2
		z"/>
	<path class="st0" d="M10.4,14.1L18,7.6c-0.1-0.1-0.3-0.1-0.5-0.1h-5.2v1.1c0,1.2-1,2.2-2.2,2.2s-2.2-1-2.2-2.2V7.5H2.3
		c-0.2,0-0.3,0-0.5,0.1l7.6,6.5C9.7,14.4,10.1,14.4,10.4,14.1z"/>
	<path class="st0" d="M11.4,15.1c-0.8,0.7-2,0.7-2.8,0L1,8.6c0,0.1,0,0.1,0,0.2v8.8c0,0.7,0.6,1.3,1.3,1.3h15.4
		c0.7,0,1.3-0.6,1.3-1.3V8.8c0-0.1,0-0.1,0-0.2L11.4,15.1z"/>
</g>
</svg>
