<?xml version="1.0" encoding="utf-8"?>
<!-- Generator: Adobe Illustrator 22.0.0, SVG Export Plug-In . SVG Version: 6.00 Build 0)  -->
<svg version="1.1" id="Layer_1" xmlns="http://www.w3.org/2000/svg" xmlns:xlink="http://www.w3.org/1999/xlink" x="0px" y="0px"
	 viewBox="0 0 20 20" style="enable-background:new 0 0 20 20;" xml:space="preserve">
<g>
	<path d="M9.8,2.5c1,0,1.9,0.2,2.8,0.5c0.8,0.3,1.4,0.8,1.8,1.5c0.9,1.5,0.7,3.4-0.6,4.6c-0.4,0.4-0.8,0.7-1.3,1
		c-0.3,0.2-0.7,0.5-1,0.7h0c-0.2,0.2-0.4,0.4-0.5,0.7c-0.1,0.2-0.2,0.4-0.2,0.6c-0.2,0.4-0.6,0.7-1,0.7c-0.3,0-0.6,0-0.8-0.2
		c-0.4-0.3-0.7-0.7-0.6-1.2c0-0.6,0.3-1.2,0.7-1.6c0.5-0.5,1-1,1.6-1.4c0.4-0.3,0.8-0.7,1.1-1.1c0.4-0.7,0.3-1.7-0.4-2.2
		C11,5.1,10.7,5,10.4,4.9C10,4.8,9.5,4.9,9.1,5C8.6,5.2,8.2,5.5,8,6C7.8,6.3,7.7,6.7,7.5,7C7.2,7.5,6.6,7.7,6,7.5
		c-0.2,0-0.5-0.2-0.7-0.3C5.1,7,5,6.7,5,6.3c0-0.6,0.2-1.2,0.5-1.6c0.6-0.8,1.4-1.4,2.3-1.8C8.5,2.7,9.1,2.6,9.8,2.5L9.8,2.5z"/>
	<path d="M11.2,16c0,0.9-0.7,1.6-1.6,1.6C8.7,17.6,8,16.9,8,16c0-0.9,0.7-1.6,1.6-1.6C10.5,14.4,11.2,15.1,11.2,16"/>
</g>
</svg>
