<?xml version="1.0" encoding="utf-8"?>
<!-- Generator: Adobe Illustrator 22.0.0, SVG Export Plug-In . SVG Version: 6.00 Build 0)  -->
<svg version="1.1" id="Layer_1" xmlns="http://www.w3.org/2000/svg" xmlns:xlink="http://www.w3.org/1999/xlink" x="0px" y="0px"
	 viewBox="0 0 20 20" style="enable-background:new 0 0 20 20;" xml:space="preserve">
<style type="text/css">
	.st0{fill:#4D4E4E;}
</style>
<g>
	<path class="st0" d="M18.6,0.7h-2.9c-0.5,0-0.8,0.4-0.8,0.8c0,0.5,0.4,0.8,0.8,0.8h0.9l-3.3,3.3c-0.4,0.4-0.4,0.9,0,1.3
		c0.4,0.4,0.9,0.4,1.3,0l3.3-3.3v0.9c0,0.5,0.4,0.8,0.8,0.8c0.5,0,0.8-0.4,0.8-0.8V1.7C19.5,1.2,19.1,0.7,18.6,0.7z"/>
	<path class="st0" d="M16.2,12c0-0.7-2.7-4.9-7.9-4.9C7.5,7,6.7,7.2,6,7.3L3.2,4.3c-0.4-0.4-0.9-0.4-1.3,0c-0.4,0.4-0.4,0.9,0,1.3
		l2.3,2.5C1.7,9.4,0.5,11.5,0.5,12c0,0.7,2.7,4.9,7.9,4.9c1.2,0,2.3-0.2,3.2-0.6L14,19c0.2,0.1,0.5,0.2,0.7,0.2s0.5-0.1,0.7-0.2
		c0.4-0.4,0.4-0.9,0-1.3l-2.1-2.3C15.2,14.1,16.2,12.3,16.2,12z M8.4,15.9c-1.9-0.1-3.5-1.8-3.5-3.9c0-0.9,0.3-1.7,0.7-2.4l1.8,2
		C7,12,6.6,12,6.6,12c0,1.1,0.8,1.9,1.8,1.9c0.3,0,0.6-0.1,0.8-0.2l1.3,1.4C9.9,15.6,9.2,15.9,8.4,15.9z M10.1,11.9
		c0-0.9-0.8-1.7-1.6-1.8L7,8.4c0.4-0.2,0.9-0.3,1.4-0.3c1.9,0,3.5,1.8,3.5,3.9c0,0.5-0.1,1.1-0.3,1.5L10.1,11.9z"/>
</g>
</svg>
