<?xml version="1.0" encoding="utf-8"?>
<!-- Generator: Adobe Illustrator 22.0.0, SVG Export Plug-In . SVG Version: 6.00 Build 0)  -->
<svg version="1.1" id="Layer_1" xmlns="http://www.w3.org/2000/svg" xmlns:xlink="http://www.w3.org/1999/xlink" x="0px" y="0px"
	 viewBox="0 0 20 20" style="enable-background:new 0 0 20 20;" xml:space="preserve">
<style type="text/css">
	.st0{fill:#4D4E4E;}
</style>
<path class="st0" d="M9.1,14.8c0,0,0-0.1-0.1-0.1c-0.1-0.1-0.2-0.1-0.2,0l-0.6,0.6c-0.3,0.3-0.9,0.3-1.2,0l0,0
	c-0.3-0.3-0.3-0.9,0-1.2l2.3-2.3c0.3-0.3,0.9-0.3,1.2,0l2.3,2.3c0.3,0.3,0.3,0.9,0,1.2l0,0c-0.3,0.3-0.9,0.3-1.2,0L11,14.7l-0.1-0.1
	c-0.1,0-0.2,0.1-0.2,0.2v3.4c0,0.5-0.4,0.9-0.9,0.9s-0.9-0.4-0.9-0.9L9.1,14.8z M10.9,5.2c0,0,0,0.1,0.1,0.1c0.1,0.1,0.2,0.1,0.2,0
	l0.6-0.6c0.3-0.3,0.9-0.3,1.2,0s0.3,0.9,0,1.2l-2.3,2.3c-0.3,0.3-0.9,0.3-1.2,0L7.1,6c-0.3-0.3-0.3-0.9,0-1.2c0.3-0.3,0.9-0.3,1.2,0
	l0.6,0.6L9,5.5c0.1,0,0.2-0.1,0.2-0.2V1.9C9.1,1.4,9.5,1,10,1s0.9,0.4,0.9,0.9V5.2z"/>
</svg>
