<?xml version="1.0" encoding="utf-8"?>
<!-- Generator: Adobe Illustrator 22.0.0, SVG Export Plug-In . SVG Version: 6.00 Build 0)  -->
<svg version="1.1" id="Layer_1" xmlns="http://www.w3.org/2000/svg" xmlns:xlink="http://www.w3.org/1999/xlink" x="0px" y="0px"
	 viewBox="0 0 20 20" style="enable-background:new 0 0 20 20;" xml:space="preserve">
<style type="text/css">
	.st0{fill:#848484;}
</style>
<g>
	<path class="st0" d="M11.4,11c0,0.8-0.6,1.4-1.4,1.4S8.6,11.8,8.6,11S9.2,9.6,10,9.6S11.4,10.2,11.4,11"/>
	<path class="st0" d="M10,14.2c-1.8,0-3.3-1.5-3.3-3.3S8.2,7.7,10,7.7s3.3,1.5,3.3,3.3S11.8,14.2,10,14.2z M17,5.8h-3.8l-0.9-1.9
		H7.7L6.7,5.8H3c-0.8,0-1.4,0.6-1.4,1.4v7.5c0,0.8,0.6,1.4,1.4,1.4H17c0.8,0,1.4-0.7,1.4-1.4V7.2C18.5,6.4,17.8,5.8,17,5.8z"/>
</g>
</svg>
