<?xml version="1.0" encoding="utf-8"?>
<!-- Generator: Adobe Illustrator 22.0.0, SVG Export Plug-In . SVG Version: 6.00 Build 0)  -->
<svg version="1.1" id="Layer_1" xmlns="http://www.w3.org/2000/svg" xmlns:xlink="http://www.w3.org/1999/xlink" x="0px" y="0px"
	 viewBox="0 0 20 20" style="enable-background:new 0 0 20 20;" xml:space="preserve">
<style type="text/css">
	.st0{fill:#4D4E4E;}
</style>
<path class="st0" d="M16.5,13c-0.1,0-3.6-1-4.2-2c-0.2-0.4,0-1.1,0.2-1.4c0.1-0.1,0.2-0.3,0.3-0.4c0.7-1,1.1-2.3,1.1-3.8
	C14.1,3,12.2,1,10,1S5.9,3,6.1,5.3c0,1.5,0.5,2.8,1.1,3.8c0.1,0.1,0.2,0.3,0.3,0.4c0.2,0.4,0.4,1,0.2,1.4C7.2,12.1,3.7,13,3.5,13
	c-0.7,0.2-1.2,0.9-1.2,1.6L1.5,19h17l-0.9-4.3C17.7,13.9,17.1,13.3,16.5,13z M13.7,13.7L12,15.4l0.4,2.3c0,0.1,0,0.2-0.1,0.2
	c0,0-0.1,0-0.1,0c0,0-0.1,0-0.1,0L10,16.8l-2.1,1.1c-0.1,0-0.2,0-0.2,0c-0.1,0-0.1-0.1-0.1-0.2L8,15.4l-1.7-1.6
	c-0.1-0.1-0.1-0.1-0.1-0.2c0-0.1,0.1-0.1,0.2-0.1L8.8,13l1-2.1c0-0.1,0.1-0.1,0.2-0.1s0.1,0,0.2,0.1l1,2.1l2.3,0.3
	c0.1,0,0.1,0.1,0.2,0.1h0C13.7,13.6,13.7,13.7,13.7,13.7z"/>
</svg>
