<?xml version="1.0" encoding="utf-8"?>
<!-- Generator: Adobe Illustrator 22.0.0, SVG Export Plug-In . SVG Version: 6.00 Build 0)  -->
<svg version="1.1" id="Layer_1" xmlns="http://www.w3.org/2000/svg" xmlns:xlink="http://www.w3.org/1999/xlink" x="0px" y="0px"
	 viewBox="0 0 14 14" style="enable-background:new 0 0 14 14;" xml:space="preserve">
<style type="text/css">
	.st0{fill:#717273;}
</style>
<path class="st0" d="M11.8,2.2C11.6,2,11.4,2,11.1,2H2.8c-0.5,0-0.9,0.4-0.9,1v5.4c0,0.5,0.4,0.9,0.9,0.9h1.1C3.9,9.3,4,9.3,4,9.4
	v2.5l2.4-2.7l0,0l0,0l0,0l0,0l0,0l0,0l0,0h4.6c0.5,0,0.9-0.4,0.9-0.9V2.9C12.1,2.6,12,2.4,11.8,2.2z M8.6,8L7,7.3L5.4,8l0.2-1.7
	L4.4,5l1.7-0.4L7,3.1l0.9,1.5L9.6,5L8.5,6.3L8.6,8z"/>
</svg>
