<?xml version="1.0" encoding="utf-8"?>
<!-- Generator: Adobe Illustrator 27.5.0, SVG Export Plug-In . SVG Version: 6.00 Build 0)  -->
<svg version="1.1" id="Layer_1" xmlns="http://www.w3.org/2000/svg" xmlns:xlink="http://www.w3.org/1999/xlink" x="0px" y="0px"
	 viewBox="0 0 26 20" style="enable-background:new 0 0 26 20;" xml:space="preserve">
<style type="text/css">
	.st0{fill:#4D4D4D;}
	.st1{clip-path:url(#SVGID_00000137810741971169189750000002653065962932123278_);}
	.st2{fill-rule:evenodd;clip-rule:evenodd;fill:#4D4E4E;}
</style>
<polygon class="st0" points="22.6,11.3 24.7,8.7 20.5,8.7 "/>
<g id="Group_283" transform="translate(0 0)">
	<g>
		<defs>
			<rect id="SVGID_1_" x="1.9" y="3.1" width="14.4" height="14.4"/>
		</defs>
		<clipPath id="SVGID_00000044167897998274764660000018165671880874296223_">
			<use xlink:href="#SVGID_1_"  style="overflow:visible;"/>
		</clipPath>
		
			<g id="Group_260" transform="translate(0 0)" style="clip-path:url(#SVGID_00000044167897998274764660000018165671880874296223_);">
			<path id="Path_92" class="st2" d="M11.7,9.7h-2v1.8c0,0.3-0.3,0.6-0.6,0.6s-0.6-0.3-0.6-0.6l0,0V9.7h-2C6.2,9.7,6,9.4,6,9.1
				c0-0.3,0.3-0.6,0.6-0.6h2V6.7c0-0.3,0.3-0.6,0.6-0.6s0.6,0.3,0.6,0.6v1.8h2c0.3,0,0.6,0.3,0.6,0.6C12.3,9.4,12,9.7,11.7,9.7z
				 M15.1,3.1h-12c-0.7,0-1.2,0.5-1.2,1.2v13.2l2.9-2.4h10.3c0.7,0,1.2-0.5,1.2-1.2v0V4.3C16.3,3.7,15.8,3.1,15.1,3.1
				C15.1,3.1,15.1,3.1,15.1,3.1z"/>
		</g>
	</g>
</g>
</svg>
