<?xml version="1.0" encoding="utf-8"?>
<!-- Generator: Adobe Illustrator 22.0.0, SVG Export Plug-In . SVG Version: 6.00 Build 0)  -->
<svg version="1.1" id="Layer_1" xmlns="http://www.w3.org/2000/svg" xmlns:xlink="http://www.w3.org/1999/xlink" x="0px" y="0px"
	 viewBox="0 0 20 20" style="enable-background:new 0 0 20 20;" xml:space="preserve">
<style type="text/css">
	.st0{fill:#4D4E4E;}
</style>
<g>
	<path class="st0" d="M5,6.1H2.6c-0.4,0-0.7,0.3-0.7,0.7v9.5c0,0.4,0.3,0.7,0.7,0.7H5V6.1z"/>
	<path class="st0" d="M17.4,6.1H15V17h2.4c0.4,0,0.7-0.3,0.7-0.7V6.8C18.1,6.4,17.8,6.1,17.4,6.1L17.4,6.1z"/>
	<path class="st0" d="M5.9,6.1V17h8.2V6.1H5.9z"/>
	<path class="st0" d="M7.4,5.6V4.9c0-0.4,0.3-0.7,0.7-0.7l3.9,0c0.4,0,0.7,0.3,0.7,0.7v0.7h1.2V4.9C13.9,3.9,13,3,11.9,3L8.1,3
		C7,3,6.1,3.9,6.1,4.9v0.7H7.4z"/>
</g>
</svg>
