<?xml version="1.0" encoding="utf-8"?>
<!-- Generator: Adobe Illustrator 27.5.0, SVG Export Plug-In . SVG Version: 6.00 Build 0)  -->
<svg version="1.1" id="Layer_1" xmlns="http://www.w3.org/2000/svg" xmlns:xlink="http://www.w3.org/1999/xlink" x="0px" y="0px"
	 viewBox="0 0 29 30" style="enable-background:new 0 0 29 30;" xml:space="preserve">
<style type="text/css">
	.st0{fill:#fff;}
</style>
<g id="Group_166" transform="translate(-1152 -286.079)">
	<path id="Path_128" class="st0" d="M1161.9,310.9l-7.9-7.9l3.6-3.6l4.3,4.3l12.8-12.8l3.6,3.6L1161.9,310.9z"/>
</g>
<polygon class="st0" points="9.7,4.2 5.9,4.9 9.7,6.1 10.7,9.7 11.6,6 15.5,4.9 11.5,4.1 10.7,0 "/>
<polygon class="st0" points="0.7,9.4 2.9,10.1 3.7,12.4 4.3,10.1 6.6,9.4 4.3,8.7 3.7,6.4 2.9,8.7 "/>
<polygon class="st0" points="16.2,23.5 20.3,24.9 21.8,30 23.1,24.9 27.8,23.5 22.9,22.2 21.9,17.8 20.5,22.2 "/>
</svg>
