<?xml version="1.0" encoding="utf-8"?>
<!-- Generator: Adobe Illustrator 22.0.0, SVG Export Plug-In . SVG Version: 6.00 Build 0)  -->
<svg version="1.1" id="Layer_1" xmlns="http://www.w3.org/2000/svg" xmlns:xlink="http://www.w3.org/1999/xlink" x="0px" y="0px"
	 viewBox="0 0 20 20" style="enable-background:new 0 0 20 20;" xml:space="preserve">
<style type="text/css">
	.st0{fill:#4D4E4E;}
</style>
<g>
	<g>
		<path class="st0" d="M6,12.7L6,12.7c0.5-0.1,0.9-0.3,1.2-0.4l-0.1-0.2l0,0c-0.3-0.5-0.5-1.2-0.6-1.8C6.3,10.2,6.1,10,6,9.9
			C5.9,9.6,6,9.3,6.2,9.1c0-0.1,0.1-0.2,0.1-0.3l0,0C6.7,8.3,6.9,7.5,7,6.7c0-1.3-1-2.4-2.2-2.4l0,0l0,0c-1.2,0-2.2,1.1-2.2,2.4
			c0,0.9,0.3,1.6,0.6,2.1l0,0c0,0.1,0.1,0.2,0.2,0.3c0.1,0.2,0.3,0.6,0.1,0.8C3.2,10.5,1.2,11,1.2,11c-0.4,0.1-0.7,0.5-0.7,0.9v0.9
			h5.2C5.8,12.7,5.9,12.7,6,12.7L6,12.7z"/>
		<path class="st0" d="M18.8,11c0,0-2-0.5-2.3-1.1c-0.1-0.3,0-0.6,0.1-0.8c0.1-0.1,0.1-0.2,0.2-0.3l0,0c0.3-0.5,0.6-1.3,0.6-2.1
			c0-1.3-1-2.4-2.2-2.4l0,0l0,0c-1.2,0-2.2,1-2.2,2.4c0,0.9,0.3,1.6,0.6,2.1l0,0c0.1,0.1,0.1,0.2,0.2,0.3C14,9.3,14.1,9.6,14,9.9
			c-0.1,0.2-0.3,0.3-0.5,0.4c-0.1,0.7-0.3,1.4-0.7,2c0.3,0.1,0.6,0.2,1.1,0.4c0.1,0,0.1,0,0.1,0c0.1,0,0.2,0.1,0.3,0.1h5.3v-0.9
			C19.5,11.5,19.2,11.1,18.8,11z"/>
		<path class="st0" d="M13.6,13.9c0,0-2-0.5-2.3-1.1l0,0l0,0c-0.1-0.3,0-0.6,0.1-0.8c0.1-0.1,0.1-0.2,0.2-0.3l0,0
			c0.2-0.3,0.3-0.5,0.4-0.9l0,0l0,0c0.1-0.4,0.2-0.8,0.2-1.3c0-1.3-1-2.4-2.2-2.4l0,0l0,0c-1.2,0-2.2,1.1-2.2,2.4
			c0,0.5,0.1,0.9,0.2,1.2l0,0l0,0c0.1,0.3,0.2,0.6,0.4,0.9l0,0c0.1,0.1,0.1,0.2,0.2,0.3c0.1,0.2,0.2,0.5,0.1,0.8l0,0
			c-0.3,0.6-2.3,1.1-2.3,1.1c-0.4,0.2-0.7,0.6-0.7,1v0.9h8.5v-0.9C14.2,14.4,14,14,13.6,13.9z"/>
	</g>
</g>
</svg>
