<?xml version="1.0" encoding="utf-8"?>
<!-- Generator: Adobe Illustrator 27.5.0, SVG Export Plug-In . SVG Version: 6.00 Build 0)  -->
<svg version="1.1" id="Layer_1" xmlns="http://www.w3.org/2000/svg" xmlns:xlink="http://www.w3.org/1999/xlink" x="0px" y="0px"
	 viewBox="0 0 20 20" style="enable-background:new 0 0 20 20;" xml:space="preserve">
<style type="text/css">
	.st0{fill-rule:evenodd;clip-rule:evenodd;fill:#4D4E4E;}
</style>
<g id="Group_1075" transform="translate(-7.345 -0.641)">
	<g id="Group_1081" transform="translate(0 0)">
		<path id="Path_107" class="st0" d="M16.6,14.6V4.8c0-0.4,0.4-0.8,0.8-0.8c0.4,0,0.8,0.4,0.8,0.8c0,0,0,0,0,0v9.8l0.9-0.9
			c0.3-0.3,0.8-0.3,1.1,0c0.3,0.3,0.3,0.8,0,1.1l0,0l-2.2,2.2c-0.1,0.1-0.3,0.2-0.6,0.2h0c-0.2,0-0.4-0.1-0.6-0.2l-2.2-2.2
			c-0.3-0.3-0.3-0.8,0-1.1c0.3-0.3,0.8-0.3,1.1,0l0,0L16.6,14.6z"/>
	</g>
</g>
</svg>
