<?xml version="1.0" encoding="utf-8"?>
<!-- Generator: Adobe Illustrator 22.0.0, SVG Export Plug-In . SVG Version: 6.00 Build 0)  -->
<svg version="1.1" id="Layer_1" xmlns="http://www.w3.org/2000/svg" xmlns:xlink="http://www.w3.org/1999/xlink" x="0px" y="0px"
	 viewBox="0 0 20 20" style="enable-background:new 0 0 20 20;" xml:space="preserve">
<style type="text/css">
	.st0{fill-rule:evenodd;clip-rule:evenodd;fill:#4D4D4D;}
</style>
<path class="st0" d="M17.5,1.1h-15c-1.2,0-2.3,1-2.3,2.3v9.3c0,1.2,1,2.3,2.3,2.3h0.2v3.3c0,0.3,0.2,0.6,0.5,0.8
	c0.1,0,0.2,0.1,0.3,0.1c0.2,0,0.4-0.1,0.6-0.2l3.8-3.8h9.6c1.2,0,2.3-1,2.3-2.3V3.3C19.8,2.1,18.7,1.1,17.5,1.1 M10,3.1l1.6,3.2
	L15,6.7l-2.5,2.5l0.6,3.5L10,11l-3.1,1.6l0.6-3.5L5,6.7l3.5-0.5L10,3.1z"/>
</svg>
