<?xml version="1.0" encoding="utf-8"?>
<!-- Generator: Adobe Illustrator 22.0.0, SVG Export Plug-In . SVG Version: 6.00 Build 0)  -->
<svg version="1.1" id="Layer_1" xmlns="http://www.w3.org/2000/svg" xmlns:xlink="http://www.w3.org/1999/xlink" x="0px" y="0px"
	 viewBox="0 0 20 20" style="enable-background:new 0 0 14 14;" xml:space="preserve">
<g>
	<path style="fill: white" d="M15,9.3c-1.1-1.1-2.2-1.2-2.7-2.2c0.5-0.7,0.8-1.3,0.6-2.1c-0.1-0.3-0.6-1.2-0.6-1.2l0,0c-0.1-1.3-0.4-2.7-0.7-2.4
		c-0.2,0.2-0.6,1.2-0.9,1.9c-0.3-0.1-0.6-0.1-1-0.1c-0.3,0-0.7,0-1,0.1C8.4,2.6,8,1.7,7.8,1.4C7.5,1.1,7.1,2.7,7.1,3.9
		C7,4,6.5,4.8,6.4,5.1C6.2,6.1,6.4,6.5,7,7.2c0.1,0.4-0.1,0.4-0.4,1.3c-0.1,0.5-0.2,1.7,0.3,2.7c0.2,0.4,0.6,2.1,0.7,3.1
		c0,0.7,0,2.8,0,2.8s-0.8-0.1-0.8,0.6c0,0.3,0.3,0.8,0.7,0.8c0.9,0.1,7.5,0,7.5,0C17.5,13.7,15.7,10,15,9.3z"/>
	<g>
		<path style="fill: white" d="M5.9,17.6c0.1-0.5,0.4-1,0.8-1.2c0-0.7,0-1.6,0-2c0-0.9-0.4-2.4-0.6-2.7c-0.6-1.3-0.5-2.8-0.3-3.4C5.9,7.9,6,7.6,6.1,7.5
			C5.5,6.8,5.2,6.1,5.5,4.9c0.1-0.3,0.4-0.8,0.6-1.3c0-0.1,0-0.2,0-0.3c0,0-0.1,0-0.1,0C5.8,2.6,5.4,1.7,5.2,1.4
			C4.9,1.1,4.5,2.7,4.4,3.9c0,0.1-0.6,0.9-0.6,1.2c-0.2,0.9,0,1.3,0.6,2.1C4.5,7.6,4.3,7.7,4,8.5c-0.1,0.5-0.2,1.7,0.3,2.7
			C4.5,11.7,5,13.3,5,14.3c0,0.7,0,2.8,0,2.8s-0.8-0.1-0.8,0.6c0,0.3,0.3,0.8,0.7,0.8c0.2,0,0.6,0,1.2,0.1C6,18.3,5.9,18,5.9,17.6z"
			/>
	</g>
</g>
</svg>
