<?xml version="1.0" encoding="utf-8"?>
<svg xmlns="http://www.w3.org/2000/svg" xmlns:xlink="http://www.w3.org/1999/xlink" width="18" height="18" viewBox="-3 -3 25 25">
  <defs>
    <clipPath id="clip-path">
      <rect id="Rectangle_783" data-name="Rectangle 783" width="18" height="18" fill="none"/>
    </clipPath>
  </defs>
  <g id="Group_1573" data-name="Group 1573" clip-path="url(#clip-path)">
    <path id="Path_329" data-name="Path 329" d="M9,0A9,9,0,1,1,0,9,9,9,0,0,1,9,0" fill="#c14991"/>
    <path id="Path_330" data-name="Path 330" d="M7.179,10.159,5.063,12.447l-1.34-1.5,6.832-7.241a.663.663,0,0,0,.179-.456c0-.171.042-.141-.072-.262a.585.585,0,0,0-.861,0L2.527,10.695v0l-.005.005h0l0,0v.005H2.509v0h0v0h0v0h0l0,.005h0l-.006.009h0l-.062.1h0l0,.005v0l0,0h0l0,0v0h0v.012l0,.009v0l-.053.17h0l0,.005v0h0v0h0v0h0v0h0v.006h0v.117h0v.006h0v0h0v0h0v0h0l0,.006h0l.053.17v0l0,.009h0v.01h0v0l0,0h0l0,0v0l0,.005h0l.067.105h0l0,.006h0l0,.005h0v0h0v0h.006v.005h0l0,0v0l2.1,2.223h0l.005.006h0l0,0h0l0,0h.006l0,0h.005l0,0h0l.006,0h0l.012.008h0l.086.062h0l.006.005h0l0,0h.015l.005,0h0l.167.059h.171l.167-.059h0l.005,0h.014l0,0h0l.008-.005h0l.09-.063h0l.012-.008h0l0,0h0l0,0h0l0,0h.009l0,0h0l0,0h0l.006-.006h0l2.426-2.618c.114-.121-.617-1.17-.732-1.049" transform="translate(0.67 0.799)" fill="#fff"/>
    <path id="Path_331" d="M8.374,7.423l3.185-3.376,1.214,1.287L6.418,12.069l.066,0,.077.444.552.567,6.952-7.285.022-.023.005-.005.037-.05.013-.019,0-.006,0-.006.009-.014.024-.049.009-.021,0-.008,0-.006.008-.022.017-.053.012-.046,0-.03V5.4l0-.049V5.319l0-.057V5.245l0-.014V5.222l0-.014-.012-.046-.017-.053L14.2,5.1l0-.008,0-.008-.012-.027L14.158,5l-.017-.027-.013-.019L14.086,4.9l-.021-.021h.019L12,2.669h0l-.005-.006h0l0,0h-.005l0,0h-.006l0,0h-.005l0,0h0l-.005,0h0l-.012-.008h0l-.087-.062h0l-.006-.005h0l0,0h-.014l-.005,0h0l-.167-.059h-.171l-.167.059h0l-.005,0h-.014l0,0h0l-.008.005h0l-.089.063h0l-.012.008h0l0,0h0l0,0h0l0,0h-.009v0h-.005l0,0h0l-.006.006h0L7.5,6.523" transform="translate(1.834 0.707)" fill="#fff"/>
    <path id="Path_332" d="M13.565,10.973v-.031l-.005-.03-.01-.045-.018-.051-.009-.023,0-.006,0-.008-.009-.021-.026-.048-.008-.013-.005-.006,0-.008-.013-.018-.039-.05,0-.005L6.016,3a.611.611,0,0,0-.437-.186c-.165,0-.235,0-.351.117A.437.437,0,0,0,5.1,3.3a.643.643,0,0,0,.181.45l6.931,7.143-1.368,1.416L9.076,10.33c-.117-.12-1.086.8-.969.924l2.307,2.413h0l.006.006h0l0,0h.005l0,0h.009l0,0h0l0,0h.006l.012.008h0l.091.062h0l.008.005h0l0,0H10.6l.17.059h.172l.17-.059h.022l0,0h0l.008-.005h0l.089-.06h0l.01-.008h0l.005,0h0l0,0h0l0,0h.006l0,0h0l0,0h0l.005-.006h0l2.115-2.181h-.019l.021-.021.042-.055.013-.019.017-.027.026-.048.012-.027,0-.008,0-.006.005-.015.018-.051.01-.045,0-.015V11.14l0-.014V11.11l0-.055v-.032Z" transform="translate(1.456 0.803)" fill="#fff"/>
    <path id="Path_333" d="M8.214,6.521,4.6,2.8h0L4.6,2.794h0l0,0H4.587l0,0H4.575l0,0h0l0,0h0l0,0h0l-.012-.006h0l-.09-.063h0l-.008-.005h0l0,0H4.43l-.005,0h0l-.17-.058H4.08l-.17.058h0l-.005,0H3.889l0,0h0l-.008.005h0l-.089.062h0l-.01.006h0l-.005,0h0l0,0h0l0,0H3.748l0,0H3.741l0,0h0L3.73,2.8h0L1.6,4.995h0l0,0V5l0,0h0v0h0v0h0v0h0l0,.005h0l0,.006h0l-.068.1h0l0,.005v0l0,0h0l0,0v0h0v0h0v.006l0,.009h0l-.054.167v.01h0v0h0v0h0v.132h0v0h0v0h0v0h0v.008h0l.054.167v0l0,.009v.012h0v0l0,0h0l0,0h0l0,.006h0l.063.1h0l.006.009h0l0,.006h0l0,0h.006v0h0v0l0,0h0l0,0h0l.005.005v0l6.935,7.147s.851-.909.867-.909L2.926,5.45,4.177,4.162,7.135,7.31" transform="translate(0.406 0.746)" fill="#fff"/>
  </g>
</svg>
