<?xml version="1.0" encoding="utf-8"?>
<!-- Generator: Adobe Illustrator 22.0.0, SVG Export Plug-In . SVG Version: 6.00 Build 0)  -->
<svg version="1.1" id="Layer_1" xmlns="http://www.w3.org/2000/svg" xmlns:xlink="http://www.w3.org/1999/xlink" x="0px" y="0px"
	 viewBox="0 0 20 20" style="enable-background:new 0 0 20 20;" xml:space="preserve">
<style type="text/css">
	.st0{fill:#4D4E4E;}
</style>
<path class="st0" d="M2,18c-0.1-0.9,0-1.8,0.2-2.6c0.2-0.5,0.6-0.9,1.1-1c0.7-0.2,1.5-0.4,2.2-0.6c0.4-0.1,0.9-0.3,1.3-0.5
	c0.9-0.5,1.1-1.1,0.6-2.1C7.1,10.1,6.6,9,6.3,7.9c-0.3-1-0.3-2.1-0.1-3.1c0.4-1.5,1.5-2.5,3.1-2.7c1.1-0.2,2.2,0,3.1,0.7
	c1.4,1,1.7,2.5,1.5,4.1c-0.2,1.5-0.7,2.9-1.4,4.2c-0.6,1.1-0.4,1.8,0.8,2.3c0.8,0.3,1.6,0.5,2.4,0.7c0.3,0.1,0.7,0.2,1,0.3
	c0.6,0.3,1,0.7,1.1,1.4c0.1,0.7,0.1,1.5,0.2,2.2L2,18z"/>
</svg>
