<?xml version="1.0" encoding="utf-8"?>
<!-- Generator: Adobe Illustrator 22.0.0, SVG Export Plug-In . SVG Version: 6.00 Build 0)  -->
<svg version="1.1" id="Layer_1" xmlns="http://www.w3.org/2000/svg" xmlns:xlink="http://www.w3.org/1999/xlink" x="0px" y="0px"
	 viewBox="0 0 20 20" style="enable-background:new 0 0 20 20;" xml:space="preserve">
<style type="text/css">
	.st0{fill:#FFFFFF;}
</style>
<path class="st0" d="M13.4,3.9c-1.3,0-2.4,0.3-3.4,1c-0.9-0.7-2.2-1-3.4-1c-3.4,0-6.1,2.8-6.1,6.1s2.8,6.1,6.1,6.1
	c1.3,0,2.4-0.3,3.4-1c0.9,0.7,2.2,1,3.4,1c3.4,0,6.1-2.8,6.1-6.1S16.8,3.9,13.4,3.9z M2.1,10c0-2.4,2-4.4,4.4-4.4
	c0.8,0,1.5,0.2,2.1,0.6c-0.8,1-1.4,2.3-1.4,3.8s0.6,2.8,1.4,3.8c-0.6,0.3-1.3,0.6-2.1,0.6C4.2,14.4,2.1,12.4,2.1,10z M13.4,14.4
	c-0.8,0-1.5-0.2-2.1-0.6c0.8-1,1.4-2.4,1.4-3.8c0-1.5-0.6-2.8-1.4-3.8c0.6-0.3,1.3-0.6,2.1-0.6c2.4,0,4.4,2,4.4,4.4
	S15.8,14.4,13.4,14.4z"/>
</svg>
