<?xml version="1.0" encoding="utf-8"?>
<!-- Generator: Adobe Illustrator 22.0.0, SVG Export Plug-In . SVG Version: 6.00 Build 0)  -->
<svg version="1.1" id="Layer_1" xmlns="http://www.w3.org/2000/svg" xmlns:xlink="http://www.w3.org/1999/xlink" x="0px" y="0px"
	 viewBox="0 0 20 20" style="enable-background:new 0 0 20 20;" xml:space="preserve">
<g>
	<path style="fill: white" d="M9.5,12.3H8.6c-0.1,0-0.2,0.1-0.2,0.2v1c0,0.1,0.1,0.2,0.2,0.2h0.9c0.1,0,0.2-0.1,0.2-0.2v-1C9.7,12.4,9.6,12.3,9.5,12.3z"
		/>
	<path style="fill: white" d="M7.6,8.3H6.6c-0.1,0-0.2,0.1-0.2,0.2v1c0,0.1,0.1,0.2,0.2,0.2h0.9c0.1,0,0.2-0.1,0.2-0.2v-1C7.8,8.4,7.7,8.3,7.6,8.3z"/>
	<path style="fill: white" d="M9.5,10.3H8.6c-0.1,0-0.2,0.1-0.2,0.2v1c0,0.1,0.1,0.2,0.2,0.2h0.9c0.1,0,0.2-0.1,0.2-0.2v-1C9.7,10.4,9.6,10.3,9.5,10.3z"
		/>
	<path style="fill: white" d="M7.6,12.3H6.6c-0.1,0-0.2,0.1-0.2,0.2v1c0,0.1,0.1,0.2,0.2,0.2h0.9c0.1,0,0.2-0.1,0.2-0.2v-1C7.8,12.4,7.7,12.3,7.6,12.3z"
		/>
	<path style="fill: white" d="M7.6,10.3H6.6c-0.1,0-0.2,0.1-0.2,0.2v1c0,0.1,0.1,0.2,0.2,0.2h0.9c0.1,0,0.2-0.1,0.2-0.2v-1C7.8,10.4,7.7,10.3,7.6,10.3z"
		/>
	<path style="fill: white" d="M9.5,8.3H8.6c-0.1,0-0.2,0.1-0.2,0.2v1c0,0.1,0.1,0.2,0.2,0.2h0.9c0.1,0,0.2-0.1,0.2-0.2v-1C9.7,8.4,9.6,8.3,9.5,8.3z"/>
	<path style="fill: white" d="M13.4,12.3h-0.9c-0.1,0-0.2,0.1-0.2,0.2v1c0,0.1,0.1,0.2,0.2,0.2h0.9c0.1,0,0.2-0.1,0.2-0.2v-1
		C13.6,12.4,13.6,12.3,13.4,12.3z"/>
	<path style="fill: white" d="M12.5,9.6h0.9c0.1,0,0.2-0.1,0.2-0.2v-1c0-0.1-0.1-0.2-0.2-0.2h-0.9c-0.1,0-0.2,0.1-0.2,0.2v1C12.3,9.5,12.4,9.6,12.5,9.6z
		"/>
	<path style="fill: white" d="M13.4,10.3h-0.9c-0.1,0-0.2,0.1-0.2,0.2v1c0,0.1,0.1,0.2,0.2,0.2h0.9c0.1,0,0.2-0.1,0.2-0.2v-1
		C13.6,10.4,13.6,10.3,13.4,10.3z"/>
	<path style="fill: white" d="M15,5.2L15,5.2h-2.4V4.7c0-0.4-0.3-0.7-0.7-0.7s-0.7,0.3-0.7,0.7v0.5H8.7V4.7C8.7,4.3,8.4,4,8,4S7.3,4.3,7.3,4.7v0.5H5
		c-0.4,0-0.7,0.3-0.7,0.7v9.4C4.3,15.7,4.6,16,5,16h10c0.4,0,0.7-0.3,0.7-0.7V5.9C15.7,5.5,15.4,5.2,15,5.2z M5.7,14.6v-8h1.6v0.5
		c0,0.4,0.3,0.7,0.7,0.7s0.7-0.3,0.7-0.7V6.6h2.6v0.5c0,0.4,0.3,0.7,0.7,0.7s0.7-0.3,0.7-0.7V6.6h1.7l0,8H5.7z"/>
	<path style="fill: white" d="M11.5,10.3h-0.9c-0.1,0-0.2,0.1-0.2,0.2v1c0,0.1,0.1,0.2,0.2,0.2h0.9c0.1,0,0.2-0.1,0.2-0.2v-1
		C11.7,10.4,11.6,10.3,11.5,10.3z"/>
	<path style="fill: white" d="M11.5,12.3h-0.9c-0.1,0-0.2,0.1-0.2,0.2v1c0,0.1,0.1,0.2,0.2,0.2h0.9c0.1,0,0.2-0.1,0.2-0.2v-1
		C11.7,12.4,11.6,12.3,11.5,12.3z"/>
	<path style="fill: white" d="M11.5,8.3h-0.9c-0.1,0-0.2,0.1-0.2,0.2v1c0,0.1,0.1,0.2,0.2,0.2h0.9c0.1,0,0.2-0.1,0.2-0.2v-1C11.7,8.4,11.6,8.3,11.5,8.3z
		"/>
</g>
</svg>
