<?xml version="1.0" encoding="utf-8"?>
<!-- Generator: Adobe Illustrator 22.0.0, SVG Export Plug-In . SVG Version: 6.00 Build 0)  -->
<svg version="1.1" id="Layer_1" xmlns="http://www.w3.org/2000/svg" xmlns:xlink="http://www.w3.org/1999/xlink" x="0px" y="0px"
	 viewBox="0 0 20 20" style="enable-background:new 0 0 20 20;" xml:space="preserve">
<style type="text/css">
	.st0{fill:#6EBCDB;}
</style>
<g>
	<path class="st0" d="M10,16.8c-3.7,0-6.8-3-6.8-6.8c0-3.7,3-6.8,6.8-6.8c3.7,0,6.8,3,6.8,6.8C16.8,13.7,13.7,16.8,10,16.8z M10,4.8
		c-2.9,0-5.2,2.4-5.2,5.2c0,2.9,2.4,5.2,5.2,5.2c2.9,0,5.2-2.4,5.2-5.2C15.2,7.1,12.9,4.8,10,4.8z"/>
	<path class="st0" d="M12.7,10.8H7.3c-0.4,0-0.8-0.3-0.8-0.8s0.3-0.8,0.8-0.8h5.4c0.4,0,0.8,0.3,0.8,0.8S13.1,10.8,12.7,10.8z"/>
</g>
</svg>
