<?xml version="1.0" encoding="utf-8"?>
<!-- Generator: Adobe Illustrator 27.5.0, SVG Export Plug-In . SVG Version: 6.00 Build 0)  -->
<svg version="1.1" id="Layer_1" xmlns="http://www.w3.org/2000/svg" xmlns:xlink="http://www.w3.org/1999/xlink" x="0px" y="0px"
	 viewBox="0 0 20 20" style="enable-background:new 0 0 20 20;" xml:space="preserve">
<style type="text/css">
	.icon-apply-all-white-0{clip-path:url(#SVGID_00000115498494304497020780000014167681031279107724_);}
	.icon-apply-all-white-1{fill:#FFFFFF;}
</style>
<g id="Group_505" transform="translate(0 0)">
	<g>
		<defs>
			<rect id="SVGID_1_" x="1" y="2.5" width="18" height="15"/>
		</defs>
		<clipPath id="SVGID_00000049940561022183112350000017272493155590150311_">
			<use xlink:href="#SVGID_1_"  style="overflow:visible;"/>
		</clipPath>
		
			<g id="Group_504" transform="translate(0 0)" style="clip-path:url(#SVGID_00000049940561022183112350000017272493155590150311_);">
			<path id="Path_121" class="icon-apply-all-white-1" d="M12.5,8.3l-4.4,4.4c-0.3,0.3-0.7,0.3-1,0l-2.6-2.5c-0.3-0.3-0.3-0.7,0-1s0.7-0.3,1,0l0,0
				l2.1,2l4-3.9c0.3-0.3,0.7-0.3,1,0C12.8,7.6,12.8,8,12.5,8.3L12.5,8.3z M7.8,2.5c-4.1,0.4-7.2,4-6.8,8.2s4,7.2,8.2,6.8
				s7.2-4,6.8-8.2c-0.2-1.8-0.9-3.4-2.2-4.6C12.2,3.1,10,2.3,7.8,2.5z"/>
			<path id="Path_122" class="icon-apply-all-white-1" d="M16.8,4.7c-1.2-1.2-2.8-2-4.5-2.2c4.1,2.1,5.7,7.2,3.6,11.3c-0.8,1.6-2.1,2.8-3.6,3.6
				c4.1-0.5,7.1-4.2,6.6-8.3C18.8,7.5,18,5.9,16.8,4.7"/>
		</g>
	</g>
</g>
</svg>
