<?xml version="1.0" encoding="utf-8"?>
<!-- Generator: Adobe Illustrator 27.4.0, SVG Export Plug-In . SVG Version: 6.00 Build 0)  -->
<svg version="1.1" id="Layer_1" xmlns="http://www.w3.org/2000/svg" xmlns:xlink="http://www.w3.org/1999/xlink" x="0px" y="0px"
	 viewBox="0 0 20 20" style="enable-background:new 0 0 20 20;" xml:space="preserve">
<style type="text/css">
	.st0{clip-path:url(#SVGID_00000129895227747987883480000005998849774353424318_);}
	.st1{fill:#FFFFFF;}
</style>
<g>
	<g>
		<g>
			<defs>
				<rect id="SVGID_1_" x="-0.7" y="-1.3" width="25.4" height="25.4"/>
			</defs>
			<clipPath id="SVGID_00000131342496317119111920000007721952742389507486_">
				<use xlink:href="#SVGID_1_"  style="overflow:visible;"/>
			</clipPath>
			<g style="clip-path:url(#SVGID_00000131342496317119111920000007721952742389507486_);">
				<g id="Group_560_00000066478849285467975550000012111345896141427330_">
					<path id="Path_139_00000037690991235700538150000006301490847744515510_" class="st1" d="M3.1,12.6c0,0-0.1,0.1-0.1,0.3
						c-0.1,0.4,0.2,0.8,1.3,2c1.3,1.4,1.7,1.6,2.1,1.5c0.1,0,0.2-0.1,0.3-0.1L8.9,14l1.3,1.4l1.3-1.4c0.7,0.7,1.4,1.4,2,2.1
						c0.1,0.1,0.4,0.2,0.6,0.2c0.3,0,0.6-0.2,1-0.6c0.5-0.5,0.7-0.7,1.3-1.4c0.7-0.8,1-1,0.9-1.4c0-0.2-0.1-0.4-0.2-0.5
						c-0.7-0.7-1.5-1.5-2.2-2.2l3.5-3.7c0.1-0.1,0.2-0.3,0.2-0.5c0.1-0.5-0.3-0.8-1.2-1.8c-1.1-1.2-1.4-1.7-2-1.6
						c-0.2,0-0.4,0.1-0.5,0.1c-1.2,1.2-2.4,2.6-3.6,3.8l-0.6-0.7L12.4,4c0.3-0.3,0.2-0.4,0.1-0.6c-0.3-0.3-0.5-0.1-0.7,0.1
						c-0.6,0.6-1.1,1.2-1.7,1.8L8.3,3.3C8.2,3.2,8,3.1,7.8,3.3C7.5,3.6,7.6,3.8,7.7,3.9c0.6,0.6,1.8,1.9,1.8,1.9L8.8,6.5L5.3,3
						C5.2,2.9,5.1,2.8,4.9,2.8C4.4,2.7,4,3.2,2.9,4.2S1.4,5.6,1.5,6.1c0,0.2,0.1,0.3,0.2,0.4l3.6,3.8L3.1,12.6z"/>
				</g>
			</g>
		</g>
	</g>
</g>
</svg>
