<?xml version="1.0" encoding="utf-8"?>
<!-- Generator: Adobe Illustrator 22.0.0, SVG Export Plug-In . SVG Version: 6.00 Build 0)  -->
<svg version="1.1" id="Layer_1" xmlns="http://www.w3.org/2000/svg" xmlns:xlink="http://www.w3.org/1999/xlink" x="0px" y="0px"
	 viewBox="0 0 20 20" style="enable-background:new 0 0 20 20;" xml:space="preserve">
<style type="text/css">
	.st0{fill:#4D4D4D;}
</style>
<g>
	<path class="st0" d="M17.1,10.8l1.4,2.6l-1.4,2.6h-3l-1.5-2.6l1.4-2.6L17.1,10.8"/>
	<path class="st0" d="M1.5,9.3h2.1c0-0.2,0.1-0.3,0.1-0.5C3.5,8.7,2.8,8.2,2.3,7.5c-0.6-1-0.7-1.6-0.7-1.7c0-0.3,0.2-0.5,0.4-0.5
		c0.3,0,0.5,0.2,0.5,0.4c0,0,0,0.4,0.5,1.2c0.3,0.5,0.8,0.9,1,1C4.3,7.5,4.6,7.2,4.9,7C5.1,7,5,6.5,5.1,6c0.1-0.7,0.6-0.8,0.6-0.8
		S5.4,6,6,6.8c0.1,0,0.2,0,0.3,0c0.1,0,0.2,0,0.3,0C7.2,6,6.9,5.3,6.9,5.3s0.5,0,0.6,0.8c0.1,0.4,0,0.9,0,1.1C7.8,7.3,8.2,7.6,8.4,8
		c0.2-0.2,0.7-0.5,1-1C9.9,6.2,10,5.8,10,5.8c0-0.3,0.2-0.5,0.5-0.5S11,5.5,11,5.8c0,0.1,0,0.7-0.7,1.7C9.8,8.2,9.1,8.7,8.9,8.8
		C8.9,9,9,9.2,9,9.3h2.1c0.3,0,0.5,0.2,0.5,0.5s-0.2,0.5-0.5,0.5h-2c0,0.3-0.1,0.7-0.1,1c0.3,0.1,0.7,0.3,1,0.6
		c0.9,0.8,1.2,1.8,1.2,1.8c0.1,0.3-0.1,0.5-0.3,0.6h-0.1c-0.2,0-0.4-0.1-0.5-0.4c0,0-0.2-0.8-0.9-1.3c-0.2-0.2-0.5-0.3-0.8-0.5
		c-0.5,0.9-1.4,1.5-2.3,1.5S4.5,13.1,4,12.1c-0.3,0.1-0.5,0.3-0.8,0.5c-0.7,0.6-0.9,1.3-0.9,1.3c-0.1,0.2-0.2,0.4-0.5,0.4H1.7
		c-0.3-0.1-0.4-0.3-0.4-0.6c0,0,0.3-1.1,1.2-1.8c0.3-0.3,0.7-0.5,1-0.6c-0.1-0.3-0.1-0.6-0.1-1h-2C1.2,10.3,1,10.1,1,9.8
		S1.2,9.3,1.5,9.3z"/>
	<path class="st0" d="M16.9,8.8c0-0.1-0.1-0.1-0.2-0.1h-0.7V7.1c0-0.2-0.2-0.4-0.4-0.4h-4.3c0,0.2-0.1,0.4-0.2,0.7h4.1v1.2h-0.6
		c-0.1,0-0.1,0-0.2,0.1c0,0.1,0,0.1,0,0.2l1,1c0,0,0.1,0,0.1,0c0,0,0.1,0,0.1,0l1-1C16.9,8.9,16.9,8.9,16.9,8.8z"/>
</g>
</svg>
