<?xml version="1.0" encoding="utf-8"?>
<!-- Generator: Adobe Illustrator 22.0.0, SVG Export Plug-In . SVG Version: 6.00 Build 0)  -->
<svg version="1.1" id="Layer_1" xmlns="http://www.w3.org/2000/svg" xmlns:xlink="http://www.w3.org/1999/xlink" x="0px" y="0px"
	 viewBox="0 0 20 20" style="enable-background:new 0 0 20 20;" xml:space="preserve">
<style type="text/css">
	.st0{fill:#4D4E4E;}
</style>
<g>
	<path class="st0" d="M12.3,1.8C10.1,1.4,7.8,2,6,3.4C4.2,4.7,3.1,6.7,2.8,9l0,0L1,8.7c-0.1,0-0.3,0-0.3,0.2C0.6,9,0.6,9.1,0.7,9.2
		l2.5,3.2c0.1,0.1,0.3,0.2,0.4,0.1l3.2-2.4C7,10,7,9.9,7,9.8c0-0.1-0.1-0.2-0.3-0.2L4.9,9.3c0-0.1,0-0.1,0-0.2l0,0
		c0.3-1.8,1.3-3.4,2.8-4.4c1.5-1,3.4-1.2,5.2-0.7c1.7,0.5,3.2,1.8,3.9,3.5c0.7,1.7,0.7,3.6-0.1,5.2c-0.8,1.6-2.3,2.9-4,3.3
		c-1.8,0.5-3.6,0.2-5.1-0.9c-0.4-0.2-0.8-0.2-1.2,0c-0.3,0.2-0.4,0.5-0.4,0.9c0,0.3,0.2,0.7,0.5,0.8c2.1,1.4,4.7,1.8,7.2,1.1
		c2.4-0.8,4.4-2.6,5.3-4.9c0.9-2.4,0.7-5-0.6-7.2C17,3.6,14.8,2.1,12.3,1.8L12.3,1.8z"/>
	<path class="st0" d="M11.6,5.6c-0.3,0-0.5,0.1-0.7,0.3c-0.2,0.2-0.3,0.4-0.3,0.7v3.2L8,11.7c-0.4,0.3-0.5,1-0.2,1.4
		c0.3,0.4,1,0.5,1.4,0.2l3.4-2.5h0l0-4.2c0-0.3-0.1-0.5-0.3-0.7C12.1,5.7,11.9,5.6,11.6,5.6L11.6,5.6z"/>
</g>
</svg>
