<?xml version="1.0" encoding="utf-8"?>
<!-- Generator: Adobe Illustrator 22.0.0, SVG Export Plug-In . SVG Version: 6.00 Build 0)  -->
<svg version="1.1" id="Layer_1" xmlns="http://www.w3.org/2000/svg" xmlns:xlink="http://www.w3.org/1999/xlink" x="0px" y="0px"
	 viewBox="0 0 20 20" style="enable-background:new 0 0 20 20;" xml:space="preserve">
<style type="text/css">
	.st0{fill:#555;}
</style>
<path class="st0" d="M16,6.1c0-0.2-0.1-0.3-0.3-0.4L10,2.2C9.8,2,9.4,2.1,9.3,2.4C9.2,2.5,9.2,2.7,9.2,2.8C9.3,3,9.3,3.3,9.4,3.5
	C9.8,6.2,8,8.6,5.3,9.1C5.2,9.1,5,9.2,5,9.3C4.9,9.4,4.8,9.5,4.9,9.7c0,0.2,0.1,0.3,0.3,0.4l2.4,1.5l-3.4,5.5
	c-0.2,0.2-0.1,0.6,0.2,0.7c0.1,0.1,0.2,0.1,0.3,0.1c0.2,0,0.3-0.1,0.4-0.2l3.4-5.5l2.4,1.5c0.1,0.1,0.2,0.1,0.3,0.1
	c0.2,0,0.4-0.1,0.5-0.3c0.1-0.1,0.1-0.3,0.1-0.5c-0.1-0.2-0.1-0.5-0.2-0.7c-0.4-2.7,1.4-5.1,4.1-5.6c0.1,0,0.3-0.1,0.4-0.2
	C16,6.4,16,6.3,16,6.1L16,6.1z"/>
</svg>
