<?xml version="1.0" encoding="utf-8"?>
<!-- Generator: Adobe Illustrator 22.0.0, SVG Export Plug-In . SVG Version: 6.00 Build 0)  -->
<svg version="1.1" id="Layer_1" xmlns="http://www.w3.org/2000/svg" xmlns:xlink="http://www.w3.org/1999/xlink" x="0px" y="0px"
	 viewBox="0 0 20 20" style="enable-background:new 0 0 20 20;" xml:space="preserve">
<style type="text/css">
	.st0{fill:#FFFFFF;}
</style>
<path class="st0" d="M18,16c-0.4,0-0.7,0.1-1,0.3l-3.1-3.1c0.7-0.9,1.1-1.9,1.1-3.1s-0.4-2.3-1.1-3.1L17,3.7C17.3,3.9,17.6,4,18,4
	c1.1,0,2-0.9,2-2c0-1.1-0.9-2-2-2s-2,0.9-2,2c0,0.4,0.1,0.7,0.3,1l-3.1,3.1C12.3,5.4,11.2,5,10,5S7.7,5.4,6.9,6.1L3.7,3
	C3.9,2.7,4,2.4,4,2c0-1.1-0.9-2-2-2S0,0.9,0,2c0,1.1,0.9,2,2,2c0.4,0,0.7-0.1,1-0.3l3.1,3.1C5.4,7.7,5,8.8,5,10s0.4,2.3,1.1,3.1
	L3,16.3C2.7,16.1,2.4,16,2,16c-1.1,0-2,0.9-2,2c0,1.1,0.9,2,2,2s2-0.9,2-2c0-0.4-0.1-0.7-0.3-1l3.1-3.1C7.7,14.6,8.8,15,10,15
	s2.3-0.4,3.1-1.1l3.1,3.1c-0.2,0.3-0.3,0.6-0.3,1c0,1.1,0.9,2,2,2s2-0.9,2-2C20,16.9,19.1,16,18,16z"/>
</svg>
