<?xml version="1.0" encoding="utf-8"?>
<!-- Generator: Adobe Illustrator 22.0.0, SVG Export Plug-In . SVG Version: 6.00 Build 0)  -->
<svg version="1.1" id="Layer_1" xmlns="http://www.w3.org/2000/svg" xmlns:xlink="http://www.w3.org/1999/xlink" x="0px" y="0px"
	 viewBox="0 0 20 20" style="enable-background:new 0 0 20 20;" xml:space="preserve">
<style type="text/css">
	.st0{fill:#4D4E4E;}
</style>
<path class="st0" d="M16.1,3.1H3.9c-0.3,0-0.6,0.3-0.6,0.6v1.1c0,0.2,0.2,0.4,0.4,0.4H4l0-0.2c0-0.2,0-0.4,0.2-0.6
	c0.1-0.2,0.3-0.2,0.5-0.2h10.7c0.2,0,0.4,0.1,0.5,0.2C16,4.5,16.1,4.7,16,4.9l0,0.2h0.3c0.2,0,0.4-0.2,0.4-0.4V3.7
	C16.7,3.3,16.4,3.1,16.1,3.1z"/>
<path class="st0" d="M15.3,4.6H4.7c-0.1,0-0.1,0-0.2,0.1c0,0.1-0.1,0.1-0.1,0.2l1.3,9.1c0,0,0,0,0,0L6,16.1c0,0.1,0.1,0.2,0.2,0.2
	h1.4c0.1,0,0.2-0.1,0.2-0.2l0-1h1l0.1,1c0,0.1,0.1,0.2,0.2,0.2h1.4c0.1,0,0.2-0.1,0.2-0.2l0.1-1h1l0,1c0,0.1,0.1,0.2,0.2,0.2h1.4
	c0.1,0,0.2-0.1,0.2-0.2l0.2-1.2c0,0,0,0,0,0l0.2-1.2c0,0,0,0,0,0l1.2-8.7c0-0.1,0-0.1-0.1-0.2C15.5,4.6,15.4,4.6,15.3,4.6z"/>
</svg>
