<?xml version="1.0" encoding="utf-8"?>
<!-- Generator: Adobe Illustrator 22.0.0, SVG Export Plug-In . SVG Version: 6.00 Build 0)  -->
<svg version="1.1" id="Layer_1" xmlns="http://www.w3.org/2000/svg" xmlns:xlink="http://www.w3.org/1999/xlink" x="0px" y="0px"
	 viewBox="0 0 20 16" style="enable-background:new 0 0 20 16;" xml:space="preserve">
<style type="text/css">
	.st0{fill:#FFFFFF;}
</style>
<g>
	<path class="st0" d="M5.4,8.6V1.5H3.6v7.1C2.8,9,2.3,9.8,2.3,10.7s0.6,1.7,1.4,2.1v1.7h1.7v-1.7c0.8-0.3,1.4-1.1,1.4-2.1
		S6.2,9,5.4,8.6z"/>
	<path class="st0" d="M10.9,3.2V1.5H9.1v1.7C8.3,3.6,7.8,4.4,7.8,5.3S8.4,7,9.2,7.4v7.1h1.7V7.4c0.8-0.3,1.4-1.1,1.4-2.1
		C12.2,4.4,11.7,3.6,10.9,3.2z"/>
	<path class="st0" d="M17.7,10.7c0-0.9-0.6-1.7-1.4-2.1V1.5h-1.7v7.1c-0.8,0.3-1.4,1.1-1.4,2.1s0.6,1.7,1.4,2.1v1.7h1.7v-1.7
		C17.2,12.4,17.7,11.6,17.7,10.7z"/>
</g>
</svg>
