<?xml version="1.0" encoding="utf-8"?>
<!-- Generator: Adobe Illustrator 22.0.0, SVG Export Plug-In . SVG Version: 6.00 Build 0)  -->
<svg version="1.1" id="Layer_1" xmlns="http://www.w3.org/2000/svg" xmlns:xlink="http://www.w3.org/1999/xlink" x="0px" y="0px"
	 viewBox="0 0 20 20" style="enable-background:new 0 0 20 20;" xml:space="preserve">
<style type="text/css">
	.st0{fill:#4D4E4E;}
</style>
<g>
	<path class="st0" d="M18.1,7.7l-7.6-6.5c-0.3-0.3-0.7-0.3-1,0L1.9,7.7c0,0,0,0,0.1,0c0,0,0,0-0.1,0l2.8,2.4V7.3
		c0-0.5,0.4-0.9,0.9-0.9h8.9c0.5,0,0.9,0.4,0.9,0.9v2.8L18.1,7.7C18.1,7.7,18,7.7,18.1,7.7C18,7.7,18,7.7,18.1,7.7z"/>
	<path class="st0" d="M13.4,8.7h-7c-0.3,0-0.5-0.2-0.5-0.5c0-0.3,0.2-0.5,0.5-0.5h7c0.3,0,0.5,0.2,0.5,0.5
		C13.9,8.4,13.7,8.7,13.4,8.7z"/>
	<path class="st0" d="M13.4,10.7h-7c-0.3,0-0.5-0.2-0.5-0.5c0-0.3,0.2-0.5,0.5-0.5h7c0.3,0,0.5,0.2,0.5,0.5
		C13.9,10.5,13.7,10.7,13.4,10.7z"/>
	<path class="st0" d="M11.4,15.2c-0.8,0.7-2,0.7-2.8,0L1,8.7c0,0.1,0,0.1,0,0.2v8.8C1,18.4,1.6,19,2.3,19h15.3
		c0.7,0,1.3-0.6,1.3-1.3V8.9c0-0.1,0-0.1,0-0.2L11.4,15.2z"/>
</g>
</svg>
