<?xml version="1.0" encoding="utf-8"?>
<!-- Generator: Adobe Illustrator 22.0.0, SVG Export Plug-In . SVG Version: 6.00 Build 0)  -->
<svg version="1.1" id="Layer_1" xmlns="http://www.w3.org/2000/svg" xmlns:xlink="http://www.w3.org/1999/xlink" x="0px" y="0px"
	 viewBox="0 0 20 20" style="enable-background:new 0 0 20 20;" xml:space="preserve">
<style type="text/css">
	.st0{fill:#FFFFFF;}
</style>
<path class="st0" d="M18.7,17.2l-4.4-4.4c0.9-1.2,1.5-2.8,1.5-4.4c0-4.1-3.3-7.4-7.4-7.4S1,4.3,1,8.4c0,4.1,3.3,7.4,7.4,7.4
	c1.7,0,3.2-0.6,4.4-1.5l4.4,4.4c0.2,0.2,0.5,0.3,0.7,0.3s0.5-0.1,0.7-0.3C19.1,18.3,19.1,17.6,18.7,17.2z M8.4,3.1
	c2.9,0,5.3,2.4,5.3,5.3c0,0.5-0.1,0.9-0.2,1.3h-1.8L11.1,8c-0.1-0.2-0.2-0.3-0.4-0.3c-0.2,0-0.4,0.1-0.5,0.3l-1.6,2.6L7.8,4.9
	c0-0.2-0.2-0.4-0.5-0.5c-0.2,0-0.5,0.1-0.6,0.3L5.3,8.4H3.1C3.1,5.5,5.5,3.1,8.4,3.1z M3.2,9.4h2.5c0.2,0,0.4-0.1,0.5-0.3L7,7
	l0.7,5.2c0,0.2,0.2,0.4,0.4,0.4c0,0,0.1,0,0.1,0c0.2,0,0.4-0.1,0.5-0.3l1.8-3l0.4,1.1c0.1,0.2,0.3,0.3,0.5,0.3h1.7
	c-0.2,0.4-0.5,0.8-0.8,1.1c-0.1,0-0.2,0.1-0.3,0.2c-0.1,0.1-0.1,0.2-0.2,0.3c-0.9,0.8-2.2,1.4-3.5,1.4C5.8,13.7,3.7,11.9,3.2,9.4z"
	/>
</svg>
