<?xml version="1.0" encoding="utf-8"?>
<!-- Generator: Adobe Illustrator 22.0.0, SVG Export Plug-In . SVG Version: 6.00 Build 0)  -->
<svg version="1.1" id="Layer_1" xmlns="http://www.w3.org/2000/svg" xmlns:xlink="http://www.w3.org/1999/xlink" x="0px" y="0px"
	 viewBox="0 0 20 20" style="enable-background:new 0 0 20 20;" xml:space="preserve">
<style type="text/css">
	.st0{fill:#4D4E4E;}
</style>
<g>
	<path class="st0" d="M16.2,14.4H3.8V7.6h12.4L16.2,14.4L16.2,14.4z M19,8.3V7.6c-1,0-1.8-0.8-1.8-1.8H2.8c0,1-0.8,1.8-1.8,1.8v0.7
		c0.3,0,0.5,0.2,0.5,0.5S1.3,9.3,1,9.3v0.5c0.3,0,0.5,0.2,0.5,0.5S1.3,10.8,1,10.8v0.5c0.3,0,0.5,0.2,0.5,0.5S1.3,12.2,1,12.2v0.5
		c0.3,0,0.5,0.2,0.5,0.5S1.3,13.7,1,13.7v0.7c1,0,1.8,0.8,1.8,1.8h14.5c0-1,0.8-1.8,1.8-1.8v-0.7c-0.3,0-0.5-0.2-0.5-0.5
		s0.2-0.5,0.5-0.5v-0.5c-0.3,0-0.5-0.2-0.5-0.5s0.2-0.5,0.5-0.5v-0.5c-0.3,0-0.5-0.2-0.5-0.5s0.2-0.5,0.5-0.5V9.3
		c-0.3,0-0.5-0.2-0.5-0.5C18.5,8.5,18.7,8.3,19,8.3z"/>
	<rect x="4.6" y="8.4" class="st0" width="10.8" height="5.2"/>
</g>
</svg>
