<?xml version="1.0" encoding="utf-8"?>
<!-- Generator: Adobe Illustrator 22.0.0, SVG Export Plug-In . SVG Version: 6.00 Build 0)  -->
<svg version="1.1" id="Layer_1" xmlns="http://www.w3.org/2000/svg" xmlns:xlink="http://www.w3.org/1999/xlink" x="0px" y="0px"
	 viewBox="0 0 20 20" style="enable-background:new 0 0 20 20;" xml:space="preserve">
<style type="text/css">
	.st0{fill:#4D4E4E;}
</style>
<path class="st0" d="M16.1,3.1H3.9c-0.3,0-0.6,0.3-0.6,0.6v1.1c0,0.2,0.2,0.4,0.4,0.4H4v0h0.4L5.7,14L6,16.1c0,0.1,0.1,0.2,0.2,0.2
	h1.4c0.1,0,0.2-0.1,0.2-0.2v-1h1l0.1,1c0,0.1,0.1,0.2,0.2,0.2h1.4c0.1,0,0.2-0.1,0.2-0.2l0.1-1h1v1c0,0.1,0.1,0.2,0.2,0.2h1.4
	c0.1,0,0.2-0.1,0.2-0.2l0.2-1.2l0.2-1.2l1.2-8.5h1.1l0.1,0c0.2,0,0.4-0.2,0.4-0.4V3.7C16.7,3.3,16.4,3.1,16.1,3.1z"/>
</svg>
