<?xml version="1.0" encoding="utf-8"?>
<!-- Generator: Adobe Illustrator 22.0.0, SVG Export Plug-In . SVG Version: 6.00 Build 0)  -->
<svg version="1.1" id="Layer_1" xmlns="http://www.w3.org/2000/svg" xmlns:xlink="http://www.w3.org/1999/xlink" x="0px" y="0px"
	 viewBox="0 0 14 14" style="enable-background:new 0 0 14 14;" xml:space="preserve">
<style type="text/css">
	.st0{fill:#717273;}
</style>
<path class="st0" d="M11.9,2.1C11.9,2.1,11.9,2.1,11.9,2.1c-0.1-0.1-0.1,0-0.1,0c-0.4,0.9-1,1.5-1.4,1.9c0,0-0.1-0.1-0.1-0.1
	C9.4,3,8.3,2.5,7,2.5C5.8,2.5,4.6,3,3.7,3.9c0,0-0.1,0.1-0.1,0.1c-0.5-0.3-1-0.9-1.4-1.9c0-0.1,0-0.1-0.1-0.1c0,0,0,0,0,0
	c0,0.5,0.1,1.9,0.8,3C2.5,5.7,2.3,6.5,2.3,7.2c0,1.3,0.5,2.4,1.4,3.3c0.9,0.9,2.1,1.4,3.3,1.4c1.3,0,2.4-0.5,3.3-1.4
	c0.9-0.9,1.4-2.1,1.4-3.3c0-0.8-0.2-1.5-0.5-2.2C11.9,4,12,2.6,11.9,2.1z"/>
</svg>
