<?xml version="1.0" encoding="utf-8"?>
<!-- Generator: Adobe Illustrator 22.0.0, SVG Export Plug-In . SVG Version: 6.00 Build 0)  -->
<svg version="1.1" id="Layer_1" xmlns="http://www.w3.org/2000/svg" xmlns:xlink="http://www.w3.org/1999/xlink" x="0px" y="0px"
	 viewBox="0 0 20 20" style="enable-background:new 0 0 20 20;" xml:space="preserve">
<style type="text/css">
	.st0{fill:#FFFFFF;}
</style>
<g>
	<path class="st0" d="M15.6,1.9c-0.5,0-0.8,0.4-0.8,0.8s0.4,0.8,0.8,0.8h0.9l-3.3,3.3c-0.4,0.4-0.4,0.9,0,1.3c0.4,0.4,0.9,0.4,1.3,0
		l3.3-3.3v0.9c0,0.5,0.4,0.8,0.8,0.8c0.5,0,0.8-0.4,0.8-0.8V2.8c0-0.5-0.4-0.9-0.9-0.9H15.6z"/>
	<path class="st0" d="M6.7,13.2c0,1.1,0.8,1.9,1.8,1.9s1.8-0.8,1.8-1.9c0-1.1-0.8-1.9-1.8-1.9c0,0,0.1,0.5-0.6,1.2
		C7.3,13.2,6.7,13.2,6.7,13.2z M5,13.2c0-2.1,1.5-3.9,3.5-3.9c1.9,0,3.5,1.8,3.5,3.9S10.5,17,8.5,17S5,15.3,5,13.2z M0.5,13.2
		c0,0.7,2.7,4.9,7.9,4.9s7.9-4.3,7.9-4.9c0-0.7-2.7-4.9-7.9-4.9S0.5,12.5,0.5,13.2z"/>
</g>
</svg>
