<?xml version="1.0" encoding="utf-8"?>
<!-- Generator: Adobe Illustrator 22.0.0, SVG Export Plug-In . SVG Version: 6.00 Build 0)  -->
<svg version="1.1" id="Layer_1" xmlns="http://www.w3.org/2000/svg" xmlns:xlink="http://www.w3.org/1999/xlink" x="0px" y="0px"
	 viewBox="0 0 20 20" style="enable-background:new 0 0 20 20;" xml:space="preserve">

	<path style="fill: white" d="M4.1,3C5,4.7,5,6.7,4.1,8.3C3.2,6.7,3.2,4.7,4.1,3z"/>
	<path style="fill: white" d="M14.5,15.3c0.6,0,1,0.4,1,1.1c0,0-2.2,0-3.8-0.5l1.6-0.9C13.7,15.3,14.1,15.3,14.5,15.3z"/>
	<path style="fill: white" d="M4.6,8.9c0.7-2.7,2-4.7,4-5.9c0,2-1,4.1-2.9,6.3l0.7,0.6l0.1-0.1c0.7-0.9,2.3-3.5,5.5-3.5l0,0c2.1,0,3.6,1.1,4,2.7
		c1-0.3,2.3,0.2,2.3,1.5c0,1.5-1.7,2-2.7,1.4c-0.7,1.2-2.4,2.8-6.1,4.6c-0.3,0.1-0.8,0.5-2,0.5H4.7c0-1.1,1-1.1,3.3-1.2
		c0-2.4,0.4-4,1.5-5.6c-1.5,1.2-2,2.7-2,4.4l-3.2-2.4l0,0c-1,0-2.2-0.1-2.2-0.9C2,10.3,3.4,9.1,4.6,8.9z"/>
</svg>
