<?xml version="1.0" encoding="utf-8"?>
<!-- Generator: Adobe Illustrator 22.0.0, SVG Export Plug-In . SVG Version: 6.00 Build 0)  -->
<svg version="1.1" id="Layer_1" xmlns="http://www.w3.org/2000/svg" xmlns:xlink="http://www.w3.org/1999/xlink" x="0px" y="0px"
	 viewBox="0 0 22 22" style="enable-background:new 0 0 22 22;" xml:space="preserve">
<style type="text/css">
	.st0{fill:#FC4349;}
	.st1{fill:#FFFFFF;}
</style>
<g>
	<g>
		<circle class="st0" cx="11" cy="11" r="9.5"/>
		<path class="st1" d="M11,21.5C5.2,21.5,0.5,16.8,0.5,11S5.2,0.5,11,0.5S21.5,5.2,21.5,11S16.8,21.5,11,21.5z M11,2.6
			c-4.6,0-8.4,3.8-8.4,8.4s3.8,8.4,8.4,8.4s8.4-3.8,8.4-8.4S15.6,2.6,11,2.6z"/>
	</g>
</g>
<g>
	<rect x="10" y="6.1" transform="matrix(0.7071 -0.7071 0.7071 0.7071 -4.5086 11.1152)" class="st1" width="2.4" height="9.7"/>
	<rect x="6.3" y="9.8" transform="matrix(0.7071 -0.7071 0.7071 0.7071 -4.5086 11.1152)" class="st1" width="9.7" height="2.4"/>
</g>
</svg>
