<?xml version="1.0" encoding="utf-8"?>
<!-- Generator: Adobe Illustrator 25.2.1, SVG Export Plug-In . SVG Version: 6.00 Build 0)  -->
<svg version="1.1" id="Layer_1" xmlns="http://www.w3.org/2000/svg" xmlns:xlink="http://www.w3.org/1999/xlink" x="0px" y="0px"
	 viewBox="0 0 20 20" style="enable-background:new 0 0 20 20;" xml:space="preserve">
<style type="text/css">
	.st0{fill-rule:evenodd;clip-rule:evenodd;fill:#FFFFFF;}
</style>
<path class="st0" d="M17.5,1.1h-15c-1.2,0-2.3,1-2.3,2.3v9.3c0,1.2,1,2.3,2.3,2.3h0.8l0.1,3.7c0,0.4,0.5,0.4,0.7,0.3l3.8-3.8h9.6
	c1.2,0,2.3-1,2.3-2.3V3.3C19.8,2.1,18.7,1.1,17.5,1.1 M10,2.8l1.7,3.4l3.6,0.4l-2.7,2.7l0.6,3.7L10,11.2l-3.3,1.7l0.6-3.7L4.6,6.6
	l3.7-0.5L10,2.8z"/>
</svg>
