<?xml version="1.0" encoding="utf-8"?>
<!-- Generator: Adobe Illustrator 22.0.0, SVG Export Plug-In . SVG Version: 6.00 Build 0)  -->
<svg version="1.1" id="Layer_1" xmlns="http://www.w3.org/2000/svg" xmlns:xlink="http://www.w3.org/1999/xlink" x="0px" y="0px"
	 viewBox="0 0 20 20" style="enable-background:new 0 0 20 20;" xml:space="preserve">
<style type="text/css">
	.st0{fill:#3D3D3D;}
</style>
<g>
	<path class="st0" d="M10.4,9.5h2v-2h1.4v2h1.8v1.2h-1.8v2h-1.4v-2h-1.8l-0.1,0L10.4,9.5z M13.1,15.1c2.7,0,4.9-2.2,4.9-4.9
		s-2.2-4.9-4.9-4.9c-2.7,0-4.9,2.2-4.9,4.9C8.2,12.9,10.4,15.1,13.1,15.1z"/>
	<path class="st0" d="M5.2,4.3l1.3-1.2h5.2c0.7,0,1.3,0.5,1.3,1.2H6.4v3.4h0H3.1v8h9.9c0,0.7-0.6,1.2-1.3,1.2H3.3
		c-0.7,0-1.3-0.5-1.3-1.2V7.6L5.2,4.3z"/>
</g>
</svg>
