<?xml version="1.0" encoding="utf-8"?>
<!-- Generator: Adobe Illustrator 22.0.0, SVG Export Plug-In . SVG Version: 6.00 Build 0)  -->
<svg version="1.1" id="Layer_1" xmlns="http://www.w3.org/2000/svg" xmlns:xlink="http://www.w3.org/1999/xlink" x="0px" y="0px"
	 viewBox="0 0 20 20" style="enable-background:new 0 0 20 20;" xml:space="preserve">
<style type="text/css">
	.st0{fill:#C14B92;}
</style>
<path class="st0" d="M10.6,13.1c0,0.4-0.2,0.6-0.6,0.6s-0.6-0.2-0.6-0.6L8.8,7.3c0-0.6,0.4-1.2,1.2-1.2s1.2,0.6,1.2,1.2L10.6,13.1z
	 M10,16.3c-0.6,0-1-0.4-1-1s0.4-1,1-1s1,0.4,1,1S10.6,16.3,10,16.3z M18.8,16.4c-0.3-0.6-7.4-12.7-8-13.8c-0.4-0.7-1.3-0.7-1.7,0
	s-7.5,12.9-8,13.8c-0.4,0.6,0,1.5,0.9,1.5h16C18.7,17.9,19.3,17.1,18.8,16.4L18.8,16.4z"/>
</svg>
