<?xml version="1.0" encoding="utf-8"?>
<!-- Generator: Adobe Illustrator 22.0.0, SVG Export Plug-In . SVG Version: 6.00 Build 0)  -->
<svg version="1.1" id="Layer_1" xmlns="http://www.w3.org/2000/svg" xmlns:xlink="http://www.w3.org/1999/xlink" x="0px" y="0px"
	 viewBox="0 0 20 20" style="enable-background:new 0 0 20 20;" xml:space="preserve">
<style type="text/css">
	.st0{fill:#4D4D4D;}
</style>
<path class="st0" d="M10,13.8c-1,0-1.9-0.3-2.6-1.1C6.7,11.9,6.2,11,6.2,10s0.3-1.9,1.1-2.6C8.1,6.7,9,6.2,10,6.2s1.9,0.3,2.6,1.1
	c0.7,0.7,1.1,1.6,1.1,2.6c0,1-0.3,1.9-1.1,2.6C11.9,13.3,11,13.7,10,13.8L10,13.8z M17.6,8.1c-1.8-2.3-4.7-3.6-7.6-3.6
	S4.3,5.8,2.4,8.1L1.2,9.5c-0.2,0.2-0.2,0.6,0,0.9l1.3,1.5c1.8,2.3,4.7,3.6,7.6,3.6s5.7-1.3,7.6-3.6l1.3-1.5c0.2-0.2,0.2-0.6,0-0.9
	L17.6,8.1z"/>
</svg>
