<?xml version="1.0" encoding="utf-8"?>
<!-- Generator: Adobe Illustrator 26.3.1, SVG Export Plug-In . SVG Version: 6.00 Build 0)  -->
<svg version="1.1" id="Layer_1" xmlns="http://www.w3.org/2000/svg" xmlns:xlink="http://www.w3.org/1999/xlink" x="0px" y="0px"
	 viewBox="0 0 20 20" style="enable-background:new 0 0 20 20;" xml:space="preserve">
<style type="text/css">
	.st0{fill:#EFC721;}
	.st1{fill:#FFFFFF;}
</style>
<g>
	<path id="Path_3_00000148650835716825351810000013131768343105201822_" class="st0" d="M10,2.6l-2.5,5L2.1,8.3l4,3.9l-0.9,5.5
		l4.9-2.6l4.9,2.6L14,12.2l4-3.9l-5.5-0.8L10,2.6z"/>
	<path class="st1" d="M4.3,18.7l1.1-6.3L0.8,7.9L7.2,7L10,1.3L12.8,7l6.3,0.9l-4.6,4.5l1.1,6.3l-5.7-3L4.3,18.7z M10,14.5l4.2,2.2
		L13.4,12l3.4-3.3l-4.6-0.7L10,3.9L7.9,8.1L3.3,8.7L6.6,12l-0.8,4.6L10,14.5z"/>
</g>
</svg>
