<?xml version="1.0" encoding="utf-8"?>
<!-- Generator: Adobe Illustrator 26.0.2, SVG Export Plug-In . SVG Version: 6.00 Build 0)  -->
<svg version="1.1" id="Layer_1" xmlns="http://www.w3.org/2000/svg" xmlns:xlink="http://www.w3.org/1999/xlink" x="0px" y="0px"
	 viewBox="0 0 20 20" style="enable-background:new 0 0 20 20;" xml:space="preserve">
<style type="text/css">
	.icon-confluence{fill:#333333;}
</style>
<g id="Layer_2_00000046298683895468378600000016195523986404989596_">
	<g id="Blue">
		<path class="icon-confluence" d="M3.2,13.7c-0.2,0.2-0.3,0.5-0.5,0.8c-0.1,0.2-0.1,0.5,0.2,0.6l3,1.9c0.2,0.1,0.5,0.1,0.6-0.2c0,0,0,0,0,0
			C6.7,16.6,6.9,16.3,7,16c1.2-2,2.4-1.7,4.6-0.7l3,1.4c0.2,0.1,0.5,0,0.6-0.2c0,0,0,0,0,0l1.4-3.2c0.1-0.2,0-0.5-0.2-0.6
			c-0.6-0.3-1.9-0.9-3-1.4C9.3,9.3,5.9,9.4,3.2,13.7z"/>
		<path class="icon-confluence" d="M16.8,6.3c0.2-0.2,0.3-0.5,0.5-0.8c0.1-0.2,0.1-0.5-0.2-0.6l-3-1.9c-0.2-0.1-0.5-0.1-0.6,0.1c0,0,0,0,0,0
			c-0.1,0.2-0.3,0.5-0.4,0.7c-1.2,2-2.4,1.7-4.6,0.7l-3-1.4c-0.2-0.1-0.5,0-0.6,0.2c0,0,0,0,0,0L3.3,6.7C3.2,7,3.3,7.2,3.6,7.3
			c0.6,0.3,1.9,0.9,3,1.4C10.7,10.7,14.1,10.6,16.8,6.3z"/>
	</g>
</g>
</svg>
