<?xml version="1.0" encoding="utf-8"?>
<!-- Generator: Adobe Illustrator 22.0.0, SVG Export Plug-In . SVG Version: 6.00 Build 0)  -->
<svg version="1.1" id="Layer_1" xmlns="http://www.w3.org/2000/svg" xmlns:xlink="http://www.w3.org/1999/xlink" x="0px" y="0px"
	 viewBox="0 0 20 20" style="enable-background:new 0 0 20 20;" xml:space="preserve">
<style type="text/css">
	.st0{fill:#4D4E4E;}
</style>
<path class="st0" d="M2,1.4v17.2h16V1.4H2z M15.8,5.8c0,0.2-0.2,0.3-0.3,0.3l0,0h-0.9l-1,7.3l-0.2,1l-0.2,1c0,0.1-0.1,0.2-0.2,0.2
	h-1.2c-0.1,0-0.2-0.1-0.2-0.2v-0.9h-0.9l-0.1,0.9c0,0.1-0.1,0.2-0.2,0.2H9.2c-0.1,0-0.2-0.1-0.2-0.2L9,14.6H8.1v0.9
	c0,0.1-0.1,0.2-0.2,0.2H6.7c-0.1,0-0.2-0.1-0.2-0.2l-0.3-1.8L5.2,6.1H4.9v0H4.6C4.4,6.1,4.2,6,4.2,5.8V4.9c0-0.3,0.3-0.5,0.5-0.5
	h10.5c0.3,0,0.5,0.2,0.5,0.5V5.8z"/>
</svg>
