<?xml version="1.0" encoding="utf-8"?>
<!-- Generator: Adobe Illustrator 22.0.0, SVG Export Plug-In . SVG Version: 6.00 Build 0)  -->
<svg version="1.1" id="Layer_1" xmlns="http://www.w3.org/2000/svg" xmlns:xlink="http://www.w3.org/1999/xlink" x="0px" y="0px"
	 viewBox="0 0 22 22" style="enable-background:new 0 0 22 22;" xml:space="preserve">
<style type="text/css">
	.st0{fill:#E57435;}
	.st1{fill:#FFFFFF;}
</style>
<g>
	<g>
		<g>
			<circle class="st0" cx="11" cy="11" r="9.1"/>
			<path class="st1" d="M11,21.1C5.4,21.1,0.9,16.6,0.9,11S5.4,0.9,11,0.9S21.1,5.4,21.1,11S16.6,21.1,11,21.1z M11,2.9
				c-4.5,0-8.1,3.7-8.1,8.1c0,4.5,3.7,8.1,8.1,8.1c4.5,0,8.1-3.7,8.1-8.1C19.1,6.5,15.5,2.9,11,2.9z"/>
		</g>
	</g>
	<path class="st1" d="M11,15.9c-0.6,0-1.1-0.5-1.1-1.1c0-0.6,0.5-1.1,1.1-1.1s1.1,0.5,1.1,1.1C12.1,15.4,11.6,15.9,11,15.9z
		 M10.2,6.1h1.7c0.1,0,0.2,0.1,0.2,0.2l-0.5,6.3c0,0.1-0.1,0.2-0.2,0.2h-0.7c-0.1,0-0.2-0.1-0.2-0.2L9.9,6.3
		C9.9,6.2,10,6.1,10.2,6.1L10.2,6.1z"/>
</g>
</svg>