<?xml version="1.0" encoding="utf-8"?>
<!-- Generator: Adobe Illustrator 22.0.0, SVG Export Plug-In . SVG Version: 6.00 Build 0)  -->
<svg version="1.1" id="Layer_1" xmlns="http://www.w3.org/2000/svg" xmlns:xlink="http://www.w3.org/1999/xlink" x="0px" y="0px"
	 viewBox="0 0 20 20" style="enable-background:new 0 0 20 20;" xml:space="preserve">
<style type="text/css">
	.st0{fill:#4D4E4E;}
</style>
<g>
	<path class="st0" d="M5.4,3H1.9C1.6,3,1.4,3.2,1.4,3.5v13c0,0.3,0.2,0.5,0.5,0.5h3.5c0.3,0,0.5-0.2,0.5-0.5v-13
		C5.9,3.2,5.6,3,5.4,3z"/>
	<path class="st0" d="M11.7,3H8.3C8,3,7.8,3.2,7.8,3.5v13C7.8,16.8,8,17,8.3,17h3.5c0.3,0,0.5-0.2,0.5-0.5v-13C12.2,3.2,12,3,11.7,3
		z"/>
	<path class="st0" d="M18.1,3h-3.5c-0.3,0-0.5,0.2-0.5,0.5v13c0,0.3,0.2,0.5,0.5,0.5h3.5c0.3,0,0.5-0.2,0.5-0.5v-13
		C18.6,3.2,18.4,3,18.1,3z"/>
</g>
</svg>
