<?xml version="1.0" encoding="utf-8"?>
<!-- Generator: Adobe Illustrator 22.0.0, SVG Export Plug-In . SVG Version: 6.00 Build 0)  -->
<svg version="1.1" id="Layer_1" xmlns="http://www.w3.org/2000/svg" xmlns:xlink="http://www.w3.org/1999/xlink" x="0px" y="0px"
	 viewBox="0 0 20 20" style="enable-background:new 0 0 20 20;" xml:space="preserve">
<style type="text/css">
	.st0{fill:#FFFFFF;}
</style>
<g>
	<path class="st0" d="M11.2,8.6l-5.6,0L4.3,9.7L6.2,11L7,10.3L7.8,11l0.8-0.7L9.4,11l1.8,0c0.5,1,1.5,1.7,2.7,1.7
		c1.6,0,2.9-1.3,2.9-2.9c0-1.6-1.3-2.9-2.9-2.9C12.7,6.8,11.7,7.5,11.2,8.6z M14.8,8.9c0.4,0,0.8,0.4,0.8,0.8c0,0.4-0.4,0.8-0.8,0.8
		c-0.4,0-0.8-0.4-0.8-0.8C14,9.3,14.4,8.9,14.8,8.9z"/>
	<path class="st0" d="M18.2,14.4L17,13.5c0,0-0.1,0-0.1,0c0,0-0.1,0-0.1,0.1c-0.9,1.5-2.3,2.7-4,3.2c-3.7,1.2-7.8-0.9-9-4.6
		c-1.2-3.7,0.9-7.8,4.6-9c2-0.6,4.2-0.4,6,0.8l-0.7,0.7c0,0,0,0.1,0,0.1c0,0,0,0.1,0.1,0.1l3.7,0.9c0,0,0.1,0,0.1,0c0,0,0-0.1,0-0.1
		l-0.9-3.7c0,0,0-0.1-0.1-0.1c0,0-0.1,0-0.1,0l-0.9,0.9c-2.3-1.6-5.1-2-7.8-1.2C3.3,3,0.7,8.1,2.2,12.7c0.7,2.3,2.3,4.1,4.4,5.2
		c1.3,0.7,2.7,1,4.1,1c0.9,0,1.8-0.1,2.7-0.4c2-0.7,3.8-2,4.9-3.9C18.3,14.5,18.2,14.4,18.2,14.4z"/>
</g>
</svg>
