<?xml version="1.0" encoding="utf-8"?>
<!-- Generator: Adobe Illustrator 22.0.0, SVG Export Plug-In . SVG Version: 6.00 Build 0)  -->
<svg version="1.1" id="Layer_1" xmlns="http://www.w3.org/2000/svg" xmlns:xlink="http://www.w3.org/1999/xlink" x="0px" y="0px"
	 viewBox="0 0 20 20" style="enable-background:new 0 0 20 20;" xml:space="preserve">
<style type="text/css">
	.st0{fill:#5FB565;}
</style>
<g>
	<g>
		<path class="st0" d="M10,15.6c-1.6,0-3-0.6-4-1.6l2.1-2.1H2.5v5.6l2.2-2.2c1.4,1.4,3.2,2.2,5.3,2.2c4.1,0,7.5-3.4,7.5-7.5h-1.9
			C15.6,13.1,13.1,15.6,10,15.6L10,15.6z"/>
		<path class="st0" d="M10,2.5c-4.1,0-7.5,3.4-7.5,7.5h1.9c0-3.1,2.5-5.6,5.6-5.6c1.6,0,3,0.6,4,1.6l-2.1,2.1h5.6V2.5l-2.2,2.2
			C13.9,3.3,12.1,2.5,10,2.5L10,2.5z"/>
	</g>
</g>
</svg>
