<?xml version="1.0" encoding="utf-8"?>
<!-- Generator: Adobe Illustrator 22.0.0, SVG Export Plug-In . SVG Version: 6.00 Build 0)  -->
<svg version="1.1" id="Layer_1" xmlns="http://www.w3.org/2000/svg" xmlns:xlink="http://www.w3.org/1999/xlink" x="0px" y="0px"
	 viewBox="0 0 20 20" style="enable-background:new 0 0 20 20;" xml:space="preserve">
<style type="text/css">
	.st0{fill:#5FB766;}
	.st1{fill:#FFFFFF;}
</style>
<circle class="st0" cx="10" cy="10" r="7"/>
<path class="st1" d="M13,6.7H7C6.8,6.7,6.7,6.8,6.7,7v6c0,0.2,0.1,0.3,0.3,0.3h6c0.2,0,0.3-0.1,0.3-0.3V7C13.3,6.8,13.2,6.7,13,6.7z
	 M12.1,9.2l-2.4,2.4c-0.2,0.2-0.5,0.2-0.7,0l-1.1-1.1c-0.2-0.2-0.2-0.5,0-0.7c0.2-0.2,0.5-0.2,0.7,0l0.8,0.8l2-2
	c0.2-0.2,0.5-0.2,0.7,0l0,0C12.3,8.7,12.3,9,12.1,9.2z"/>
</svg>
