<?xml version="1.0" encoding="utf-8"?>
<!-- Generator: Adobe Illustrator 22.0.0, SVG Export Plug-In . SVG Version: 6.00 Build 0)  -->
<svg version="1.1" id="Layer_1" xmlns="http://www.w3.org/2000/svg" xmlns:xlink="http://www.w3.org/1999/xlink" x="0px" y="0px"
	 viewBox="0 0 20 20" style="enable-background:new 0 0 20 20;" xml:space="preserve">
<style type="text/css">
	.st0{fill:#FFFFFF;}
</style>
<path class="st0" d="M12.9,4.7c-1.1,0-2.1,0.3-2.9,0.9C9.2,5,8.1,4.7,7.1,4.7c-2.9,0-5.3,2.4-5.3,5.3s2.4,5.3,5.3,5.3
	c1.1,0,2.1-0.3,2.9-0.9c0.8,0.6,1.9,0.9,2.9,0.9c2.9,0,5.3-2.4,5.3-5.3S15.9,4.7,12.9,4.7z M3.2,10c0-2.1,1.7-3.8,3.8-3.8
	c0.7,0,1.3,0.2,1.8,0.5c-0.7,0.9-1.2,2-1.2,3.3s0.5,2.4,1.2,3.3c-0.5,0.3-1.1,0.5-1.8,0.5C5,13.8,3.2,12.1,3.2,10z M12.9,13.8
	c-0.7,0-1.3-0.2-1.8-0.5c0.7-0.9,1.2-2.1,1.2-3.3c0-1.3-0.5-2.4-1.2-3.3c0.5-0.3,1.1-0.5,1.8-0.5c2.1,0,3.8,1.7,3.8,3.8
	S15,13.8,12.9,13.8z"/>
</svg>
