<?xml version="1.0" encoding="utf-8"?>
<!-- Generator: Adobe Illustrator 22.0.0, SVG Export Plug-In . SVG Version: 6.00 Build 0)  -->
<svg version="1.1" id="Layer_1" xmlns="http://www.w3.org/2000/svg" xmlns:xlink="http://www.w3.org/1999/xlink" x="0px" y="0px"
	 viewBox="0 0 20 20" style="enable-background:new 0 0 20 20;" xml:space="preserve">
<style type="text/css">
	.st0{fill-rule:evenodd;clip-rule:evenodd;fill:#FFFFFF;}
</style>
<path class="st0" d="M19,12.2L19,12.2c0,0.4-0.3,0.7-0.7,0.7h-2.1c-0.4,0-0.7-0.3-0.7-0.7v0c0-0.4,0.3-0.7,0.7-0.7h1.3
	c-0.2-1.5-0.7-2.8-1.6-3.9l-0.9,0.9c-0.3,0.3-0.8,0.3-1.1,0l0,0c-0.3-0.3-0.3-0.8,0-1.1l0.9-0.9c-1.1-0.9-2.4-1.5-3.9-1.6V6
	c0,0.4-0.3,0.8-0.8,0.8h0C9.6,6.8,9.2,6.5,9.2,6V4.8C7.7,4.9,6.4,5.5,5.3,6.4l0.9,0.9c0.3,0.3,0.3,0.8,0,1.1l0,0
	c-0.3,0.3-0.8,0.3-1.1,0L4.2,7.5C3.3,8.6,2.7,10,2.6,11.4h1.3c0.4,0,0.7,0.3,0.7,0.7v0c0,0.4-0.3,0.7-0.7,0.7H1.7
	c-0.4,0-0.7-0.3-0.7-0.7v0c0-5,4-9,9-9S19,7.2,19,12.2 M12.1,9.3l-4.8,3.9c-0.2,0.2-0.3,0.3-0.4,0.5c-1.3,1.9,1.4,4.1,3,2.4
	c0.1-0.2,0.3-0.3,0.4-0.5l2.8-5.5C13.5,9.5,12.6,8.8,12.1,9.3"/>
</svg>
