<?xml version="1.0" encoding="utf-8"?>
<!-- Generator: Adobe Illustrator 27.5.0, SVG Export Plug-In . SVG Version: 6.00 Build 0)  -->
<svg version="1.1" id="Layer_1" xmlns="http://www.w3.org/2000/svg" xmlns:xlink="http://www.w3.org/1999/xlink" x="0px" y="0px"
	 viewBox="0 0 22 22" style="enable-background:new 0 0 22 22;" xml:space="preserve">
<style type="text/css">
	.st0{fill:#6EBBDA;}
	.st1{fill:#FFFFFF;}
</style>
<g>
	<g>
		<g>
			<circle class="st0" cx="11" cy="11" r="9.1"/>
		</g>
	</g>
</g>
<path class="st1" d="M8.4,9.5c0.5,0,0.9-0.4,0.9-0.9S8.9,7.8,8.4,7.8C8,7.8,7.6,8.1,7.6,8.7C7.6,9.2,8,9.5,8.4,9.5z M6.9,6.6l3-0.4
	c0.3,0,0.6,0.1,0.8,0.3l5.3,5.3c0.2,0.2,0.2,0.5-0.1,0.7l-3.7,3.7c-0.3,0.3-0.6,0.3-0.7,0.1L6.2,11C6.1,10.8,6,10.5,6,10.2l0.4-3
	C6.3,6.9,6.6,6.6,6.9,6.6z"/>
</svg>
