<?xml version="1.0" encoding="utf-8"?>
<!-- Generator: Adobe Illustrator 22.0.0, SVG Export Plug-In . SVG Version: 6.00 Build 0)  -->
<svg version="1.1" id="Layer_1" xmlns="http://www.w3.org/2000/svg" xmlns:xlink="http://www.w3.org/1999/xlink" x="0px" y="0px"
	 viewBox="0 0 20 20" style="enable-background:new 0 0 20 20;" xml:space="preserve">
<style type="text/css">
	.st0{fill:#FFFFFF;}
</style>
<path class="st0" d="M17,17v-1.5c0-0.7-0.5-1.3-1.1-1.5c-0.1,0-3.3-0.9-3.8-1.8c-0.2-0.4,0-1,0.2-1.3c0.1-0.1,0.2-0.3,0.3-0.4
	c0,0,0,0,0,0c0.6-0.9,1-2.1,1-3.5C13.7,4.8,12,3,10,3h0h0C8,3,6.3,4.8,6.4,6.9c0,1.4,0.5,2.6,1,3.5c0,0,0,0,0,0
	c0.1,0.1,0.2,0.3,0.3,0.4c0.2,0.4,0.4,0.9,0.2,1.3C7.4,13.1,4.2,14,4.1,14C3.5,14.2,3,14.8,3,15.5V17L17,17z"/>
</svg>
