<?xml version="1.0" encoding="utf-8"?>
<!-- Generator: Adobe Illustrator 22.0.0, SVG Export Plug-In . SVG Version: 6.00 Build 0)  -->
<svg version="1.1" id="Layer_1" xmlns="http://www.w3.org/2000/svg" xmlns:xlink="http://www.w3.org/1999/xlink" x="0px" y="0px"
	 viewBox="0 0 20 20" style="enable-background:new 0 0 20 20;" xml:space="preserve">
<style type="text/css">
	.st0{fill:#FFFFFF;}
</style>
<path class="st0" d="M6.4,8l2.5,1.7L10,9c0.1-0.1,0.2-0.1,0.3,0l2,1.6l1.6-0.5c0,0,0.1,0,0.1,0c0.1,0,0.3,0.1,0.3,0.3v1.4
	c0,0.1-0.1,0.3-0.3,0.3H6.2c-0.1,0-0.3-0.1-0.3-0.3V8.3C5.9,8.2,6,8.1,6.1,8C6.2,8,6.3,8,6.4,8L6.4,8z M14.3,13.5
	c0,0.3-0.3,0.6-0.6,0.6H6.5c-0.3,0-0.6-0.3-0.6-0.6c0-0.3,0.3-0.6,0.6-0.6h7.1C14,12.9,14.3,13.2,14.3,13.5L14.3,13.5z M14.3,15.4
	c0,0.3-0.3,0.6-0.6,0.6H6.5c-0.3,0-0.6-0.3-0.6-0.6s0.3-0.6,0.6-0.6h7.1C14,14.9,14.3,15.1,14.3,15.4L14.3,15.4z M7.4,7.1h5.2
	c0.4,0,0.8-0.3,0.8-0.7V5.8H15c0.3,0,0.5,0.2,0.5,0.4v10.6c0,0.2-0.2,0.4-0.5,0.4H5c-0.3,0-0.5-0.2-0.5-0.4V6.2C4.6,6,4.8,5.8,5,5.8
	h1.6v0.6h0C6.6,6.8,7,7.1,7.4,7.1L7.4,7.1z M10,2.2c0.3,0,0.5,0.2,0.6,0.4c0.1,0.2,0,0.5-0.1,0.7C10.3,3.5,10,3.6,9.7,3.5
	C9.5,3.4,9.3,3.1,9.3,2.9C9.3,2.5,9.6,2.2,10,2.2L10,2.2z M2.8,6.2v10.6C2.8,18,3.8,19,5,19H15h0c1.2,0,2.2-1,2.2-2.1V6.2
	c0-1.2-1-2.1-2.2-2.1h-1.6V3.6c0-0.2-0.1-0.4-0.2-0.5c-0.1-0.1-0.3-0.2-0.5-0.2H12c0-1-0.9-1.9-2-1.9C8.9,1,8,1.8,8,2.9H7.4
	C7,2.9,6.6,3.2,6.6,3.6v0.5H5C3.8,4.1,2.8,5,2.8,6.2L2.8,6.2z"/>
</svg>
