<?xml version="1.0" encoding="UTF-8"?>
<svg id="Layer_1" data-name="Layer 1" xmlns="http://www.w3.org/2000/svg" version="1.1" viewBox="0 0 20 20">
  <defs>
    <style>
      .cls-1 {
        fill: #e37433;
        stroke-width: 0px;
      }
    </style>
  </defs>
  <g>
    <path class="cls-1" d="M18.6,11.8l-1.2-1.2c-1.6-2-4.1-3.1-6.6-3.1s-4.9,1.1-6.6,3.1l-1,1.2c-.2.2-.2.5,0,.8l1.1,1.3c1.6,2,4.1,3.1,6.6,3.1s4.9-1.1,6.6-3.1l1.1-1.3c.2-.2.2-.5,0-.8ZM13,14.4c-.6.7-1.4,1-2.3,1.1-.9,0-1.6-.3-2.3-1-.6-.7-1-1.5-1-2.3s.3-1.6,1-2.3c.7-.6,1.5-1,2.3-1s1.6.3,2.3,1c.6.6,1,1.4,1,2.3s-.3,1.6-1,2.3Z"/>
    <path class="cls-1" d="M10.7,10.8c-.7,0-1.2.5-1.2,1.2s.5,1.2,1.2,1.2,1.2-.5,1.2-1.2-.5-1.2-1.2-1.2Z"/>
  </g>
  <path class="cls-1" d="M8.7,3.7l-1-1c-.1-.1-.3-.1-.4,0l-3.2,3.2-1.2-1.2c-.1-.1-.3-.1-.4,0l-1,1c-.1.1-.1.3,0,.4l2.5,2.5c0,0,.1,0,.2,0s.1,0,.2,0l4.4-4.4c.1-.1.1-.3,0-.4Z"/>
</svg>