<?xml version="1.0" encoding="utf-8"?>
<!-- Generator: Adobe Illustrator 22.0.0, SVG Export Plug-In . SVG Version: 6.00 Build 0)  -->
<svg version="1.1" id="Layer_1" xmlns="http://www.w3.org/2000/svg" xmlns:xlink="http://www.w3.org/1999/xlink" x="0px" y="0px"
	 viewBox="0 0 20 20" style="enable-background:new 0 0 20 20;" xml:space="preserve">
<style type="text/css">
	.st0{fill:#FFFFFF;}
	.st1{fill:#4D4E4E;}
</style>
<g>
	<path class="st0" d="M12.2,11.8l1.1-6.1h1.8l-1.9,8.5h-1.8L10,8.6l-1.4,5.7H6.8L4.9,5.7h1.8l1.2,6.1l1.4-6.1h1.5L12.2,11.8z"/>
</g>
<g>
	<path class="st1" d="M18,18.5H2c-1.1,0-2-0.9-2-2v-13c0-1.1,0.9-2,2-2h16c1.1,0,2,0.9,2,2v13C20,17.6,19.1,18.5,18,18.5z"/>
	<g>
		<path class="st0" d="M12.3,10.6H8.9v2.3h4v1.4H7.1V5.7h5.7v1.4H8.9v2h3.4V10.6z"/>
	</g>
</g>
</svg>
