<?xml version="1.0" encoding="utf-8"?>
<!-- Generator: Adobe Illustrator 22.0.0, SVG Export Plug-In . SVG Version: 6.00 Build 0)  -->
<svg version="1.1" id="Layer_1" xmlns="http://www.w3.org/2000/svg" xmlns:xlink="http://www.w3.org/1999/xlink" x="0px" y="0px"
	 viewBox="0 0 20 20" style="enable-background:new 0 0 20 20;" xml:space="preserve">
<style type="text/css">
	.st0{fill:#5FB766;}
</style>
<g>
	<path class="st0" d="M18.2,0.8l-0.2,0c0,0-0.1,0-0.1,0c-1.3,0-3.7,0-6.1,1.7c-0.4,0.3-0.8,0.7-1.1,1.2c-0.5-0.2-1.1-0.2-1.6,0
		C8.9,3.3,8.6,2.9,8.1,2.5C5.8,0.8,3.4,0.8,2.1,0.8L2,0.8l-0.2,0c-0.1,0-0.2,0.1-0.2,0.3v0.6c0,0.1,0,0.1,0.1,0.2s0.1,0.1,0.2,0.1
		c0,0,0,0,0,0l0.2,0c1.3,0,3.4,0,5.4,1.5c0.4,0.3,0.7,0.6,0.9,1C7.8,5,7.5,5.9,7.5,6.8c0,0.1,0.1,0.2,0.2,0.2h4.6
		c0.1,0,0.2-0.1,0.2-0.2c0-0.9-0.3-1.8-0.9-2.4c0.2-0.4,0.5-0.7,0.9-1c2-1.5,4.1-1.5,5.4-1.5l0.1,0l0.2,0c0,0,0,0,0,0
		c0.1,0,0.1,0,0.2-0.1s0.1-0.1,0.1-0.2V1.1C18.5,0.9,18.4,0.8,18.2,0.8z"/>
	<path class="st0" d="M16.5,9.5c0.1,0,0.1-0.1,0.2-0.2l0.7-1.9h0.9c0.1,0,0.2-0.1,0.2-0.2V6.6c0-0.1-0.1-0.2-0.2-0.2h-1.5
		c-0.1,0-0.2,0.1-0.2,0.2l-0.7,2l-0.9,0.2V8.1c0-0.1-0.1-0.3-0.2-0.3H5.4C5.2,7.9,5.1,8,5.1,8.1v0.7L4.2,8.5l-0.7-2
		c0-0.1-0.1-0.2-0.2-0.2H1.8c-0.1,0-0.2,0.1-0.2,0.2v0.6c0,0.1,0.1,0.2,0.2,0.2h0.9l0.7,1.9c0,0.1,0.1,0.1,0.2,0.2l1.6,0.4v1l-1.5,0
		c-0.1,0-0.2,0.1-0.2,0.2l-0.7,1.6H1.8c-0.1,0-0.2,0.1-0.2,0.2v0.6c0,0.1,0.1,0.2,0.2,0.2h1.4c0.1,0,0.2-0.1,0.2-0.2L4.2,12l1,0
		c0,0.9,0,1.5,0.1,2.1l-1.8,0.6c-0.1,0-0.1,0.1-0.2,0.2l-0.7,3.2H1.8c-0.1,0-0.2,0.1-0.2,0.2v0.6c0,0.1,0.1,0.2,0.2,0.2h1.5
		c0.1,0,0.2-0.1,0.2-0.2l0.7-3.4l1.3-0.4c0.2,0.5,0.3,0.9,0.5,1.2c1.2,1.9,3.7,2.8,3.8,2.8c0,0,0.1,0,0.1,0c0,0,0.1,0,0.1,0
		c0.1,0,2.6-1,3.8-2.8c0.2-0.3,0.4-0.7,0.5-1.2l1.3,0.4l0.7,3.4c0,0.1,0.1,0.2,0.2,0.2h1.5c0.1,0,0.2-0.1,0.2-0.2v-0.6
		c0-0.1-0.1-0.2-0.2-0.2h-0.8l-0.7-3.2c0-0.1-0.1-0.2-0.2-0.2l-1.8-0.6c0.1-0.6,0.1-1.2,0.1-2.1l1,0l0.7,1.6c0,0.1,0.1,0.2,0.2,0.2
		h1.4c0.1,0,0.2-0.1,0.2-0.2v-0.6c0-0.1-0.1-0.2-0.2-0.2h-0.9L16.6,11c0-0.1-0.1-0.2-0.2-0.2l-1.5,0v-1L16.5,9.5z M12.9,11.5
		l-3.5,3.7c0,0-0.1,0.1-0.2,0.1c-0.1,0-0.1,0-0.2-0.1l-2-2.1C7,13,7,13,7,12.9s0-0.1,0.1-0.2l0.8-0.6C8,12,8.1,12,8.2,12.1l1,1.1
		l2.6-2.8c0,0,0.1-0.1,0.2-0.1c0.1,0,0.1,0,0.2,0.1l0.7,0.7C13,11.2,13,11.4,12.9,11.5z"/>
</g>
</svg>
