<?xml version="1.0" encoding="utf-8"?>
<!-- Generator: Adobe Illustrator 22.0.0, SVG Export Plug-In . SVG Version: 6.00 Build 0)  -->
<svg version="1.1" id="Layer_1" xmlns="http://www.w3.org/2000/svg" xmlns:xlink="http://www.w3.org/1999/xlink" x="0px" y="0px"
	 viewBox="0 0 20 20" style="enable-background:new 0 0 20 20;" xml:space="preserve">
<style type="text/css">
	.st0{fill:#A5A5A5;}
</style>
<g>
	<path class="st0" d="M18.2,0.6l-0.2,0c0,0-0.1,0-0.1,0c-1.3,0-3.7,0-6.1,1.7c-0.4,0.3-0.8,0.7-1.1,1.2c-0.5-0.2-1.1-0.2-1.6,0
		C8.9,3.1,8.6,2.7,8.1,2.3C5.8,0.6,3.4,0.6,2.1,0.6L2,0.6l-0.2,0c-0.1,0-0.2,0.1-0.2,0.2v0.6c0,0.1,0,0.1,0.1,0.2s0.1,0.1,0.2,0.1
		c0,0,0,0,0,0l0.2,0c1.3,0,3.4,0,5.4,1.5c0.4,0.3,0.7,0.6,0.9,1C7.8,4.8,7.5,5.7,7.5,6.6c0,0.1,0.1,0.2,0.2,0.2h4.6
		c0.1,0,0.2-0.1,0.2-0.2c0-0.9-0.3-1.8-0.9-2.4c0.2-0.4,0.5-0.7,0.9-1c2-1.5,4.1-1.5,5.4-1.5l0.1,0l0.2,0c0,0,0,0,0,0
		c0.1,0,0.1,0,0.2-0.1s0.1-0.1,0.1-0.2V0.8C18.5,0.7,18.4,0.6,18.2,0.6z"/>
	<path class="st0" d="M16.5,9.3c0.1,0,0.1-0.1,0.2-0.2l0.7-1.9h0.9c0.1,0,0.2-0.1,0.2-0.2V6.4c0-0.1-0.1-0.2-0.2-0.2h-1.5
		c-0.1,0-0.2,0.1-0.2,0.2l-0.7,2l-0.9,0.2V7.9c0-0.1-0.1-0.2-0.2-0.2H5.4c-0.1,0-0.2,0.1-0.2,0.2v0.7L4.2,8.3l-0.7-2
		c0-0.1-0.1-0.2-0.2-0.2H1.8c-0.1,0-0.2,0.1-0.2,0.2V7c0,0.1,0.1,0.2,0.2,0.2h0.9l0.7,1.9c0,0.1,0.1,0.1,0.2,0.2l1.6,0.4v1l-1.5,0
		c-0.1,0-0.2,0.1-0.2,0.2l-0.7,1.6H1.8c-0.1,0-0.2,0.1-0.2,0.2v0.6c0,0.1,0.1,0.2,0.2,0.2h1.4c0.1,0,0.2-0.1,0.2-0.2l0.7-1.6l1,0
		c0,0.9,0,1.5,0.1,2.1l-1.8,0.6c-0.1,0-0.1,0.1-0.2,0.2l-0.7,3.2H1.8c-0.1,0-0.2,0.1-0.2,0.2v0.6c0,0.1,0.1,0.2,0.2,0.2h1.5
		c0.1,0,0.2-0.1,0.2-0.2l0.7-3.4l1.3-0.4c0.2,0.5,0.3,0.9,0.5,1.2C7.3,18,9.8,18.9,9.9,19c0,0,0.1,0,0.1,0c0,0,0.1,0,0.1,0
		c0.1,0,2.6-1,3.8-2.8c0.2-0.3,0.4-0.7,0.5-1.2l1.3,0.4l0.7,3.4c0,0.1,0.1,0.2,0.2,0.2h1.5c0.1,0,0.2-0.1,0.2-0.2v-0.6
		c0-0.1-0.1-0.2-0.2-0.2h-0.8l-0.7-3.2c0-0.1-0.1-0.2-0.2-0.2l-1.8-0.6c0.1-0.6,0.1-1.2,0.1-2.1l1,0l0.7,1.6c0,0.1,0.1,0.2,0.2,0.2
		h1.4c0.1,0,0.2-0.1,0.2-0.2v-0.6c0-0.1-0.1-0.2-0.2-0.2h-0.9l-0.7-1.6c0-0.1-0.1-0.2-0.2-0.2l-1.5,0v-1L16.5,9.3z M12.4,14.1
		c0.1,0.1,0.1,0.3,0,0.4l-0.7,0.7c0,0-0.1,0.1-0.2,0.1s-0.1,0-0.2-0.1L10,13.9l-1.3,1.3c-0.1,0.1-0.3,0.1-0.4,0l-0.7-0.7
		c-0.1-0.1-0.1-0.3,0-0.4l1.3-1.3l-1.3-1.3c-0.1-0.1-0.1-0.3,0-0.4l0.7-0.7c0.1-0.1,0.3-0.1,0.4,0l1.3,1.3l1.3-1.3
		c0.1-0.1,0.3-0.1,0.4,0l0.7,0.7c0.1,0.1,0.1,0.3,0,0.4l-1.3,1.3L12.4,14.1z"/>
</g>
</svg>
