<?xml version="1.0" encoding="utf-8"?>
<!-- Generator: Adobe Illustrator 22.0.0, SVG Export Plug-In . SVG Version: 6.00 Build 0)  -->
<svg version="1.1" id="Layer_1" xmlns="http://www.w3.org/2000/svg" xmlns:xlink="http://www.w3.org/1999/xlink" x="0px" y="0px"
	 viewBox="0 0 20 20" style="enable-background:new 0 0 20 20;" xml:space="preserve">
<style type="text/css">
	.st0{fill:#9FDD57;}
	.st1{fill:#FFFFFF;}
</style>
<g>
	<circle class="st0" cx="10" cy="10" r="9.4"/>
	<g>
		<g>
			<path class="st1" d="M9.7,8.7c0,0.8-0.2,1.4-0.7,1.8c-0.5,0.4-1.2,0.6-2,0.6H6.3v2.5H4.8V6.5H7c0.9,0,1.5,0.2,2,0.6
				C9.5,7.4,9.7,8,9.7,8.7z M6.3,9.8h0.5c0.5,0,0.8-0.1,1-0.3s0.3-0.5,0.3-0.8c0-0.4-0.1-0.6-0.3-0.8C7.7,7.8,7.4,7.7,7,7.7H6.3V9.8
				z"/>
			<path class="st1" d="M15.7,12.1h-0.9v1.5h-1.5v-1.5h-3v-1l3.1-4.6h1.4V11h0.9V12.1z M13.4,11V9.7c0-0.2,0-0.5,0-0.9s0-0.6,0-0.7
				h0C13.3,8.5,13.1,8.7,13,9l-1.3,2H13.4z"/>
		</g>
	</g>
</g>
</svg>
