<?xml version="1.0" encoding="utf-8"?>
<!-- Generator: Adobe Illustrator 22.0.0, SVG Export Plug-In . SVG Version: 6.00 Build 0)  -->
<svg version="1.1" id="Layer_1" xmlns="http://www.w3.org/2000/svg" xmlns:xlink="http://www.w3.org/1999/xlink" x="0px" y="0px"
	 viewBox="0 0 20 20" style="enable-background:new 0 0 20 20;" xml:space="preserve">
<style type="text/css">
	.st0{fill:#4D4D4D;}
</style>
<path class="st0" d="M2.7,15c0-0.3,0.3-0.6,0.6-0.6C3.7,14.4,4,14.6,4,15c0,0.3-0.3,0.6-0.6,0.6C3,15.6,2.7,15.3,2.7,15z M2.7,10
	c0-0.3,0.3-0.6,0.6-0.6C3.7,9.4,4,9.7,4,10c0,0.3-0.3,0.6-0.6,0.6C3,10.6,2.7,10.3,2.7,10z M2.7,5c0,0.3,0.3,0.6,0.6,0.6
	C3.7,5.6,4,5.4,4,5c0-0.3-0.3-0.6-0.6-0.6C3,4.4,2.7,4.7,2.7,5z M4.8,5.8C4.5,6.3,4,6.7,3.3,6.7C2.4,6.7,1.7,5.9,1.7,5
	c0-0.9,0.7-1.7,1.7-1.7c0.6,0,1.2,0.3,1.5,0.9c0.1,0,0.1,0,0.2,0h12.5c0.5,0,0.8,0.4,0.8,0.8c0,0.5-0.4,0.8-0.8,0.8H5
	C4.9,5.8,4.9,5.8,4.8,5.8z M4.8,10.8c0.1,0,0.1,0,0.2,0h12.5c0.5,0,0.8-0.4,0.8-0.8s-0.4-0.8-0.8-0.8H5c-0.1,0-0.1,0-0.2,0
	C4.5,8.7,4,8.3,3.3,8.3c-0.9,0-1.7,0.7-1.7,1.7c0,0.9,0.7,1.7,1.7,1.7C4,11.7,4.5,11.3,4.8,10.8z M4.8,15.8c0.1,0,0.1,0,0.2,0h12.5
	c0.5,0,0.8-0.4,0.8-0.8s-0.4-0.8-0.8-0.8H5c-0.1,0-0.1,0-0.2,0c-0.3-0.5-0.8-0.9-1.5-0.9c-0.9,0-1.7,0.7-1.7,1.7
	c0,0.9,0.7,1.7,1.7,1.7C4,16.7,4.5,16.3,4.8,15.8z"/>
</svg>
