<?xml version="1.0" encoding="utf-8"?>
<!-- Generator: Adobe Illustrator 22.0.0, SVG Export Plug-In . SVG Version: 6.00 Build 0)  -->
<svg version="1.1" id="Layer_1" xmlns="http://www.w3.org/2000/svg" xmlns:xlink="http://www.w3.org/1999/xlink" x="0px" y="0px"
	 viewBox="0 0 20 20" style="enable-background:new 0 0 20 20;" xml:space="preserve">
<style type="text/css">
	.st0{fill:#4D4E4E;}
</style>
<path class="st0" d="M16.8,10.9c0.5,0,0.8-0.4,0.8-0.8c0-0.5-0.4-0.8-0.8-0.8h-1.9V6.9h1.9c0.5,0,0.8-0.4,0.8-0.8s-0.4-0.8-0.8-0.8
	h-1.9V3.4c0-0.5-0.4-0.8-0.8-0.8c-0.5,0-0.8,0.4-0.8,0.8v1.9H11V3.4c0-0.5-0.4-0.8-0.8-0.8S9.3,2.9,9.3,3.4v1.9H7V3.4
	c0-0.5-0.4-0.8-0.8-0.8S5.3,2.9,5.3,3.4v1.9H3.4C3,5.3,2.6,5.6,2.6,6.1S3,6.9,3.4,6.9h1.9v2.3H3.4c-0.5,0-0.8,0.4-0.8,0.8
	c0,0.5,0.4,0.8,0.8,0.8h1.9v2.3H3.4c-0.5,0-0.8,0.4-0.8,0.8c0,0.5,0.4,0.8,0.8,0.8h1.9v1.9c0,0.5,0.4,0.8,0.8,0.8S7,17.3,7,16.8
	v-1.9h2.3v1.9c0,0.5,0.4,0.8,0.8,0.8s0.8-0.4,0.8-0.8v-1.9h2.3v1.9c0,0.5,0.4,0.8,0.8,0.8c0.5,0,0.8-0.4,0.8-0.8v-1.9h1.9
	c0.5,0,0.8-0.4,0.8-0.8c0-0.5-0.4-0.8-0.8-0.8h-1.9v-2.3H16.8z M13.3,6.9v2.3H11V6.9H13.3z M7,6.9h2.3v2.3H7V6.9z M7,13.2v-2.3h2.3
	v2.3H7z M13.3,13.2H11v-2.3h2.3V13.2z"/>
</svg>
