<?xml version="1.0" encoding="utf-8"?>
<!-- Generator: Adobe Illustrator 27.3.1, SVG Export Plug-In . SVG Version: 6.00 Build 0)  -->
<svg version="1.1" id="Layer_1" xmlns="http://www.w3.org/2000/svg" xmlns:xlink="http://www.w3.org/1999/xlink" x="0px" y="0px"
	 viewBox="0 0 20 20" style="enable-background:new 0 0 20 20;" xml:space="preserve">
<style type="text/css">
	.st0{fill:#FFFFFF;}
</style>
<g id="Group_485" transform="translate(0 0)">
</g>
<g id="Group_484" transform="translate(0 0)">
	<path id="Path_119" class="st0" d="M9.8,13h4.8c0.3,0,0.5,0.2,0.5,0.4s-0.2,0.5-0.4,0.5c0,0,0,0,0,0H9.8c-0.3,0-0.5-0.2-0.5-0.4
		C9.3,13.3,9.5,13,9.8,13L9.8,13L9.8,13z M8.1,12.2L8.1,12.2c0.3,0,0.5,0.2,0.5,0.5c0,0.1-0.1,0.3-0.2,0.3l-1.8,1.7
		c-0.2,0.2-0.5,0.2-0.6,0l-0.9-0.8l0,0C5,13.8,5,13.7,5,13.5c0-0.3,0.2-0.5,0.5-0.5c0,0,0,0,0,0c0.1,0,0.2,0,0.3,0.1l0.5,0.5
		l1.5-1.4l0,0C7.9,12.2,8,12.2,8.1,12.2C8.1,12.2,8.1,12.2,8.1,12.2L8.1,12.2z M9.8,9.5h4.7c0.3,0,0.5,0.2,0.5,0.4s-0.2,0.5-0.4,0.5
		c0,0,0,0,0,0H9.8c-0.3,0-0.5-0.2-0.5-0.4C9.3,9.8,9.5,9.5,9.8,9.5C9.8,9.5,9.8,9.5,9.8,9.5z M8.1,8.7c0.3,0,0.5,0.2,0.5,0.5
		c0,0.1-0.1,0.3-0.2,0.3l-1.8,1.7c-0.2,0.2-0.5,0.2-0.6,0l-0.9-0.8c-0.2-0.2-0.2-0.5,0-0.7c0,0,0,0,0,0c0.2-0.2,0.5-0.2,0.7,0
		c0,0,0,0,0,0l0.5,0.5l1.5-1.4l0,0C7.9,8.7,8,8.7,8.1,8.7L8.1,8.7z M9.8,6h4.7C14.8,6,15,6.2,15,6.5c0,0.3-0.2,0.5-0.4,0.5
		c0,0,0,0,0,0H9.8C9.6,7,9.3,6.8,9.3,6.5C9.3,6.3,9.5,6.1,9.8,6C9.8,6,9.8,6,9.8,6z M8.1,5.2c0.3,0,0.5,0.2,0.5,0.5
		c0,0.1-0.1,0.3-0.2,0.3L6.6,7.7C6.4,7.9,6.1,7.9,6,7.7L5.1,6.9c-0.2-0.2-0.2-0.5,0-0.7c0.2-0.2,0.4-0.2,0.6,0l0.5,0.5l1.5-1.4l0,0
		C7.9,5.3,8,5.2,8.1,5.2L8.1,5.2L8.1,5.2z M5,2.5C3.6,2.5,2.5,3.6,2.5,5v10c0,1.4,1.1,2.5,2.5,2.5h10c1.4,0,2.5-1.1,2.5-2.5V5
		c0-1.4-1.1-2.5-2.5-2.5H5z"/>
</g>
</svg>
