<?xml version="1.0" encoding="utf-8"?>
<!-- Generator: Adobe Illustrator 22.0.0, SVG Export Plug-In . SVG Version: 6.00 Build 0)  -->
<svg version="1.1" id="Layer_1" xmlns="http://www.w3.org/2000/svg" xmlns:xlink="http://www.w3.org/1999/xlink" x="0px" y="0px"
	 viewBox="0 0 20 20" style="enable-background:new 0 0 20 20;" xml:space="preserve">
<style type="text/css">
	.st0{fill:#4D4E4E;}
</style>
<g>
	<path class="st0" d="M7.7,12.3V3.8h8.5L7.7,12.3z M16.2,2.1H7.7c-1,0-1.8,0.8-1.8,1.8v8.4c0,0.5,0.2,0.9,0.6,1.3
		c0.3,0.3,0.8,0.6,1.3,0.6h8.5c0.5,0,0.9-0.2,1.3-0.6c0.3-0.3,0.6-0.8,0.6-1.3V3.8C17.9,2.9,17.1,2.1,16.2,2.1z"/>
	<path class="st0" d="M3.8,17.9h8.5c0.5,0,0.9-0.2,1.3-0.6c0.3-0.3,0.6-0.8,0.6-1.3v-0.6c0-0.5-0.5-0.9-0.9-0.9
		c-0.5,0-0.9,0.5-0.9,0.9v0.6H3.8V7.7h0.5c0.5,0,0.9-0.5,0.9-0.9c0-0.5-0.5-0.9-0.9-0.9H3.8C2.9,5.9,2,6.7,2,7.7v8.5
		c0,0.5,0.2,0.9,0.6,1.3C2.9,17.8,3.3,17.9,3.8,17.9z"/>
</g>
</svg>
