<?xml version="1.0" encoding="utf-8"?>
<!-- Generator: Adobe Illustrator 22.0.0, SVG Export Plug-In . SVG Version: 6.00 Build 0)  -->
<svg version="1.1" id="Layer_1" xmlns="http://www.w3.org/2000/svg" xmlns:xlink="http://www.w3.org/1999/xlink" x="0px" y="0px"
	 viewBox="0 0 20 20" style="enable-background:new 0 0 20 20;" xml:space="preserve">
<style type="text/css">
	.st0{fill:#4D4E4E;}
</style>
<g>
	<path class="st0" d="M19.4,2.2c0-0.5-0.4-0.9-0.9-0.9l-2.9,0c-0.5,0-0.9,0.4-0.9,0.9s0.4,0.9,0.9,0.9h0.9l-3.3,3.3
		c-0.3,0.3-0.3,0.9,0,1.2c0.3,0.3,0.9,0.3,1.2,0l3.3-3.3v0.9C17.7,5.6,18,6,18.5,6s0.9-0.4,0.9-0.9L19.4,2.2z"/>
	<path class="st0" d="M11.3,7.1l-2.9,0C8,7.1,7.6,7.5,7.6,7.9c0,0.4,0.4,0.8,0.8,0.8h0.8l-3,3l-3-3h0.8c0.4,0,0.8-0.4,0.8-0.8
		S4.4,7.1,3.9,7.1H1c-0.3,0-0.6,0.3-0.6,0.6v2.9c0,0.4,0.4,0.8,0.8,0.8c0.4,0,0.8-0.4,0.8-0.8V9.8l3,3l-3,3v-0.8
		c0-0.4-0.4-0.8-0.8-0.8s-0.8,0.4-0.8,0.8V18c0,0.3,0.3,0.6,0.6,0.6h2.9c0.4,0,0.8-0.4,0.8-0.8c0-0.4-0.4-0.8-0.8-0.8H3.1l3-3l3,3
		H8.4c-0.4,0-0.8,0.4-0.8,0.8c0,0.4,0.4,0.8,0.8,0.8h2.9c0.3,0,0.6-0.3,0.6-0.6v-2.9c0-0.4-0.4-0.8-0.8-0.8c-0.4,0-0.8,0.4-0.8,0.8
		v0.8l-3-3l3-3v0.8c0,0.4,0.4,0.8,0.8,0.8c0.4,0,0.8-0.4,0.8-0.8V7.7C12,7.4,11.7,7.1,11.3,7.1z"/>
</g>
</svg>
