<?xml version="1.0" encoding="utf-8"?>
<!-- Generator: Adobe Illustrator 26.1.0, SVG Export Plug-In . SVG Version: 6.00 Build 0)  -->
<svg version="1.1" id="Layer_1" xmlns="http://www.w3.org/2000/svg" xmlns:xlink="http://www.w3.org/1999/xlink" x="0px" y="0px"
	 viewBox="0 0 20 20" style="enable-background:new 0 0 20 20;" xml:space="preserve">
<style type="text/css">
	.st0{fill:#4E4E4E;}
</style>
<g id="Group_634" transform="translate(0 0)">
	<g>
		<g id="Group_631" transform="translate(0 0)">
			<path id="Path_138" class="st0" d="M10,2c-4.4,0-8,3.6-8,8c0,4.4,3.6,8,8,8s8-3.6,8-8c0,0,0,0,0,0C18,5.6,14.4,2,10,2
				C10,2,10,2,10,2 M13.2,14.5L10,13.1l-3.2,1.4l0.4-3.4L4.8,8.5l3.4-0.8l1.8-3l1.8,3l3.4,0.8L13,11.1L13.2,14.5z"/>
		</g>
	</g>
</g>
</svg>
