<?xml version="1.0" encoding="utf-8"?>
<!-- Generator: Adobe Illustrator 22.0.0, SVG Export Plug-In . SVG Version: 6.00 Build 0)  -->
<svg version="1.1" id="Layer_1" xmlns="http://www.w3.org/2000/svg" xmlns:xlink="http://www.w3.org/1999/xlink" x="0px" y="0px"
     viewBox="0 0 20 20" style="enable-background:new 0 0 20 20;" xml:space="preserve">
  <style type="text/css">
	.link-path{fill:#FFFFFF;}
  </style>
<path class="link-path" d="M17.7,2.2c-1.7-1.7-4.4-1.7-6.1,0L8.3,5.6c1-0.1,2,0,2.9,0.4l2.1-2.1c0.8-0.8,2-0.8,2.8,0c0.8,0.8,0.8,2,0,2.8l-3.7,3.7
	c-0.8,0.8-2,0.8-2.8,0c-0.1-0.1-0.1-0.1-0.1-0.2c-0.3-0.2-0.8-0.1-1.1,0.1l-1,1c0.2,0.2,0.3,0.5,0.5,0.7l0,0c0,0,0,0,0,0
	c1.7,1.7,4.4,1.7,6.1,0l3.7-3.7C19.4,6.7,19.4,4,17.7,2.2C17.8,2.3,17.7,2.3,17.7,2.2C17.7,2.3,17.7,2.2,17.7,2.2L17.7,2.2z
	 M11.7,14.4l-3.3,3.3c-1.7,1.7-4.4,1.7-6.1,0c0,0,0,0,0,0c0,0,0,0,0,0c-1.7-1.7-1.7-4.4,0-6.1l3.7-3.7c1.7-1.7,4.4-1.7,6.1,0
	c0,0,0,0,0,0c0,0,0,0,0,0c0.2,0.2,0.4,0.4,0.5,0.7l-1,1c-0.3,0.3-0.7,0.3-1.1,0.1c0-0.1-0.1-0.1-0.1-0.2c-0.8-0.8-2-0.8-2.8,0
	l-3.7,3.7c-0.8,0.8-0.8,2,0,2.8c0.8,0.8,2,0.8,2.8,0L8.8,14C9.7,14.4,10.7,14.5,11.7,14.4L11.7,14.4z"/>
</svg>
