<?xml version="1.0" encoding="utf-8"?>
<!-- Generator: Adobe Illustrator 22.0.0, SVG Export Plug-In . SVG Version: 6.00 Build 0)  -->
<svg version="1.1" id="Layer_1" xmlns="http://www.w3.org/2000/svg" xmlns:xlink="http://www.w3.org/1999/xlink" x="0px" y="0px"
	 viewBox="0 0 20 20" style="enable-background:new 0 0 20 20;" xml:space="preserve">
<style type="text/css">
	.st0{fill:#5FB766;}
	.st1{fill:#FFFFFF;}
</style>
<g>
	<circle class="st0" cx="10" cy="10" r="7"/>
</g>
<path class="st1" d="M11.1,6.5C11.1,6.5,11.2,6.6,11.1,6.5c0.4,0.6,1.1,1.1,1.8,1.3C13,8.2,13,8.6,13.1,9c0.1,0.4,0.3,0.7,0.5,1
	c-0.2,0.3-0.4,0.7-0.5,1C13,11.4,13,11.8,13,12.1c-0.7,0.2-1.4,0.7-1.8,1.3c0,0,0,0,0,0.1c-0.4-0.1-0.8-0.2-1.1-0.2
	c-0.4,0-0.8,0.1-1.1,0.2c0,0,0,0,0-0.1c-0.4-0.5-1.1-1.1-1.8-1.3C7,11.8,7,11.4,6.9,11c-0.1-0.4-0.3-0.7-0.5-1
	c0.2-0.3,0.4-0.7,0.5-1C7,8.6,7,8.2,7,7.9c0.7-0.2,1.4-0.7,1.8-1.3c0,0,0,0,0-0.1C9.2,6.6,9.6,6.7,10,6.7
	C10.4,6.7,10.8,6.6,11.1,6.5 M11.5,5.2C11.4,5.7,10.7,6,10,6C9.3,6,8.6,5.7,8.5,5.2c0.3,0.8-1.1,2-2,2c-0.2,0-0.3,0-0.5-0.1
	C6.8,7.6,6,10,5,10c1,0,1.8,2.4,1,2.9c0.1-0.1,0.3-0.1,0.5-0.1c0.9,0,2.3,1.2,2,2C8.6,14.3,9.3,14,10,14s1.4,0.2,1.5,0.7
	c-0.3-0.8,1.1-2,2-2c0.2,0,0.3,0,0.5,0.1c-0.8-0.6,0-2.9,1-2.9c-1,0-1.8-2.4-1-2.9c-0.1,0.1-0.3,0.1-0.5,0.1
	C12.7,7.2,11.3,6,11.5,5.2L11.5,5.2z M14,7.1L14,7.1L14,7.1z"/>
<polygon class="st1" points="9.4,11.8 7.7,10.1 8.6,9.3 9.4,10.2 11.4,8.2 12.3,9 "/>
</svg>
