<?xml version="1.0" encoding="utf-8"?>
<!-- Generator: Adobe Illustrator 26.5.0, SVG Export Plug-In . SVG Version: 6.00 Build 0)  -->
<svg version="1.1" id="Layer_1" xmlns="http://www.w3.org/2000/svg" xmlns:xlink="http://www.w3.org/1999/xlink" x="0px" y="0px"
	 viewBox="0 0 20 20" style="enable-background:new 0 0 20 20;" xml:space="preserve">
<style type="text/css">
	.st0{fill:#FFFFFF;}
</style>
<path class="st0" d="M12.6,15.4c0.5-1.2,0.8-2.8,0.9-4.3h2.4C15.6,12.9,14.3,14.6,12.6,15.4z M4.1,11.1h2.4c0.1,1.6,0.4,3.1,0.9,4.3
	C5.7,14.5,4.4,12.9,4.1,11.1z M7.4,4.6C6.9,5.8,6.6,7.4,6.5,8.9H4.1C4.4,7.1,5.7,5.5,7.4,4.6z M8.5,8.9C8.7,6.2,9.6,4.5,10,4.4
	c0.4,0.1,1.3,1.7,1.5,4.5H8.5z M10,15.6c-0.4-0.1-1.3-1.7-1.5-4.5h2.9C11.3,13.8,10.4,15.4,10,15.6z M15.9,8.9h-2.4
	c-0.1-1.6-0.4-3.1-0.9-4.3C14.3,5.4,15.6,7.1,15.9,8.9z M10,2c-4.4,0-8,3.6-8,8s3.6,8,8,8s8-3.6,8-8S14.4,2,10,2z"/>
</svg>
