<?xml version="1.0" encoding="utf-8"?>
<!-- Generator: Adobe Illustrator 22.0.0, SVG Export Plug-In . SVG Version: 6.00 Build 0)  -->
<svg version="1.1" id="Layer_1" xmlns="http://www.w3.org/2000/svg" xmlns:xlink="http://www.w3.org/1999/xlink" x="0px" y="0px"
	 viewBox="0 0 20 20" style="enable-background:new 0 0 20 20;" xml:space="preserve">
<style type="text/css">
	.st0{fill:#FFFFFF;}
</style>
<g>
	<path class="st0" d="M14.4,14.4c-2.4,2.4-6.3,2.4-8.8,0S3.2,8,5.6,5.6s6.3-2.4,8.8,0S16.8,12,14.4,14.4z M4.3,4.3
		c-3.1,3.1-3.1,8.2,0,11.3s8.2,3.1,11.3,0s3.1-8.2,0-11.3S7.5,1.2,4.3,4.3z"/>
	<path class="st0" d="M11.5,7.2L10,8.7L8.5,7.2c-0.4-0.4-0.9-0.4-1.3,0c-0.4,0.4-0.4,0.9,0,1.3L8.7,10l-1.5,1.5
		c-0.4,0.4-0.4,0.9,0,1.3c0.4,0.4,0.9,0.4,1.3,0l1.5-1.5l1.5,1.5c0.4,0.4,0.9,0.4,1.3,0c0.4-0.4,0.4-0.9,0-1.3L11.3,10l1.5-1.5
		c0.4-0.4,0.4-0.9,0-1.3C12.4,6.8,11.9,6.8,11.5,7.2L11.5,7.2z"/>
</g>
</svg>
