<?xml version="1.0" encoding="utf-8"?>
<!-- Generator: Adobe Illustrator 22.0.0, SVG Export Plug-In . SVG Version: 6.00 Build 0)  -->
<svg version="1.1" id="Layer_1" xmlns="http://www.w3.org/2000/svg" xmlns:xlink="http://www.w3.org/1999/xlink" x="0px" y="0px"
	 viewBox="0 0 20 20" style="enable-background:new 0 0 20 20;" xml:space="preserve">
<style type="text/css">
	.st0{fill:#E37333;}
	.st1{fill:#FFFFFF;}
</style>
<circle class="st0" cx="10" cy="10" r="7"/>
<g>
	<path class="st1" d="M10.6,6C9.5,5.8,8.4,6.1,7.5,6.8C6.6,7.4,6,8.4,5.9,9.6l0,0L5,9.4c0,0-0.1,0-0.1,0.1c0,0,0,0.1,0,0.1l1.2,1.6
		c0,0,0.1,0.1,0.2,0l1.6-1.2C8,10.1,8,10,8,10s0-0.1-0.1-0.1L6.9,9.7c0,0,0,0,0-0.1l0,0c0.1-0.9,0.6-1.7,1.4-2.2s1.7-0.6,2.6-0.3
		c0.8,0.2,1.6,0.9,1.9,1.7c0.3,0.8,0.3,1.8,0,2.6c-0.4,0.8-1.1,1.4-2,1.6c-0.9,0.2-1.8,0.1-2.5-0.4c-0.2-0.1-0.4-0.1-0.6,0
		c-0.1,0.1-0.2,0.2-0.2,0.4c0,0.1,0.1,0.3,0.2,0.4c1,0.7,2.3,0.9,3.6,0.5c1.2-0.4,2.2-1.3,2.6-2.4c0.4-1.2,0.3-2.5-0.3-3.6
		C12.9,6.9,11.9,6.1,10.6,6L10.6,6z"/>
	<path class="st1" d="M10.3,7.9c-0.1,0-0.2,0-0.3,0.1C9.8,8.1,9.8,8.2,9.8,8.4V10l-1.3,0.9c-0.2,0.1-0.2,0.5-0.1,0.7
		c0.1,0.2,0.5,0.2,0.7,0.1l1.7-1.2l0,0V8.4c0-0.1,0-0.2-0.1-0.3S10.4,7.9,10.3,7.9L10.3,7.9z"/>
</g>
</svg>
