<?xml version="1.0" encoding="utf-8"?>
<!-- Generator: Adobe Illustrator 22.0.0, SVG Export Plug-In . SVG Version: 6.00 Build 0)  -->
<svg version="1.1" id="Layer_1" xmlns="http://www.w3.org/2000/svg" xmlns:xlink="http://www.w3.org/1999/xlink" x="0px" y="0px"
	 viewBox="0 0 20 20" style="enable-background:new 0 0 20 20;" xml:space="preserve">
<style type="text/css">
	.st0{fill:#FFFFFF;}
</style>
<g>
	<polygon class="st0" points="16.4,4.9 10,4.9 8.2,3 1.8,3 1.8,6.7 16.4,6.7 	"/>
	<g>
		<path class="st0" d="M7.7,12.3c0,0.3,0,0.5,0.1,0.8c0.4-0.1,0.9-0.1,1.2-0.1v-1.3c-0.5,0-0.9-0.1-1.2-0.1
			C7.7,11.7,7.7,12,7.7,12.3z"/>
		<path class="st0" d="M9.1,14.9v-1.6c-0.4,0-0.7,0-1.1,0.1C8.2,14,8.5,14.5,9.1,14.9z"/>
		<path class="st0" d="M16.4,7.6H1.8V17h14.6l1.8-9.4H16.4z M9.3,15.5C9.3,15.5,9.3,15.5,9.3,15.5L9.3,15.5L9.3,15.5
			C9.3,15.5,9.3,15.5,9.3,15.5L9.3,15.5L9.3,15.5C7.5,15.5,6,14,6,12.3S7.5,9,9.3,9c0,0,0,0,0,0h0c1.8,0,3.2,1.5,3.2,3.3
			C12.5,14,11.1,15.5,9.3,15.5z"/>
		<path class="st0" d="M7.9,11.1c0.3,0.1,0.7,0.1,1.1,0.1V9.6v0C8.5,10,8.2,10.5,7.9,11.1z"/>
		<path class="st0" d="M8.4,9.6L8.4,9.6c-0.7,0.2-1.2,0.7-1.6,1.2c0.1,0,0.4,0.1,0.6,0.2C7.7,10.4,8,10,8.4,9.6z"/>
		<path class="st0" d="M7.3,12.3c0-0.3,0-0.6,0.1-0.8c-0.3-0.1-0.6-0.2-0.7-0.2c-0.1,0.3-0.2,0.7-0.2,1.1c0,0.4,0.1,0.7,0.2,1.1
			c0.2-0.1,0.5-0.1,0.7-0.2C7.3,12.8,7.3,12.5,7.3,12.3z"/>
		<path class="st0" d="M6.9,13.7c0.4,0.6,0.9,1,1.6,1.2c-0.4-0.4-0.7-0.9-0.9-1.4C7.3,13.6,7.1,13.6,6.9,13.7z"/>
		<path class="st0" d="M9.5,9.6v1.6c0.4,0,0.7,0,1.1-0.1C10.4,10.5,10,10,9.5,9.6z"/>
		<path class="st0" d="M10.1,9.6c0.4,0.4,0.7,0.9,0.9,1.4c0.2,0,0.4-0.1,0.6-0.2C11.3,10.2,10.8,9.8,10.1,9.6z"/>
		<path class="st0" d="M11.3,12.3c0,0.3,0,0.6-0.1,0.8c0.3,0.1,0.5,0.1,0.7,0.2c0.1-0.3,0.2-0.7,0.2-1c0-0.4-0.1-0.7-0.2-1.1
			c-0.2,0.1-0.5,0.1-0.7,0.2C11.2,11.7,11.3,12,11.3,12.3z"/>
		<path class="st0" d="M10.8,12.3L10.8,12.3c0-0.3,0-0.5-0.1-0.8c-0.4,0.1-0.9,0.1-1.3,0.1v1.3c0.5,0,0.9,0.1,1.3,0.1
			C10.8,12.8,10.8,12.5,10.8,12.3z"/>
		<path class="st0" d="M9.5,13.3v1.6c0.5-0.4,0.9-0.9,1.1-1.5C10.3,13.4,9.9,13.3,9.5,13.3z"/>
		<path class="st0" d="M10.1,14.9c0.7-0.2,1.2-0.7,1.6-1.2c-0.1,0-0.4-0.1-0.6-0.2C10.9,14.1,10.5,14.5,10.1,14.9z"/>
	</g>
</g>
</svg>
