<?xml version="1.0" encoding="utf-8"?>
<!-- Generator: Adobe Illustrator 26.5.0, SVG Export Plug-In . SVG Version: 6.00 Build 0)  -->
<svg version="1.1" id="Layer_1" xmlns="http://www.w3.org/2000/svg" xmlns:xlink="http://www.w3.org/1999/xlink" x="0px" y="0px"
	 viewBox="0 0 20 20" style="enable-background:new 0 0 20 20;" xml:space="preserve">
<style type="text/css">
	.st0{fill-rule:evenodd;clip-rule:evenodd;fill:#FFFFFF;}
</style>
<g>
	<path id="Path_144" class="st0" d="M16.1,4.8c0.1,0.2,0.3,0.3,0.4,0.5c1,1.4,1.6,3.1,1.6,4.8c0,1.8-0.6,3.6-1.8,5
		c-1.2,1.4-2.8,2.3-4.5,2.7c-2.1,0.5-4.3,0.1-6.1-1.1c-0.2-0.1-0.3-0.2-0.4-0.3l-0.1-0.1c0,0,0.1-0.1,0.1-0.2c0.3-0.3,0.6-0.7,0.9-1
		c0,0,0.1-0.1,0.2-0.1h7.3c0.3,0,0.6-0.1,0.9-0.3c0.3-0.2,0.4-0.6,0.4-0.9V6.1c0-0.1,0-0.2,0.1-0.3C15.4,5.5,15.7,5.2,16.1,4.8"/>
	<path id="Path_145" class="st0" d="M14.8,3.6c-0.3,0.3-0.7,0.7-1,1c-0.1,0.1-0.2,0.2-0.3,0.2H6.2C5.6,4.8,5,5.3,5,5.9
		C5,5.9,5,6,5,6v7.7c0,0,0,0.1,0,0.1c-0.3,0.4-0.7,0.8-1.1,1.2l0,0c0-0.1-0.1-0.1-0.2-0.2c-0.8-1.1-1.4-2.5-1.6-3.8
		C1.8,9.2,2.2,7.5,3,5.9c0.9-1.5,2.3-2.7,4-3.3C8.1,2.1,9.3,2,10.5,2c1.5,0.1,3,0.6,4.2,1.5C14.7,3.5,14.7,3.6,14.8,3.6
		C14.7,3.5,14.7,3.6,14.8,3.6"/>
	<path id="Path_146" class="st0" d="M14.2,4.8c0.3-0.3,0.6-0.6,0.9-1c0.2,0.2,0.4,0.4,0.6,0.6c-0.3,0.3-0.6,0.7-0.9,1
		c-0.1-0.1-0.2-0.2-0.3-0.3C14.4,5,14.3,4.9,14.2,4.8"/>
	<path id="Path_147" class="st0" d="M4.1,15.4c0.3-0.3,0.6-0.7,0.9-1c0.1,0.1,0.1,0.3,0.2,0.3c0.1,0.1,0.2,0.2,0.3,0.3
		c-0.3,0.3-0.6,0.6-0.9,0.9C4.5,15.8,4.3,15.6,4.1,15.4"/>
</g>
</svg>
