<?xml version="1.0" encoding="utf-8"?>
<!-- Generator: Adobe Illustrator 22.0.0, SVG Export Plug-In . SVG Version: 6.00 Build 0)  -->
<svg version="1.1" id="Layer_1" xmlns="http://www.w3.org/2000/svg" xmlns:xlink="http://www.w3.org/1999/xlink" x="0px" y="0px"
	 viewBox="0 0 20 20" style="enable-background:new 0 0 20 20;" xml:space="preserve">
<style type="text/css">
	.st0{fill:#E37333;}
	.st1{fill:#FFFFFF;}
</style>
<circle class="st0" cx="10" cy="10" r="7"/>
<path class="st1" d="M11.8,6.6c-0.7,0-1.3,0.2-1.8,0.6C9.5,6.8,8.8,6.6,8.2,6.6c-1.8,0-3.4,1.5-3.4,3.4s1.5,3.4,3.4,3.4
	c0.7,0,1.3-0.2,1.8-0.6c0.5,0.4,1.2,0.6,1.8,0.6c1.8,0,3.4-1.5,3.4-3.4S13.8,6.6,11.8,6.6z M5.7,10c0-1.3,1.1-2.4,2.4-2.4
	c0.4,0,0.8,0.1,1.1,0.3C8.8,8.5,8.5,9.2,8.5,10s0.3,1.5,0.8,2.1c-0.3,0.2-0.7,0.3-1.1,0.3C6.8,12.4,5.7,11.3,5.7,10z M11.8,12.4
	c-0.4,0-0.8-0.1-1.1-0.3c0.4-0.6,0.8-1.3,0.8-2.1c0-0.8-0.3-1.5-0.8-2.1c0.3-0.2,0.7-0.3,1.1-0.3c1.3,0,2.4,1.1,2.4,2.4
	S13.2,12.4,11.8,12.4z"/>
</svg>
