<?xml version="1.0" encoding="utf-8"?>
<!-- Generator: Adobe Illustrator 26.0.0, SVG Export Plug-In . SVG Version: 6.00 Build 0)  -->
<svg version="1.1" id="Layer_1" xmlns="http://www.w3.org/2000/svg" xmlns:xlink="http://www.w3.org/1999/xlink" x="0px" y="0px"
	 viewBox="0 0 20 20" style="enable-background:new 0 0 20 20;" xml:space="preserve">
<style type="text/css">
	.st0{fill-rule:evenodd;clip-rule:evenodd;fill:#4D4E4E;}
</style>
<path class="st0" d="M3.9,2.2C2.9,2.2,2,2.9,2,3.9c0,1,0.8,1.7,1.8,1.7c1,0,1.8-0.7,1.8-1.7C5.7,3,4.9,2.2,3.9,2.2L3.9,2.2z
	 M4.9,9.3L4.9,9.3c0,0.6,0.1,1.2,0.4,1.8c0.2,0.5,0.2,0.9,0.1,1.4c0,0.2-0.1,0.5-0.3,0.6c-0.3,0.3-0.6,0.5-1,0.8
	c-0.6,0.5-1.2,0.9-1.8,1.4c-0.4,0.3-0.5,0.6-0.3,1c0.3,0.7,0.8,1.1,1.5,1.4c0.4,0.2,0.8,0.1,1.1-0.2c0.2-0.2,0.3-0.4,0.5-0.6
	c0.6-0.7,1.2-1.4,1.8-2c0.1-0.1,0.2-0.2,0.4-0.2c0.4-0.1,0.7-0.1,1.1-0.1c0.4,0.1,0.8,0.2,1.2,0.3C10.1,15,10.6,15,11,15
	C9,13.1,7,11.2,4.9,9.3L4.9,9.3z M18,8.4c0,1-0.3,2-0.8,2.9c-0.5,1-1.2,1.8-2.1,2.4c-0.7,0.6-1.6,0.9-2.5,1.1c-0.1,0-0.1,0-0.1,0
	c0,0-0.1-0.1-0.1-0.1c-2.4-2.2-4.8-4.5-7.1-6.7C5.1,8,5,7.9,5.1,7.8c0.4-1.4,1.1-2.4,2.3-3.3c0.8-0.6,1.6-1,2.5-1.3
	c2.3-0.7,4.3-0.3,6.1,1.1c0.9,0.8,1.6,1.7,1.9,2.8C17.9,7.5,18,8,18,8.4L18,8.4z"/>
</svg>
