<?xml version="1.0" encoding="utf-8"?>
<!-- Generator: Adobe Illustrator 22.0.0, SVG Export Plug-In . SVG Version: 6.00 Build 0)  -->
<svg version="1.1" id="Layer_1" xmlns="http://www.w3.org/2000/svg" xmlns:xlink="http://www.w3.org/1999/xlink" x="0px" y="0px"
	 viewBox="0 0 20 20" style="enable-background:new 0 0 20 20;" xml:space="preserve">
<style type="text/css">
	.st0{fill:#4D4D4D;}
</style>
<polygon class="st0" points="3.4,1 3.4,4.8 7.2,4.8 7.2,3.8 9.1,3.8 9.1,18.1 12.8,18.1 12.8,19 16.6,19 16.6,15.2 12.8,15.2 
	12.8,16.2 10.9,16.2 10.9,10.9 12.8,10.9 12.8,11.9 16.6,11.9 16.6,8.1 12.8,8.1 12.8,9.1 10.9,9.1 10.9,3.8 12.8,3.8 12.8,4.8 
	16.6,4.8 16.6,1 12.8,1 12.8,1.9 7.2,1.9 7.2,1 "/>
</svg>
