<?xml version="1.0" encoding="utf-8"?>
<!-- Generator: Adobe Illustrator 22.0.0, SVG Export Plug-In . SVG Version: 6.00 Build 0)  -->
<svg version="1.1" id="Layer_1" xmlns="http://www.w3.org/2000/svg" xmlns:xlink="http://www.w3.org/1999/xlink" x="0px" y="0px"
	 viewBox="0 0 15 15" style="enable-background:new 0 0 15 15;" xml:space="preserve">
<style type="text/css">
	.st0{fill:#B2B2B2;}
	.st1{fill:#FFFFFF;}
</style>
<g>
	<g>
		<circle class="st0" cx="7.5" cy="7.5" r="7"/>
	</g>
	<g>
		<path class="st1" d="M11.6,6.4L11.6,6.4L11.6,6.4c0,0.1-0.1,0.2-0.2,0.4c-0.4,0.7-0.8,1.7-0.9,2.4c-0.3,2.5-1.3,2.7-2.5,2.7
			s-2-0.6-2.7-1.1L2.8,8.5C2.6,8.4,2.6,8.1,2.7,8C2.8,7.9,2.9,7.9,3,7.9s0.1,0,0.2,0l0,0c0,0,0.2,0.1,0.8,0.4
			c0.3,0.1,0.9,0.4,1.3,0.4c0.1,0,0.2,0,0.2,0c0.4-0.2,0.2-1.1-0.1-2.5L4.9,4.3c0-0.1,0-0.2,0-0.3C5,3.9,5,3.8,5.2,3.7h0.1
			c0.1,0,0.1,0,0.2,0.1c0.1,0,0.2,0.1,0.2,0.2l0.8,2.3c0.1,0.4,0.2,0.5,0.4,0.5l0,0c0.2,0,0.2-0.2,0.2-0.5V3.5
			c0-0.2,0.2-0.4,0.4-0.4C7.8,3.1,8,3.3,8,3.6v2.6c0,0.3,0,0.6,0.2,0.6l0,0c0.2,0,0.3-0.4,0.3-0.5L9,4.1C9,4,9.1,3.9,9.2,3.8
			c0.1-0.1,0.2-0.1,0.2-0.1h0.1c0.1,0,0.2,0.1,0.3,0.2C10,4.1,10,4.2,10,4.3L9.6,6.9c0,0.2,0,0.3,0.1,0.4h0.1c0.1,0,0.2,0,0.2-0.1
			l1-1.3c0.1-0.1,0.1-0.1,0.2-0.1c0,0,0,0,0.1,0s0.2,0,0.2,0.1C11.6,6,11.6,6,11.6,6.1C11.7,6.2,11.6,6.3,11.6,6.4L11.6,6.4z"/>
	</g>
</g>
</svg>
