<?xml version="1.0" encoding="utf-8"?>
<!-- Generator: Adobe Illustrator 22.0.0, SVG Export Plug-In . SVG Version: 6.00 Build 0)  -->
<svg version="1.1" id="Layer_1" xmlns="http://www.w3.org/2000/svg" xmlns:xlink="http://www.w3.org/1999/xlink" x="0px" y="0px"
	 viewBox="0 0 20 20" style="enable-background:new 0 0 20 20;" xml:space="preserve">
<style type="text/css">
	.st0{fill:#4D4D4D;}
</style>
<g>
	<path class="st0" d="M2.8,5.7c0.2,0,0.4-0.1,0.5-0.2C3.5,5.3,3.5,5.1,3.5,5V4.3c0-0.4,0.4-0.8,0.8-0.8H5c0.4,0,0.7-0.4,0.7-0.7
		S5.3,2,5,2H4.3C3,2,2.1,3,2.1,4.3V5c0,0.2,0.1,0.4,0.2,0.5C2.4,5.6,2.6,5.7,2.8,5.7L2.8,5.7z"/>
	<path class="st0" d="M2.8,12.2c0.2,0,0.4-0.1,0.5-0.2c0.2-0.1,0.2-0.4,0.2-0.5V8.6c0-0.4-0.4-0.7-0.7-0.7S2.1,8.1,2.1,8.6v2.9
		c0,0.2,0.1,0.4,0.2,0.5C2.3,12.2,2.6,12.2,2.8,12.2L2.8,12.2z"/>
	<path class="st0" d="M5,16.5H4.3c-0.4,0-0.7-0.4-0.7-0.7v-0.7c0-0.4-0.4-0.7-0.7-0.7S2.1,14.7,2.1,15v0.7C2.1,17,3,18,4.3,18H5
		c0.4,0,0.7-0.4,0.7-0.7C5.7,16.9,5.3,16.5,5,16.5z"/>
	<path class="st0" d="M11.4,16.5H8.6c-0.4,0-0.7,0.4-0.7,0.7c0,0.4,0.3,0.7,0.7,0.7h2.9c0.4,0,0.7-0.4,0.7-0.7
		C12.2,16.9,11.9,16.5,11.4,16.5z"/>
	<path class="st0" d="M17.3,14.3c-0.4,0-0.7,0.4-0.7,0.7v0.7c0,0.2-0.1,0.4-0.2,0.5c-0.2,0.2-0.4,0.2-0.5,0.2h-0.7
		c-0.4,0-0.7,0.4-0.7,0.7s0.4,0.7,0.7,0.7h0.7c1.2,0,2.2-1,2.2-2.2V15c0-0.2-0.1-0.4-0.2-0.5C17.6,14.4,17.4,14.3,17.3,14.3
		L17.3,14.3z"/>
	<path class="st0" d="M17.3,7.8c-0.4,0-0.7,0.4-0.7,0.7v2.9c0,0.4,0.4,0.7,0.7,0.7c0.4,0,0.7-0.4,0.7-0.7V8.6c0-0.2-0.1-0.4-0.2-0.5
		C17.6,7.9,17.4,7.8,17.3,7.8L17.3,7.8z"/>
	<path class="st0" d="M15.8,2H15c-0.4,0-0.7,0.4-0.7,0.7s0.4,0.7,0.7,0.7h0.7c0.2,0,0.4,0.1,0.5,0.2c0.2,0.2,0.2,0.4,0.2,0.5v0.7
		c0,0.4,0.4,0.7,0.7,0.7c0.4,0,0.7-0.4,0.7-0.7V4.3C18,3,17,2,15.8,2L15.8,2z"/>
	<path class="st0" d="M8.6,3.5h2.9c0.4,0,0.7-0.4,0.7-0.7S11.9,2,11.4,2H8.6C8.1,2,7.8,2.4,7.8,2.8S8.1,3.5,8.6,3.5z"/>
	<path class="st0" d="M12.9,9.3h-2.2V7.1c0-0.4-0.4-0.7-0.7-0.7c-0.4,0-0.7,0.4-0.7,0.7v2.2H7.1c-0.4,0-0.7,0.4-0.7,0.7
		c0,0.4,0.4,0.7,0.7,0.7h2.2v2.2c0,0.4,0.4,0.7,0.7,0.7c0.4,0,0.7-0.4,0.7-0.7v-2.2h2.2c0.4,0,0.7-0.4,0.7-0.7
		C13.6,9.6,13.3,9.3,12.9,9.3z"/>
</g>
</svg>
