<?xml version="1.0" encoding="utf-8"?>
<!-- Generator: Adobe Illustrator 16.0.0, SVG Export Plug-In . SVG Version: 6.00 Build 0)  -->
<!DOCTYPE svg PUBLIC "-//W3C//DTD SVG 1.1//EN" "http://www.w3.org/Graphics/SVG/1.1/DTD/svg11.dtd">
<svg version="1.1" id="Layer_1" xmlns="http://www.w3.org/2000/svg" xmlns:xlink="http://www.w3.org/1999/xlink" x="0px" y="0px"
	 width="360px" height="120px" viewBox="8 0 360 120" enable-background="new 0 0 360 120" xml:space="preserve">
<g>
	<g>
		<path fill="#fff" d="M147.262,92.344c-2.679-0.729-5.139-1.752-7.228-3.55c-2.348,2.366-5.294,3.237-8.473,3.299
			c-5.704,0.11-11.41,0.099-17.117,0.108c-2.758,0.005-5.522,0.029-8.276-0.104c-3.889-0.189-7.289-1.575-9.923-4.547
			c-1.576-1.78-2.392-3.916-2.798-6.229c-0.722-4.127-0.691-8.246,0.8-12.179c2.013-5.303,5.219-9.776,10.068-12.9
			c2.618-1.689,5.514-2.496,8.637-2.492c7.579,0.007,15.16,0.001,22.739,0.001c0.199,0,0.4,0,0.639,0c0,2.837,0,5.635,0,8.509
			c-0.149,0-0.313,0-0.478,0c-6.769,0.004-13.537,0.03-20.304,0.001c-1.761-0.009-3.495,0.037-5.162,0.652
			c-3.571,1.319-5.918,3.892-7.361,7.334c-1.129,2.698-1.522,5.496-0.75,8.367c0.964,3.597,3.842,5.592,7.562,5.306
			c0.542-0.042,1.088-0.062,1.635-0.062c5.941-0.004,11.883,0.017,17.824-0.021c1.017-0.007,2.068-0.13,3.042-0.41
			c2.867-0.826,4.516-2.887,5.291-5.673c0.252-0.904,0.376-1.869,0.385-2.81c0.051-5.738,0.067-11.476,0.064-17.216
			c0-4.334-0.032-8.669-0.075-13.002c-0.041-4.135-2.149-6.861-5.846-8.495c-1.708-0.754-3.5-0.933-5.344-0.92
			c-5.613,0.04-11.228,0.042-16.841,0.059c-1.326,0.003-2.651,0.007-3.977-0.006c-0.224-0.003-0.473-0.042-0.668-0.146
			c-2.936-1.553-4.538-4.031-5.02-7.279c-0.007-0.042,0.01-0.089,0.025-0.198c0.179,0,0.359,0,0.541,0
			c5.038,0,10.074,0.01,15.111-0.004c3.18-0.01,6.362-0.103,9.541-0.081c3.33,0.022,6.631,0.347,9.848,1.271
			c2.858,0.822,5.474,2.087,7.592,4.232c2.314,2.345,3.495,5.238,3.93,8.452c0.182,1.34,0.271,2.701,0.277,4.055
			c0.034,7.547,0.026,15.095,0.037,22.643c0.009,5.88,0.021,11.759,0.034,17.639c0.003,1.934,0.013,3.867,0.021,5.801
			C147.264,91.92,147.262,92.09,147.262,92.344z"/>
		<path fill="#fff" d="M327.431,27.89c-0.117,2.577-1.233,4.559-3.158,6.123c-0.085,0.069-0.175,0.132-0.261,0.199
			c-0.971,0.754-2.007,1.132-3.302,1.124c-8.156-0.057-16.313-0.031-24.47-0.026c-1.465,0-2.863,0.259-4.029,1.232
			c-1.062,0.886-1.629,2.058-1.73,3.412c-0.283,3.731-0.516,7.466-0.768,11.199c-0.064,0.958,0.229,1.818,0.756,2.6
			c0.622,0.929,1.537,1.345,2.627,1.371c1.277,0.029,2.557,0.022,3.836,0.026c6.424,0.022,12.854-0.091,19.272,0.111
			c4.62,0.146,8.353,2.146,10.515,6.463c0.736,1.474,0.979,3.081,0.984,4.72c0.015,3.696,0.029,7.392,0.037,11.088
			c0.002,1.246,0.09,2.503-0.04,3.736c-0.456,4.341-3.932,9.97-10.487,10.84c-0.754,0.102-1.521,0.148-2.283,0.148
			c-12.867,0.009-25.732,0.006-38.6,0.006c-0.201,0-0.403,0-0.686,0c0.127-0.381,0.215-0.723,0.353-1.045
			c1.466-3.437,3.979-5.903,7.181-7.737c0.6-0.343,1.199-0.498,1.9-0.495c5.192,0.025,10.387,0.017,15.58,0.014
			c4.46-0.003,8.92-0.014,13.379-0.02c2.367-0.003,4.441-1.708,4.757-4.066c0.161-1.195,0.105-2.426,0.1-3.639
			c-0.012-2.572-0.063-5.145-0.083-7.718c-0.017-2.268-1.459-3.814-3.702-3.937c-0.327-0.018-0.653-0.026-0.981-0.026
			c-7.143-0.001-14.285,0.062-21.428-0.026c-3.806-0.047-7.131-1.375-9.428-4.594c-1.682-2.355-2.328-5.03-2.159-7.916
			c0.246-4.201,0.46-8.405,0.718-12.608c0.115-1.885,0.887-3.56,1.901-5.114c2.13-3.258,5.233-4.967,9.034-5.407
			c1.604-0.186,3.236-0.154,4.855-0.155c3.993-0.006,7.984,0.029,11.977,0.047c5.801,0.023,11.602,0.047,17.402,0.07
			C327.123,27.89,327.246,27.89,327.431,27.89z"/>
		<path fill="#fff" d="M30,27.674c20.232,0,40.389,0,60.636,0c-0.176,0.596-0.296,1.16-0.502,1.689
			c-1.531,3.921-4.424,6.114-8.593,6.48c-1.997,0.174-4.02,0.075-6.029,0.073c-2.37-0.001-4.74-0.054-7.11-0.037
			c-1.566,0.01-2.789,1.147-3.17,2.868c-0.079,0.362-0.111,0.741-0.113,1.112c-0.004,17.249-0.004,34.498-0.004,51.745
			c0,0.185,0,0.367,0,0.669c-0.788-0.127-1.528-0.205-2.246-0.369c-1.995-0.457-3.806-1.287-5.26-2.774
			c-1.727-1.764-2.382-3.938-2.383-6.35c-0.001-14.41-0.004-28.82,0.007-43.23c0.001-1.097-0.384-2.01-1.069-2.814
			c-0.564-0.661-1.333-0.894-2.178-0.894c-2.714-0.001-5.427,0.012-8.142,0.001c-1.667-0.007-3.341,0.035-5.001-0.092
			c-4.43-0.343-7.856-3.28-8.744-7.396C30.053,28.147,30.035,27.932,30,27.674z"/>
		<path fill="#fff" d="M159.895,27.922c2.933,0.316,5.559,1.169,7.642,3.258c1.639,1.644,2.347,3.688,2.348,5.977
			c0.01,12.507,0.007,25.015,0.003,37.521c-0.001,1.683-0.044,3.37,0.394,5.017c0.535,2.007,1.632,2.836,3.715,2.838
			c8.81,0.007,17.62,0.057,26.432,0.007c4.278-0.024,6.829,2.265,8.134,5.665c0.484,1.257,0.784,2.559,0.865,3.99
			c-0.188,0-0.35,0-0.512,0c-13.537,0-27.072,0.003-40.608-0.002c-4.349-0.003-7.73-3.007-8.285-7.359
			c-0.082-0.631-0.122-1.272-0.122-1.91c-0.007-18.105-0.006-36.21-0.006-54.315C159.895,28.408,159.895,28.208,159.895,27.922z"/>
		<path fill="#fff" d="M264.167,39.087c0.519,0.662,1.044,1.277,1.511,1.935c4.109,5.808,6.273,12.256,6.206,19.392
			c-0.071,7.529-2.268,14.343-7.163,20.153c-4.809,5.705-10.947,9.294-18.201,10.901c-8.717,1.931-16.869,0.381-24.435-4.323
			c-0.608-0.378-1.171-0.827-1.749-1.249c-0.15-0.108-0.284-0.24-0.467-0.396c0.18-0.193,0.344-0.372,0.51-0.55
			c1.221-1.312,2.436-2.632,3.675-3.929c0.158-0.165,0.442-0.299,0.669-0.299c5.053-0.01,10.106,0,15.16,0.009
			c4.771,0.009,9.543,0.029,14.316,0.029c1.32,0,2.584-0.27,3.616-1.164c1.102-0.958,1.599-2.205,1.6-3.65
			c0.001-10.402,0.003-20.806-0.009-31.208c-0.002-0.426,0.125-0.725,0.413-1.027C261.261,42.2,262.682,40.67,264.167,39.087z"/>
		<path fill="#fff" d="M258.92,34.225c-1.368,1.419-2.756,2.791-4.053,4.242c-0.432,0.482-0.85,0.574-1.432,0.574
			c-9.637-0.015-19.274-0.01-28.91-0.01c-2.815,0-4.918,2.09-4.918,4.912c-0.001,8.981,0.004,17.964,0.008,26.945
			c0,1.342,0.015,2.683,0.004,4.022c-0.001,0.184-0.057,0.413-0.174,0.542c-1.479,1.605-2.973,3.196-4.462,4.79
			c-0.03,0.032-0.073,0.053-0.153,0.111c-0.217-0.259-0.445-0.51-0.649-0.777c-3.501-4.623-5.689-9.806-6.36-15.562
			c-0.842-7.219,0.27-14.123,3.916-20.488c3.687-6.441,9.193-10.778,16.045-13.466c4.426-1.736,9.021-2.553,13.779-2.237
			c6.178,0.412,11.807,2.421,16.881,5.972c0.141,0.1,0.271,0.209,0.405,0.318C258.869,34.131,258.881,34.164,258.92,34.225z"/>
		<path fill="#fff" d="M256.707,39.263c1.202-1.258,2.414-2.525,3.692-3.864c0.839,0.782,1.651,1.538,2.508,2.336
			c-1.3,1.359-2.509,2.628-3.732,3.908c-0.381-0.467-0.704-0.951-1.113-1.346C257.664,39.913,257.182,39.617,256.707,39.263z"/>
		<path fill="#fff" d="M216.037,81.809c1.34-1.405,2.605-2.73,3.812-3.996c0.295,0.508,0.52,1.052,0.883,1.479
			c0.365,0.432,0.866,0.747,1.353,1.148c-1.177,1.231-2.364,2.476-3.624,3.794C217.644,83.415,216.85,82.621,216.037,81.809z"/>
	</g>
	<g>
		<path fill="#fff" d="M326.742,90.013h-0.828v2.244h-0.664v-2.244h-0.812v-0.514h2.305V90.013L326.742,90.013z"/>
		<path fill="#fff" d="M327.895,89.499l0.615,1.919l0.614-1.919H330v2.758h-0.668v-0.645l0.064-1.318l-0.666,1.963h-0.438
			l-0.669-1.964l0.064,1.319v0.645h-0.666V89.5L327.895,89.499L327.895,89.499z"/>
	</g>
</g>
</svg>
